<?xml version="1.0" encoding="UTF-8" standalone="no"?>
<!DOCTYPE svg  PUBLIC '-//W3C//DTD SVG 1.1//EN'  'http://www.w3.org/Graphics/SVG/1.1/DTD/svg11.dtd'>
<svg xmlns="http://www.w3.org/2000/svg">
<defs>
<font id="WhitneyIndexBlack-SqMd" horiz-adv-x="1000">
<font-face underline-position="-113" font-weight="350" descent="-200" panose-1="2 0 6 4 5 0 0 2 0 3" units-per-em="1000" unicode-range="U+0020-00A0" bbox="81 -75 919 763" x-height="763" underline-thickness="20" font-family="WhitneyIndexBlack" ascent="800" cap-height="763"/>
<missing-glyph/>
<glyph glyph-name=".notdef"/>
<glyph glyph-name=".null" horiz-adv-x="0"/>
<glyph glyph-name="nonmarkingreturn"/>
<glyph glyph-name="space" unicode=" "/>
<glyph glyph-name="exclam" d="M540 135v85h-81v-85h81zM544 567h-90l22 -296l47 11zM919 763v-838h-838v838h838z" unicode="!"/>
<glyph glyph-name="numbersign" d="M543 293h-109l22 117h109zM697 232l-10 61h-88l23 116h90v62h-79l16 88l-53 14l-20 -102h-109l19 98h-56l-19 -98h-109l11 -62h87l-21 -116h-92v-61h80l-16 -90l54 -12l18 102h109l-19 -99h57l18 99h109zM919 763v-838h-838v838h838z" unicode="#"/>
<glyph glyph-name="asterisk" d="M727 438l-185 -36l-21 186h-41l-21 -186l-184 36l-11 -39l168 -78l-92 -165l31 -22l129 138l130 -138l31 22l-93 165l170 78zM919 763v-838h-838v838h838z" unicode="*"/>
<glyph glyph-name="zero" d="M500 187q-46 0 -72 41.5t-26 122.5q0 82 26 124t72 42t71.5 -42t25.5 -124t-25.5 -123t-71.5 -41zM675 351q0 110 -47.5 168t-127.5 58t-128 -58t-48 -168q0 -109 48 -167t128 -58t127.5 58t47.5 167zM919 763v-838h-838v838h838z" unicode="0"/>
<glyph glyph-name="one" d="M667 135l-10 68h-104v369h-66l-130 -59l9 -64l112 47v-293h-124v-68h313zM919 763v-838h-838v838h838z" unicode="1"/>
<glyph glyph-name="two" d="M361 459q72 48 131 48q37 0 61 -19t24 -49q0 -39 -61 -92l-178 -151v-61h324l-11 63h-217l131 105q47 37 69 70t22 74q0 57 -43 92.5t-110 35.5q-81 0 -152 -50zM919 763v-838h-838v838h838z" unicode="2"/>
<glyph glyph-name="three" d="M573 359v2q88 30 88 102q0 50 -42 81.5t-119 31.5q-84 0 -146 -44l10 -64q57 42 128 42q43 0 67 -15.5t24 -42.5t-29.5 -45t-86.5 -18h-53l10 -61h37q130 0 130 -68q0 -32 -27.5 -51t-75.5 -19q-66 0 -130 35l-12 -63q63 -36 149 -36q78 0 126 35.5t48 93.5q0 82 -96 104 zM919 763v-838h-838v838h838z" unicode="3"/>
<glyph glyph-name="four" d="M523 289h-94l-70 -2l54 69l64 84l50 75l-4 -86v-140zM673 233v56h-79v279h-92l-210 -280v-55h231v-98h71v98h79zM919 763v-838h-838v838h838z" unicode="4"/>
<glyph glyph-name="five" d="M483 126q85 0 135.5 41t50.5 111q0 62 -42.5 95.5t-119.5 33.5q-30 0 -70 -10l8 105h201l-10 65h-253l-15 -229l47 -11q35 16 80 16q95 0 95 -72q0 -36 -29.5 -57.5t-76.5 -21.5q-66 0 -126 34l-11 -67q62 -33 136 -33zM919 763v-838h-838v838h838z" unicode="5"/>
<glyph glyph-name="six" d="M391 301v3q50 43 109 43q40 0 62 -21t22 -55q0 -39 -25.5 -62t-66.5 -23q-42 0 -71.5 31t-29.5 84zM393 357l-3 2q17 61 68 102.5t128 55.5l-11 62q-117 -20 -189 -92t-72 -179q0 -85 50.5 -133t126.5 -48q72 0 121 41.5t49 106.5q0 58 -38.5 95t-99.5 37q-71 0 -130 -50 zM919 763v-838h-838v838h838z" unicode="6"/>
<glyph glyph-name="seven" d="M668 502v65h-326l10 -68h235l-182 -358l74 -16zM919 763v-838h-838v838h838z" unicode="7"/>
<glyph glyph-name="eight" d="M471 340q67 -22 92 -41t25 -50q0 -30 -26 -48.5t-65 -18.5t-65.5 20.5t-26.5 53.5q0 48 64 84h2zM498 521q37 0 57.5 -17.5t20.5 -45.5q0 -46 -52 -78h-2q-57 19 -79.5 36.5t-22.5 43.5q0 25 21.5 43t56.5 18zM665 249q0 75 -87 112q73 43 73 102q0 52 -41 82.5 t-112 30.5q-68 0 -109.5 -33t-41.5 -85q0 -64 69 -99q-88 -43 -88 -112q0 -53 44.5 -87t125.5 -34q74 0 120.5 35t46.5 88zM919 763v-838h-838v838h838z" unicode="8"/>
<glyph glyph-name="nine" d="M606 396v-4q-54 -44 -109 -44q-40 0 -62 21t-22 57q0 39 25.5 64t66.5 25q42 0 71.5 -32.5t29.5 -86.5zM603 339l3 -1q-18 -60 -70 -102t-128 -56l10 -63q118 21 192 94.5t74 180.5q0 84 -51.5 134t-126.5 50q-72 0 -121 -44t-49 -111q0 -60 39 -96.5t100 -36.5 q68 0 128 51zM919 763v-838h-838v838h838z" unicode="9"/>
<glyph glyph-name="question" d="M528 135v85h-83v-85h83zM650 457q0 57 -38 88t-105 31q-82 0 -144 -48l11 -68q64 49 126 49q33 0 52 -14.5t19 -39.5q0 -27 -21 -44.5t-76 -38.5l-20 -8l7 -91l51 10l3 40q64 20 99.5 51.5t35.5 82.5zM919 763v-838h-838v838h838z" unicode="?"/>
<glyph glyph-name="A" d="M565 312h-133l66 192zM412 249h173l43 -119l80 15l-158 424h-97l-160 -434h79zM919 763v-838h-838v838h838z" unicode="A"/>
<glyph glyph-name="B" d="M590 263q0 -68 -89 -68h-65v137h64q90 0 90 -69zM575 447q0 -28 -21 -44.5t-59 -16.5h-59v121h62q77 0 77 -60zM668 261q0 80 -82 103q64 26 64 94q0 52 -37.5 80.5t-108.5 28.5h-144v-432h141q167 0 167 126zM919 763v-838h-838v838h838z" unicode="B"/>
<glyph glyph-name="C" d="M657 166l-10 66q-58 -38 -111 -38q-60 0 -96.5 43t-36.5 115t35.5 114.5t94.5 42.5q56 0 106 -38l10 71q-52 34 -121 34q-92 0 -149.5 -62.5t-57.5 -162.5t57 -162t150 -62q73 0 129 39zM919 763v-838h-838v838h838z" unicode="C"/>
<glyph glyph-name="D" d="M623 351q0 -73 -40 -112t-111 -39h-57v302h58q69 0 109.5 -39.5t40.5 -111.5zM704 352q0 98 -60.5 156.5t-172.5 58.5h-134v-432h135q108 0 170 59.5t62 157.5zM919 763v-838h-838v838h838z" unicode="D"/>
<glyph glyph-name="E" d="M637 135v64h-198v129h161l-10 63h-151v112h192v64h-270v-432h276zM919 763v-838h-838v838h838z" unicode="E"/>
<glyph glyph-name="F" d="M648 503v64h-268v-432h78v176h163l-11 64h-152v128h190zM919 763v-838h-838v838h838z" unicode="F"/>
<glyph glyph-name="G" d="M515 510q65 0 121 -41l11 71q-56 36 -133 36q-96 0 -154 -62t-58 -164q0 -100 56.5 -161.5t154.5 -61.5q87 0 156 45v201h-172l10 -61h90v-102q-38 -20 -78 -20q-65 0 -100.5 43t-35.5 118q0 72 35.5 115.5t96.5 43.5zM919 763v-838h-838v838h838z" unicode="G"/>
<glyph glyph-name="H" d="M680 135v432h-80v-172h-198v172h-79v-432h79v191h198v-191h80zM919 763v-838h-838v838h838z" unicode="H"/>
<glyph glyph-name="I" d="M618 135l-9 50h-70v332h78v51h-234l9 -51h68v-332h-75v-50h233zM919 763v-838h-838v838h838z" unicode="I"/>
<glyph glyph-name="J" d="M366 140q35 -9 82 -9q77 0 117.5 43.5t40.5 120.5v273h-80v-256q0 -115 -91 -115q-37 0 -85 11zM919 763v-838h-838v838h838z" unicode="J"/>
<glyph glyph-name="K" d="M694 145l-193 221l184 201h-91l-172 -194v194h-79v-432h79v212l189 -218zM919 763v-838h-838v838h838z" unicode="K"/>
<glyph glyph-name="L" d="M646 135l-10 65h-169v367h-80v-432h259zM919 763v-838h-838v838h838z" unicode="L"/>
<glyph glyph-name="M" d="M642 475l19 -340h78l-28 432l-104 -1l-107 -341l-107 342h-105l-27 -432h74l18 341l106 -342h76zM919 763v-838h-838v838h838z" unicode="M"/>
<glyph glyph-name="N" d="M677 135v432h-72v-302l-204 302h-79v-432h72v316l215 -316h68zM919 763v-838h-838v838h838z" unicode="N"/>
<glyph glyph-name="O" d="M624 351q0 -70 -33.5 -114.5t-90.5 -44.5t-91 45t-34 114q0 71 33.5 115.5t91.5 44.5q57 0 90.5 -45t33.5 -115zM705 352q0 100 -58.5 162t-146.5 62t-147 -62.5t-59 -162.5t58.5 -162t146.5 -62q89 0 147.5 62.5t58.5 162.5zM919 763v-838h-838v838h838z" unicode="O"/>
<glyph glyph-name="P" d="M594 431q0 -79 -96 -79h-50v155h50q46 0 71 -19.5t25 -56.5zM369 567v-432h79v159h52q79 0 124.5 35.5t45.5 102.5q0 65 -45 100t-121 35h-135zM919 763v-838h-838v838h838z" unicode="P"/>
<glyph glyph-name="Q" d="M576 220q-31 -28 -77 -28q-57 0 -91 45t-34 115q0 71 33.5 115.5t91.5 44.5q56 0 90 -45t34 -115q0 -51 -17 -84l-54 42l-75 -15zM669 225q35 56 35 128q0 100 -58.5 161.5t-146.5 61.5q-89 0 -147.5 -62.5t-58.5 -162.5t58.5 -162t146.5 -62q76 0 133 51l76 -57l14 66z M919 763v-838h-838v838h838z" unicode="Q"/>
<glyph glyph-name="R" d="M427 357v147h55q91 0 91 -72q0 -36 -23 -55.5t-66 -19.5h-57zM559 311q92 31 92 124q0 61 -43 96.5t-120 35.5h-139v-432h79v162h53l117 -167l81 16zM919 763v-838h-838v838h838z" unicode="R"/>
<glyph glyph-name="S" d="M511 574q-71 0 -113.5 -32.5t-42.5 -88.5q0 -46 30.5 -75.5t99.5 -54.5q46 -16 67.5 -32.5t21.5 -41.5q0 -27 -21 -42.5t-60 -15.5q-62 0 -134 37l-11 -68q70 -32 143 -32q71 0 113 34.5t42 94.5q0 44 -30.5 75t-102.5 58q-44 16 -64.5 31.5t-20.5 37.5q0 53 81 53 q56 0 104 -31l12 67q-56 26 -114 26zM919 763v-838h-838v838h838z" unicode="S"/>
<glyph glyph-name="T" d="M677 498l-11 68h-342v-68h134v-365h80v365h139zM919 763v-838h-838v838h838z" unicode="T"/>
<glyph glyph-name="U" d="M498 128q80 0 128 47t48 129v263h-80v-259q0 -113 -96 -113q-94 0 -94 114v258h-79v-266q0 -80 47 -126.5t126 -46.5zM919 763v-838h-838v838h838z" unicode="U"/>
<glyph glyph-name="V" d="M630 567l-123 -354l-124 360l-83 -15l159 -425h91l161 434h-81zM919 763v-838h-838v838h838z" unicode="V"/>
<glyph glyph-name="W" d="M764 567h-78l-32 -208l-20 -148l-35 148l-52 208h-86l-52 -207l-34 -143l-20 141l-33 215l-79 -15l81 -423h90l87 336l90 -336h91zM919 763v-838h-838v838h838z" unicode="W"/>
<glyph glyph-name="X" d="M546 362l139 205h-88l-96 -147l-100 153l-83 -16l136 -199l-150 -223h88l108 165l114 -170l82 15zM919 763v-838h-838v838h838z" unicode="X"/>
<glyph glyph-name="Y" d="M699 566h-84l-115 -195l-117 201l-81 -14l157 -258v-166h80v168zM919 763v-838h-838v838h838z" unicode="Y"/>
<glyph glyph-name="Z" d="M670 135l-9 61h-234l237 317v54h-319l9 -60h217l-237 -318v-54h336zM919 763v-838h-838v838h838z" unicode="Z"/>
<glyph glyph-name="a" d="M565 312h-133l66 192zM412 249h173l43 -119l80 15l-158 424h-97l-160 -434h79zM919 763v-838h-838v838h838z" unicode="a"/>
<glyph glyph-name="b" d="M590 263q0 -68 -89 -68h-65v137h64q90 0 90 -69zM575 447q0 -28 -21 -44.5t-59 -16.5h-59v121h62q77 0 77 -60zM668 261q0 80 -82 103q64 26 64 94q0 52 -37.5 80.5t-108.5 28.5h-144v-432h141q167 0 167 126zM919 763v-838h-838v838h838z" unicode="b"/>
<glyph glyph-name="c" d="M657 166l-10 66q-58 -38 -111 -38q-60 0 -96.5 43t-36.5 115t35.5 114.5t94.5 42.5q56 0 106 -38l10 71q-52 34 -121 34q-92 0 -149.5 -62.5t-57.5 -162.5t57 -162t150 -62q73 0 129 39zM919 763v-838h-838v838h838z" unicode="c"/>
<glyph glyph-name="d" d="M623 351q0 -73 -40 -112t-111 -39h-57v302h58q69 0 109.5 -39.5t40.5 -111.5zM704 352q0 98 -60.5 156.5t-172.5 58.5h-134v-432h135q108 0 170 59.5t62 157.5zM919 763v-838h-838v838h838z" unicode="d"/>
<glyph glyph-name="e" d="M637 135v64h-198v129h161l-10 63h-151v112h192v64h-270v-432h276zM919 763v-838h-838v838h838z" unicode="e"/>
<glyph glyph-name="f" d="M648 503v64h-268v-432h78v176h163l-11 64h-152v128h190zM919 763v-838h-838v838h838z" unicode="f"/>
<glyph glyph-name="g" d="M515 510q65 0 121 -41l11 71q-56 36 -133 36q-96 0 -154 -62t-58 -164q0 -100 56.5 -161.5t154.5 -61.5q87 0 156 45v201h-172l10 -61h90v-102q-38 -20 -78 -20q-65 0 -100.5 43t-35.5 118q0 72 35.5 115.5t96.5 43.5zM919 763v-838h-838v838h838z" unicode="g"/>
<glyph glyph-name="h" d="M680 135v432h-80v-172h-198v172h-79v-432h79v191h198v-191h80zM919 763v-838h-838v838h838z" unicode="h"/>
<glyph glyph-name="i" d="M618 135l-9 50h-70v332h78v51h-234l9 -51h68v-332h-75v-50h233zM919 763v-838h-838v838h838z" unicode="i"/>
<glyph glyph-name="j" d="M366 140q35 -9 82 -9q77 0 117.5 43.5t40.5 120.5v273h-80v-256q0 -115 -91 -115q-37 0 -85 11zM919 763v-838h-838v838h838z" unicode="j"/>
<glyph glyph-name="k" d="M694 145l-193 221l184 201h-91l-172 -194v194h-79v-432h79v212l189 -218zM919 763v-838h-838v838h838z" unicode="k"/>
<glyph glyph-name="l" d="M646 135l-10 65h-169v367h-80v-432h259zM919 763v-838h-838v838h838z" unicode="l"/>
<glyph glyph-name="m" d="M642 475l19 -340h78l-28 432l-104 -1l-107 -341l-107 342h-105l-27 -432h74l18 341l106 -342h76zM919 763v-838h-838v838h838z" unicode="m"/>
<glyph glyph-name="n" d="M677 135v432h-72v-302l-204 302h-79v-432h72v316l215 -316h68zM919 763v-838h-838v838h838z" unicode="n"/>
<glyph glyph-name="o" d="M624 351q0 -70 -33.5 -114.5t-90.5 -44.5t-91 45t-34 114q0 71 33.5 115.5t91.5 44.5q57 0 90.5 -45t33.5 -115zM705 352q0 100 -58.5 162t-146.5 62t-147 -62.5t-59 -162.5t58.5 -162t146.5 -62q89 0 147.5 62.5t58.5 162.5zM919 763v-838h-838v838h838z" unicode="o"/>
<glyph glyph-name="p" d="M594 431q0 -79 -96 -79h-50v155h50q46 0 71 -19.5t25 -56.5zM369 567v-432h79v159h52q79 0 124.5 35.5t45.5 102.5q0 65 -45 100t-121 35h-135zM919 763v-838h-838v838h838z" unicode="p"/>
<glyph glyph-name="q" d="M576 220q-31 -28 -77 -28q-57 0 -91 45t-34 115q0 71 33.5 115.5t91.5 44.5q56 0 90 -45t34 -115q0 -51 -17 -84l-54 42l-75 -15zM669 225q35 56 35 128q0 100 -58.5 161.5t-146.5 61.5q-89 0 -147.5 -62.5t-58.5 -162.5t58.5 -162t146.5 -62q76 0 133 51l76 -57l14 66z M919 763v-838h-838v838h838z" unicode="q"/>
<glyph glyph-name="r" d="M427 357v147h55q91 0 91 -72q0 -36 -23 -55.5t-66 -19.5h-57zM559 311q92 31 92 124q0 61 -43 96.5t-120 35.5h-139v-432h79v162h53l117 -167l81 16zM919 763v-838h-838v838h838z" unicode="r"/>
<glyph glyph-name="s" d="M511 574q-71 0 -113.5 -32.5t-42.5 -88.5q0 -46 30.5 -75.5t99.5 -54.5q46 -16 67.5 -32.5t21.5 -41.5q0 -27 -21 -42.5t-60 -15.5q-62 0 -134 37l-11 -68q70 -32 143 -32q71 0 113 34.5t42 94.5q0 44 -30.5 75t-102.5 58q-44 16 -64.5 31.5t-20.5 37.5q0 53 81 53 q56 0 104 -31l12 67q-56 26 -114 26zM919 763v-838h-838v838h838z" unicode="s"/>
<glyph glyph-name="t" d="M677 498l-11 68h-342v-68h134v-365h80v365h139zM919 763v-838h-838v838h838z" unicode="t"/>
<glyph glyph-name="u" d="M498 128q80 0 128 47t48 129v263h-80v-259q0 -113 -96 -113q-94 0 -94 114v258h-79v-266q0 -80 47 -126.5t126 -46.5zM919 763v-838h-838v838h838z" unicode="u"/>
<glyph glyph-name="v" d="M630 567l-123 -354l-124 360l-83 -15l159 -425h91l161 434h-81zM919 763v-838h-838v838h838z" unicode="v"/>
<glyph glyph-name="w" d="M764 567h-78l-32 -208l-20 -148l-35 148l-52 208h-86l-52 -207l-34 -143l-20 141l-33 215l-79 -15l81 -423h90l87 336l90 -336h91zM919 763v-838h-838v838h838z" unicode="w"/>
<glyph glyph-name="x" d="M546 362l139 205h-88l-96 -147l-100 153l-83 -16l136 -199l-150 -223h88l108 165l114 -170l82 15zM919 763v-838h-838v838h838z" unicode="x"/>
<glyph glyph-name="y" d="M699 566h-84l-115 -195l-117 201l-81 -14l157 -258v-166h80v168zM919 763v-838h-838v838h838z" unicode="y"/>
<glyph glyph-name="z" d="M670 135l-9 61h-234l237 317v54h-319l9 -60h217l-237 -318v-54h336zM919 763v-838h-838v838h838z" unicode="z"/>
<glyph glyph-name="uni00A0" unicode=" "/>
</font>
</defs>
</svg>
