<?xml version="1.0" encoding="UTF-8" standalone="no"?>
<!DOCTYPE svg  PUBLIC '-//W3C//DTD SVG 1.1//EN'  'http://www.w3.org/Graphics/SVG/1.1/DTD/svg11.dtd'>
<svg xmlns="http://www.w3.org/2000/svg">
<defs>
<font id="WhitneyIndexBlack-SqBd" horiz-adv-x="1000">
<font-face underline-position="-113" font-weight="400" descent="-200" panose-1="2 0 6 4 4 0 0 2 0 3" units-per-em="1000" unicode-range="U+0020-00A0" bbox="81 -75 919 763" x-height="763" underline-thickness="20" font-family="WhitneyIndexBlack" ascent="800" cap-height="763"/>
<missing-glyph/>
<glyph glyph-name=".notdef"/>
<glyph glyph-name=".null" horiz-adv-x="0"/>
<glyph glyph-name="nonmarkingreturn"/>
<glyph glyph-name="space" unicode=" "/>
<glyph glyph-name="exclam" d="M548 135v97h-99v-97h99zM555 567h-112l26 -287l60 14zM919 763v-838h-838v838h838z" unicode="!"/>
<glyph glyph-name="numbersign" d="M541 299h-102l19 106h101zM695 225l-12 75h-80l20 103h87v76h-74l14 78l-60 15l-17 -93h-102l17 89h-63l-16 -89h-106l12 -76h81l-19 -103h-88v-75h74l-14 -79l60 -14l17 93h101l-17 -90h64l16 90h105zM919 763v-838h-838v838h838z" unicode="#"/>
<glyph glyph-name="asterisk" d="M748 448l-191 -24l-34 187h-46l-34 -187l-190 24l-12 -44l166 -91l-83 -174l35 -25l140 132l141 -132l37 25l-85 174l168 91zM919 763v-838h-838v838h838z" unicode="*"/>
<glyph glyph-name="zero" d="M500 200q-40 0 -62 38.5t-22 112.5t22 113.5t62 39.5t62 -39.5t22 -113.5t-22 -112.5t-62 -38.5zM679 351q0 109 -48.5 167.5t-130.5 58.5t-131 -58.5t-49 -167.5q0 -108 49 -166.5t131 -58.5t130.5 58.5t48.5 166.5zM919 763v-838h-838v838h838z" unicode="0"/>
<glyph glyph-name="one" d="M672 135l-13 83h-96v353h-82l-123 -56l11 -78l103 43v-262h-118v-83h318zM919 763v-838h-838v838h838z" unicode="1"/>
<glyph glyph-name="two" d="M361 447q69 46 127 46q32 0 53.5 -16t21.5 -42q0 -37 -59 -87l-167 -140v-73h330l-12 77h-201l113 86q94 72 94 148q0 56 -45.5 92.5t-112.5 36.5q-86 0 -154 -48zM919 763v-838h-838v838h838z" unicode="2"/>
<glyph glyph-name="three" d="M577 359v2q88 29 88 100q0 53 -44 84t-122 31q-83 0 -147 -42l12 -76q55 39 124 39q82 0 82 -49q0 -24 -28 -39.5t-79 -15.5h-51l12 -72h35q118 0 118 -57q0 -28 -24 -44t-68 -16q-66 0 -127 33l-13 -75q62 -36 149 -36q81 0 130 34.5t49 96.5q0 79 -96 102zM919 763 v-838h-838v838h838z" unicode="3"/>
<glyph glyph-name="four" d="M517 293h-75l-67 -3l49 68l45 61l53 82l-5 -92v-116zM675 227v66h-69v274h-112l-202 -277v-63h225v-92h89v92h69zM919 763v-838h-838v838h838z" unicode="4"/>
<glyph glyph-name="five" d="M483 126q86 0 139 41.5t53 113.5q0 63 -43 96.5t-121 33.5q-24 0 -62 -8l7 85h194l-13 79h-257l-15 -233l59 -13q30 14 69 14q84 0 84 -63q0 -31 -26.5 -48.5t-68.5 -17.5q-65 0 -123 32l-13 -81q64 -31 137 -31zM919 763v-838h-838v838h838z" unicode="5"/>
<glyph glyph-name="six" d="M403 300v2q18 15 45 25.5t49 10.5q37 0 56.5 -17.5t19.5 -49.5q0 -34 -22.5 -53.5t-58.5 -19.5q-38 0 -63.5 26t-25.5 76zM405 366l-2 2q36 106 181 134l-13 75q-117 -20 -190 -89.5t-73 -179.5q0 -86 52 -133.5t131 -47.5q74 0 125.5 41.5t51.5 107.5q0 63 -39.5 98.5 t-101.5 35.5q-61 0 -122 -44zM919 763v-838h-838v838h838z" unicode="6"/>
<glyph glyph-name="seven" d="M668 490v77h-326l12 -82h214l-174 -342l93 -18zM919 763v-838h-838v838h838z" unicode="7"/>
<glyph glyph-name="eight" d="M469 336q59 -20 82 -38t23 -46q0 -26 -22.5 -43t-54.5 -17q-34 0 -57 20t-23 50q0 40 51 74h1zM497 511q30 0 48.5 -15t18.5 -40q0 -39 -42 -69h-1q-49 16 -69 32.5t-20 39.5q0 22 18 37t47 15zM667 253q0 73 -84 112q71 44 71 99q0 51 -42 81.5t-114 30.5 q-70 0 -112.5 -32.5t-42.5 -87.5q0 -62 66 -97q-85 -46 -85 -110q0 -54 45 -88.5t128 -34.5q75 0 122.5 36t47.5 91zM919 763v-838h-838v838h838z" unicode="8"/>
<glyph glyph-name="nine" d="M596 394v-3q-42 -34 -93 -34q-77 0 -77 69q0 34 23 55.5t58 21.5q37 0 63 -28t26 -81zM592 327l2 -1q-18 -48 -67 -84t-118 -50l12 -75q120 21 195.5 92.5t75.5 182.5q0 84 -53.5 134t-130.5 50q-75 0 -126 -43.5t-51 -113.5q0 -64 40 -98.5t103 -34.5q62 0 118 41z M919 763v-838h-838v838h838z" unicode="9"/>
<glyph glyph-name="question" d="M531 135v97h-96v-97h96zM656 452q0 59 -39.5 91.5t-109.5 32.5q-85 0 -146 -48l13 -82q61 47 123 47q60 0 60 -44q0 -23 -18.5 -36.5t-70.5 -33.5l-24 -9l7 -90l63 12l2 26q68 19 104 49.5t36 84.5zM919 763v-838h-838v838h838z" unicode="?"/>
<glyph glyph-name="A" d="M556 312h-115l57 171zM417 233h162l37 -104l100 18l-156 422h-115l-159 -434h97zM919 763v-838h-838v838h838z" unicode="A"/>
<glyph glyph-name="B" d="M576 266q0 -57 -79 -57h-54v117h52q81 0 81 -60zM562 443q0 -53 -71 -53h-48v104h52q67 0 67 -51zM674 262q0 78 -81 102q62 26 62 93q0 53 -39 81.5t-112 28.5h-155v-432h150q175 0 175 127zM919 763v-838h-838v838h838z" unicode="B"/>
<glyph glyph-name="C" d="M656 163l-11 79q-59 -34 -105 -34q-56 0 -89 38.5t-33 104.5q0 67 31.5 105.5t86.5 38.5q49 0 100 -36l13 85q-51 32 -121 32q-94 0 -153 -62.5t-59 -163.5q0 -100 58.5 -161.5t154.5 -61.5q71 0 127 36zM919 763v-838h-838v838h838z" unicode="C"/>
<glyph glyph-name="D" d="M608 351q0 -65 -35.5 -100.5t-99.5 -35.5h-46v273h48q62 0 97.5 -36t35.5 -101zM710 352q0 98 -62 156.5t-176 58.5h-143v-432h145q111 0 173.5 60.5t62.5 156.5zM919 763v-838h-838v838h838z" unicode="D"/>
<glyph glyph-name="E" d="M639 135v79h-179v106h144l-12 78h-132v91h173v78h-270v-432h276zM919 763v-838h-838v838h838z" unicode="E"/>
<glyph glyph-name="F" d="M646 488v79h-270v-432h97v166h146l-13 78h-133v109h173zM919 763v-838h-838v838h838z" unicode="F"/>
<glyph glyph-name="G" d="M515 496q60 0 121 -41l13 86q-58 35 -136 35q-100 0 -159.5 -61.5t-59.5 -164.5q0 -101 57.5 -162t159.5 -61q94 0 162 45v208h-183l11 -75h83v-85q-30 -16 -66 -16q-60 0 -91.5 39t-31.5 108q0 68 31.5 106.5t88.5 38.5zM919 763v-838h-838v838h838z" unicode="G"/>
<glyph glyph-name="H" d="M687 135v432h-99v-165h-171v165h-98v-432h98v183h171v-183h99zM919 763v-838h-838v838h838z" unicode="H"/>
<glyph glyph-name="I" d="M621 135l-10 58h-64v316h73v59h-241l10 -59h60v-316h-69v-58h241zM919 763v-838h-838v838h838z" unicode="I"/>
<glyph glyph-name="J" d="M360 144q43 -12 98 -12q79 0 122.5 45t43.5 131v260h-100v-237q0 -59 -19 -88.5t-66 -29.5q-42 0 -98 14zM919 763v-838h-838v838h838z" unicode="J"/>
<glyph glyph-name="K" d="M706 148l-179 218l170 201h-109l-156 -193v193h-99v-432h99v206l172 -212zM919 763v-838h-838v838h838z" unicode="K"/>
<glyph glyph-name="L" d="M646 135l-11 80h-155v352h-99v-432h265zM919 763v-838h-838v838h838z" unicode="L"/>
<glyph glyph-name="M" d="M640 462l13 -327h97l-23 432l-133 -1l-94 -324l-95 325h-133l-23 -432h91l12 329l96 -330h96zM919 763v-838h-838v838h838z" unicode="M"/>
<glyph glyph-name="N" d="M684 135v432h-89v-274l-186 274h-94v-432h89v289l195 -289h85zM919 763v-838h-838v838h838z" unicode="N"/>
<glyph glyph-name="O" d="M610 351q0 -63 -29.5 -104t-80.5 -41q-50 0 -80.5 41.5t-30.5 103.5q0 64 29.5 105t81.5 41q50 0 80 -41.5t30 -104.5zM711 352q0 101 -60.5 162.5t-150.5 61.5q-89 0 -150 -62t-61 -163t60.5 -162.5t149.5 -61.5q90 0 151 62t61 163zM919 763v-838h-838v838h838z" unicode="O"/>
<glyph glyph-name="P" d="M581 429q0 -69 -83 -69h-41v135h42q82 0 82 -66zM359 567v-432h98v155h46q80 0 125.5 35.5t45.5 104.5q0 65 -44.5 101t-120.5 36h-150zM919 763v-838h-838v838h838z" unicode="P"/>
<glyph glyph-name="Q" d="M569 231q-26 -25 -70 -25q-51 0 -81 41.5t-30 103.5q0 64 29.5 105t81.5 41q50 0 80 -42t30 -104q0 -35 -9 -60l-37 28l-87 -18zM680 237q30 56 30 115q0 101 -61 162.5t-150 61.5t-150 -62t-61 -163t60.5 -162.5t149.5 -61.5q80 0 139 53l76 -57l16 79zM919 763v-838 h-838v838h838z" unicode="Q"/>
<glyph glyph-name="R" d="M435 360v130h43q79 0 79 -63q0 -32 -20.5 -49.5t-58.5 -17.5h-43zM571 307q84 36 84 123q0 63 -45.5 100t-125.5 37h-146v-432h98v152h39l108 -157l100 19zM919 763v-838h-838v838h838z" unicode="R"/>
<glyph glyph-name="S" d="M514 574q-76 0 -120.5 -33t-44.5 -91q0 -47 31 -76t103 -57q42 -16 61.5 -30t19.5 -35q0 -47 -69 -47q-64 0 -136 37l-14 -82q69 -31 147 -31q72 0 116.5 35t44.5 98q0 42 -30 74t-106 61q-42 16 -60.5 29.5t-18.5 31.5q0 40 73 40q55 0 105 -32l14 80q-60 28 -116 28z M919 763v-838h-838v838h838z" unicode="S"/>
<glyph glyph-name="T" d="M681 484l-14 83h-346v-83h127v-349h99v349h134zM919 763v-838h-838v838h838z" unicode="T"/>
<glyph glyph-name="U" d="M499 128q83 0 134 48.5t51 133.5v257h-100v-253q0 -105 -85 -105q-82 0 -82 106v252h-99v-261q0 -83 49.5 -130.5t131.5 -47.5zM919 763v-838h-838v838h838z" unicode="U"/>
<glyph glyph-name="V" d="M612 567l-108 -324l-111 331l-103 -19l157 -422h105l161 434h-101zM919 763v-838h-838v838h838z" unicode="V"/>
<glyph glyph-name="W" d="M773 567h-97l-27 -207l-13 -142l-30 142l-49 207h-108l-52 -208l-28 -132l-13 132l-27 214l-98 -18l77 -420h111l79 314l83 -314h113zM919 763v-838h-838v838h838z" unicode="W"/>
<glyph glyph-name="X" d="M558 363l133 204h-107l-82 -133l-86 140l-102 -19l129 -198l-143 -222h107l93 152l100 -158l101 18zM919 763v-838h-838v838h838z" unicode="X"/>
<glyph glyph-name="Y" d="M705 567h-104l-101 -182l-104 189l-100 -17l152 -260v-162h99v165zM919 763v-838h-838v838h838z" unicode="Y"/>
<glyph glyph-name="Z" d="M674 135l-11 75h-218l223 291v66h-327l11 -74h201l-223 -291v-67h344zM919 763v-838h-838v838h838z" unicode="Z"/>
<glyph glyph-name="a" d="M556 312h-115l57 171zM417 233h162l37 -104l100 18l-156 422h-115l-159 -434h97zM919 763v-838h-838v838h838z" unicode="a"/>
<glyph glyph-name="b" d="M576 266q0 -57 -79 -57h-54v117h52q81 0 81 -60zM562 443q0 -53 -71 -53h-48v104h52q67 0 67 -51zM674 262q0 78 -81 102q62 26 62 93q0 53 -39 81.5t-112 28.5h-155v-432h150q175 0 175 127zM919 763v-838h-838v838h838z" unicode="b"/>
<glyph glyph-name="c" d="M656 163l-11 79q-59 -34 -105 -34q-56 0 -89 38.5t-33 104.5q0 67 31.5 105.5t86.5 38.5q49 0 100 -36l13 85q-51 32 -121 32q-94 0 -153 -62.5t-59 -163.5q0 -100 58.5 -161.5t154.5 -61.5q71 0 127 36zM919 763v-838h-838v838h838z" unicode="c"/>
<glyph glyph-name="d" d="M608 351q0 -65 -35.5 -100.5t-99.5 -35.5h-46v273h48q62 0 97.5 -36t35.5 -101zM710 352q0 98 -62 156.5t-176 58.5h-143v-432h145q111 0 173.5 60.5t62.5 156.5zM919 763v-838h-838v838h838z" unicode="d"/>
<glyph glyph-name="e" d="M639 135v79h-179v106h144l-12 78h-132v91h173v78h-270v-432h276zM919 763v-838h-838v838h838z" unicode="e"/>
<glyph glyph-name="f" d="M646 488v79h-270v-432h97v166h146l-13 78h-133v109h173zM919 763v-838h-838v838h838z" unicode="f"/>
<glyph glyph-name="g" d="M515 496q60 0 121 -41l13 86q-58 35 -136 35q-100 0 -159.5 -61.5t-59.5 -164.5q0 -101 57.5 -162t159.5 -61q94 0 162 45v208h-183l11 -75h83v-85q-30 -16 -66 -16q-60 0 -91.5 39t-31.5 108q0 68 31.5 106.5t88.5 38.5zM919 763v-838h-838v838h838z" unicode="g"/>
<glyph glyph-name="h" d="M687 135v432h-99v-165h-171v165h-98v-432h98v183h171v-183h99zM919 763v-838h-838v838h838z" unicode="h"/>
<glyph glyph-name="i" d="M621 135l-10 58h-64v316h73v59h-241l10 -59h60v-316h-69v-58h241zM919 763v-838h-838v838h838z" unicode="i"/>
<glyph glyph-name="j" d="M360 144q43 -12 98 -12q79 0 122.5 45t43.5 131v260h-100v-237q0 -59 -19 -88.5t-66 -29.5q-42 0 -98 14zM919 763v-838h-838v838h838z" unicode="j"/>
<glyph glyph-name="k" d="M706 148l-179 218l170 201h-109l-156 -193v193h-99v-432h99v206l172 -212zM919 763v-838h-838v838h838z" unicode="k"/>
<glyph glyph-name="l" d="M646 135l-11 80h-155v352h-99v-432h265zM919 763v-838h-838v838h838z" unicode="l"/>
<glyph glyph-name="m" d="M640 462l13 -327h97l-23 432l-133 -1l-94 -324l-95 325h-133l-23 -432h91l12 329l96 -330h96zM919 763v-838h-838v838h838z" unicode="m"/>
<glyph glyph-name="n" d="M684 135v432h-89v-274l-186 274h-94v-432h89v289l195 -289h85zM919 763v-838h-838v838h838z" unicode="n"/>
<glyph glyph-name="o" d="M610 351q0 -63 -29.5 -104t-80.5 -41q-50 0 -80.5 41.5t-30.5 103.5q0 64 29.5 105t81.5 41q50 0 80 -41.5t30 -104.5zM711 352q0 101 -60.5 162.5t-150.5 61.5q-89 0 -150 -62t-61 -163t60.5 -162.5t149.5 -61.5q90 0 151 62t61 163zM919 763v-838h-838v838h838z" unicode="o"/>
<glyph glyph-name="p" d="M581 429q0 -69 -83 -69h-41v135h42q82 0 82 -66zM359 567v-432h98v155h46q80 0 125.5 35.5t45.5 104.5q0 65 -44.5 101t-120.5 36h-150zM919 763v-838h-838v838h838z" unicode="p"/>
<glyph glyph-name="q" d="M569 231q-26 -25 -70 -25q-51 0 -81 41.5t-30 103.5q0 64 29.5 105t81.5 41q50 0 80 -42t30 -104q0 -35 -9 -60l-37 28l-87 -18zM680 237q30 56 30 115q0 101 -61 162.5t-150 61.5t-150 -62t-61 -163t60.5 -162.5t149.5 -61.5q80 0 139 53l76 -57l16 79zM919 763v-838 h-838v838h838z" unicode="q"/>
<glyph glyph-name="r" d="M435 360v130h43q79 0 79 -63q0 -32 -20.5 -49.5t-58.5 -17.5h-43zM571 307q84 36 84 123q0 63 -45.5 100t-125.5 37h-146v-432h98v152h39l108 -157l100 19zM919 763v-838h-838v838h838z" unicode="r"/>
<glyph glyph-name="s" d="M514 574q-76 0 -120.5 -33t-44.5 -91q0 -47 31 -76t103 -57q42 -16 61.5 -30t19.5 -35q0 -47 -69 -47q-64 0 -136 37l-14 -82q69 -31 147 -31q72 0 116.5 35t44.5 98q0 42 -30 74t-106 61q-42 16 -60.5 29.5t-18.5 31.5q0 40 73 40q55 0 105 -32l14 80q-60 28 -116 28z M919 763v-838h-838v838h838z" unicode="s"/>
<glyph glyph-name="t" d="M681 484l-14 83h-346v-83h127v-349h99v349h134zM919 763v-838h-838v838h838z" unicode="t"/>
<glyph glyph-name="u" d="M499 128q83 0 134 48.5t51 133.5v257h-100v-253q0 -105 -85 -105q-82 0 -82 106v252h-99v-261q0 -83 49.5 -130.5t131.5 -47.5zM919 763v-838h-838v838h838z" unicode="u"/>
<glyph glyph-name="v" d="M612 567l-108 -324l-111 331l-103 -19l157 -422h105l161 434h-101zM919 763v-838h-838v838h838z" unicode="v"/>
<glyph glyph-name="w" d="M773 567h-97l-27 -207l-13 -142l-30 142l-49 207h-108l-52 -208l-28 -132l-13 132l-27 214l-98 -18l77 -420h111l79 314l83 -314h113zM919 763v-838h-838v838h838z" unicode="w"/>
<glyph glyph-name="x" d="M558 363l133 204h-107l-82 -133l-86 140l-102 -19l129 -198l-143 -222h107l93 152l100 -158l101 18zM919 763v-838h-838v838h838z" unicode="x"/>
<glyph glyph-name="y" d="M705 567h-104l-101 -182l-104 189l-100 -17l152 -260v-162h99v165zM919 763v-838h-838v838h838z" unicode="y"/>
<glyph glyph-name="z" d="M674 135l-11 75h-218l223 291v66h-327l11 -74h201l-223 -291v-67h344zM919 763v-838h-838v838h838z" unicode="z"/>
<glyph glyph-name="uni00A0" unicode=" "/>
</font>
</defs>
</svg>
