<?xml version="1.0" encoding="UTF-8" standalone="no"?>
<!DOCTYPE svg  PUBLIC '-//W3C//DTD SVG 1.1//EN'  'http://www.w3.org/Graphics/SVG/1.1/DTD/svg11.dtd'>
<svg xmlns="http://www.w3.org/2000/svg">
<defs>
<font id="Whitney-BoldItalic" horiz-adv-x="520">
<font-face slope="-9" underline-position="-50" font-weight="400" descent="-200" panose-1="0 0 0 0 0 0 0 0 0 0" units-per-em="1000" unicode-range="U+0020-2212" bbox="-140 -195 1025 907" x-height="490" underline-thickness="50" font-family="Whitney" ascent="800" font-style="italic" cap-height="690"/>
<missing-glyph horiz-adv-x="1000"/>
<glyph glyph-name=".notdef" horiz-adv-x="1000"/>
<glyph glyph-name=".null" horiz-adv-x="0"/>
<glyph glyph-name="nonmarkingreturn" horiz-adv-x="333"/>
<glyph glyph-name="space" horiz-adv-x="199" unicode=" "/>
<glyph glyph-name="exclam" horiz-adv-x="293" unicode="!" d="M215 170l-27 -170h-162l28 170h161zM310 690l-115 -434l-94 -22l24 456h185z"/>
<glyph glyph-name="quotedbl" horiz-adv-x="480" unicode='&quot;' d="M278 676l-84 -281l-85 21l3 260h166zM504 676l-84 -281l-85 21l3 260h166z"/>
<glyph glyph-name="numbersign" horiz-adv-x="627" unicode="#" d="M267 412l-24 -148h137l24 148h-137zM531 664l-21 -129h95v-127h-115l-22 -140h100l20 -127h-140l-23 -143h-89l23 143h-134l-23 -150l-86 21l20 129h-94v127h114l23 140h-100l-20 127h140l23 143h89l-23 -143h133l24 150z"/>
<glyph glyph-name="dollar" horiz-adv-x="523" unicode="$" d="M216 499q0 -20 12.5 -34.5t46.5 -31.5l40 132q-5 1 -16 1q-39 0 -61 -18.5t-22 -48.5zM356 192q0 24 -14.5 40.5t-54.5 35.5l-48 -157h17q46 0 73 22.5t27 58.5zM437 737l-22 -69q64 -16 117 -51l-41 -120q-51 38 -117 58l-44 -145q86 -38 123 -81t37 -109 q0 -108 -66.5 -166.5t-171.5 -58.5q-15 0 -43 2l-35 -119l-69 17l35 113q-77 19 -144 61l41 119q76 -51 144 -68l52 172q-81 37 -116 76.5t-35 102.5q0 97 63 153.5t168 56.5q6 0 16 -0.5t15 -0.5l23 75z"/>
<glyph glyph-name="percent" horiz-adv-x="828" unicode="%" d="M697 241q0 73 -43 73q-32 0 -52.5 -50.5t-20.5 -111.5q0 -72 43 -72q32 0 52.5 50t20.5 111zM794 236q0 -99 -49.5 -171.5t-124.5 -72.5q-66 0 -101 44t-35 121q0 99 49.5 171.5t124.5 72.5q66 0 101 -44.5t35 -120.5zM234 596q-32 0 -52.5 -50t-20.5 -111q0 -73 42 -73 q32 0 52.5 50.5t20.5 111.5q0 72 -42 72zM722 661l-257 -340l-244 -328l-85 22l268 354l233 314zM373 519q0 -99 -49.5 -171.5t-123.5 -72.5q-66 0 -101 44t-35 121q0 99 49.5 171.5t123.5 72.5q66 0 101 -44.5t35 -120.5z"/>
<glyph glyph-name="ampersand" horiz-adv-x="639" unicode="&amp;" d="M249 104q49 0 97 42l-102 154q-76 -49 -76 -117q0 -35 20.5 -57t60.5 -22zM207 -13q-91 0 -142 47t-51 122q0 155 175 230q-38 67 -38 128q0 83 54.5 136t149.5 53q100 0 186 -44l-41 -130q-79 42 -135 42q-29 0 -46 -15t-17 -40q0 -30 30 -75l105 -161q26 56 45 133 l119 -30q-36 -120 -95 -208l104 -158l-163 -23l-44 67q-93 -74 -196 -74z"/>
<glyph glyph-name="quotesingle" horiz-adv-x="257" unicode="&apos;" d="M281 676l-85 -281l-87 21l3 260h169z"/>
<glyph glyph-name="parenleft" horiz-adv-x="381" unicode="(" d="M399 623q-99 -81 -146.5 -171t-47.5 -212q0 -149 112 -306l-115 -28q-160 157 -159 350q2 160 96.5 280.5t259.5 189.5v-103z"/>
<glyph glyph-name="parenright" horiz-adv-x="381" unicode=")" d="M3 4q99 82 146 172t47 212q0 149 -111 305l114 28q159 -155 159 -347q0 -161 -94.5 -282t-260.5 -191v103z"/>
<glyph glyph-name="asterisk" horiz-adv-x="438" unicode="*" d="M451 546l-106 -69l47 -119l-31 -20l-98 80l-98 -80l-30 20l47 119l-107 69l12 35l127 -7l30 122h39l30 -122l127 7z"/>
<glyph glyph-name="plus" horiz-adv-x="572" unicode="+" d="M523 279h-170l-28 -177h-123l28 177h-171l19 118h171l27 177h123l-27 -177h170z"/>
<glyph glyph-name="comma" horiz-adv-x="257" unicode="," d="M223 172l-175 -320l-87 21l92 299h170z"/>
<glyph glyph-name="hyphen" horiz-adv-x="330" unicode="-" d="M308 363l-23 -144h-251l23 144h251z"/>
<glyph glyph-name="period" horiz-adv-x="257" unicode="." d="M198 172l-27 -172h-162l27 172h162z"/>
<glyph glyph-name="slash" horiz-adv-x="530" unicode="/" d="M590 669l-553 -796l-126 30l553 796z"/>
<glyph glyph-name="zero" horiz-adv-x="598" unicode="0" d="M281 109q30 0 55 25q34 33 59 130t25 183q0 120 -73 120q-29 0 -54 -25q-34 -34 -59 -130.5t-25 -183.5q0 -119 72 -119zM275 -14q-109 0 -167 69.5t-58 196.5q0 117 32 211.5t88 150.5q76 76 184 76t166 -69.5t58 -196.5q0 -117 -31.5 -211.5t-87.5 -150.5 q-76 -76 -184 -76z"/>
<glyph glyph-name="one" horiz-adv-x="387" unicode="1" d="M384 677l-107 -677h-160l82 522l-132 -53v128l174 80h143z"/>
<glyph glyph-name="two" horiz-adv-x="539" unicode="2" d="M527 512q0 -74 -36.5 -125.5t-123.5 -122.5l-158 -135h251v-129h-461l20 124l258 230q49 43 69 70.5t20 59.5t-21.5 50t-61.5 18q-73 0 -173 -68v137q99 68 213 68q93 0 148.5 -47.5t55.5 -129.5z"/>
<glyph glyph-name="three" horiz-adv-x="522" unicode="3" d="M515 525q0 -70 -37 -110.5t-105 -64.5q103 -43 103 -148q0 -102 -69.5 -158.5t-184.5 -56.5q-118 0 -224 57l38 124q95 -49 172 -49q50 0 81.5 24t31.5 68q0 81 -118 81h-47v116h67q62 0 97 23t35 64q0 63 -82 63q-78 0 -175 -55v131q107 55 211 55q97 0 151.5 -42.5 t54.5 -121.5z"/>
<glyph glyph-name="four" horiz-adv-x="591" unicode="4" d="M331 246l45 276l-213 -276h168zM577 246l-18 -111h-96l-21 -135h-150l22 135h-305l16 102l342 439h182l-68 -430h96z"/>
<glyph glyph-name="five" horiz-adv-x="529" unicode="5" d="M527 544h-273l-27 -115q131 -15 195 -64.5t64 -141.5q0 -113 -71.5 -174.5t-188.5 -61.5q-110 0 -224 49l41 132q95 -45 183 -45q52 0 79.5 23.5t27.5 63.5q0 49 -58 75t-201 37l79 354h374v-132z"/>
<glyph glyph-name="six" horiz-adv-x="548" unicode="6" d="M294 318q-53 0 -112 -41q-2 -30 -2 -43q0 -60 23 -94t66 -34q45 0 74.5 33.5t29.5 90.5q0 88 -79 88zM480 559q-225 -42 -276 -177q78 48 160 48q75 0 117.5 -48t42.5 -134q0 -114 -73.5 -187t-190.5 -73q-105 0 -165 66t-60 183q0 184 120.5 303t324.5 151v-132z"/>
<glyph glyph-name="seven" horiz-adv-x="533" unicode="7" d="M563 676l-20 -129l-335 -554l-152 28l317 516h-278v139h468z"/>
<glyph glyph-name="eight" horiz-adv-x="566" unicode="8" d="M241 508q0 -30 22 -53t71 -47q76 43 76 107q0 32 -21 49.5t-60 17.5q-40 0 -64 -21.5t-24 -52.5zM175 181q0 -38 26 -61t68 -23q47 0 75.5 26.5t28.5 67.5q0 33 -22.5 59.5t-86.5 55.5q-89 -49 -89 -125zM25 168q0 125 144 189q-72 56 -72 136q0 86 63.5 141t174.5 55 q99 0 158.5 -44.5t59.5 -116.5q0 -110 -123 -169q94 -61 94 -160q0 -92 -70 -152t-186 -60q-118 0 -180.5 51t-62.5 130z"/>
<glyph glyph-name="nine" horiz-adv-x="548" unicode="9" d="M284 354q54 0 110 36q4 25 4 53q0 59 -23.5 93t-66.5 34q-45 0 -74 -34.5t-29 -93.5q0 -88 79 -88zM90 118q223 37 280 167q-75 -41 -147 -41q-80 0 -124.5 48.5t-44.5 134.5q0 115 74 188.5t190 73.5q104 0 164.5 -66.5t60.5 -182.5q0 -187 -124 -306t-329 -148v132z "/>
<glyph glyph-name="colon" horiz-adv-x="265" unicode=":" d="M202 170l-28 -170h-160l27 170h161zM252 490l-26 -170h-161l26 170h161z"/>
<glyph glyph-name="semicolon" horiz-adv-x="265" unicode=";" d="M219 170l-175 -318l-87 21l91 297h171zM255 490l-27 -170h-160l26 170h161z"/>
<glyph glyph-name="less" horiz-adv-x="572" unicode="&lt;" d="M475 63l-412 222l17 106l482 222l-22 -135l-320 -144l275 -144z"/>
<glyph glyph-name="equal" horiz-adv-x="590" unicode="=" d="M504 158h-445l19 119h445zM542 399h-445l20 120h445z"/>
<glyph glyph-name="greater" horiz-adv-x="572" unicode="&gt;" d="M126 613l412 -222l-17 -106l-482 -222l22 135l320 144l-275 144z"/>
<glyph glyph-name="question" horiz-adv-x="483" unicode="?" d="M268 291l-9 -39l-104 -24l18 165l17 7q99 41 118 54q28 21 28 49q0 56 -74 56q-78 0 -184 -69v145q108 68 232 68q94 0 142.5 -47.5t48.5 -127.5q0 -89 -57 -145t-176 -92zM262 170l-28 -170h-161l27 170h162z"/>
<glyph glyph-name="at" horiz-adv-x="832" unicode="@" d="M365 145q31 0 91 68l29 153q-16 6 -37 6q-48 0 -83.5 -52.5t-35.5 -120.5q0 -54 36 -54zM596 43q-51 0 -88 23t-51 63q-76 -86 -145 -86q-49 0 -78.5 34.5t-29.5 96.5q0 124 74 209.5t176 85.5q84 0 166 -35l-41 -220q-6 -28 -6 -55q0 -54 61 -54q52 0 84 55.5t32 150.5 q0 145 -79.5 219.5t-213.5 74.5q-153 0 -264.5 -120.5t-111.5 -293.5q0 -152 79.5 -224t216.5 -72q118 0 214 48l6 -36q-96 -47 -224 -47q-159 0 -247.5 84t-88.5 246q0 119 57 223t155 166t212 62q152 0 242.5 -87t90.5 -242q0 -122 -52.5 -195.5t-145.5 -73.5z"/>
<glyph glyph-name="A" horiz-adv-x="663" unicode="A" d="M372 514l-109 -238h142zM444 -7l-22 150h-217l-65 -143h-166l347 693h173l121 -670z"/>
<glyph glyph-name="B" horiz-adv-x="578" unicode="B" d="M380 218q0 84 -108 84h-40l-30 -185h53q56 0 90.5 26.5t34.5 74.5zM406 502q0 70 -87 70h-45l-25 -161h46q48 0 79.5 24t31.5 67zM563 529q0 -116 -120 -165q99 -44 99 -144q0 -105 -77 -162.5t-209 -57.5h-234l109 690h211q107 0 164 -42.5t57 -118.5z"/>
<glyph glyph-name="C" horiz-adv-x="573" unicode="C" d="M592 647l-45 -144q-66 55 -135 55q-86 0 -140.5 -77t-54.5 -182q0 -84 38 -127t104 -43q70 0 146 43v-143q-75 -40 -176 -40q-130 0 -207 75.5t-77 217.5q0 185 104.5 302.5t258.5 117.5q104 0 184 -55z"/>
<glyph glyph-name="D" horiz-adv-x="665" unicode="D" d="M475 392q0 168 -165 168h-31l-69 -430h25q103 0 168 65q72 74 72 197zM646 401q0 -177 -108 -285q-117 -116 -332 -116h-184l109 690h180q164 0 249.5 -73t85.5 -216z"/>
<glyph glyph-name="E" horiz-adv-x="512" unicode="E" d="M541 690l-21 -138h-243l-20 -127h182v-137h-204l-24 -150h251l-22 -138h-418l109 690h410z"/>
<glyph glyph-name="F" horiz-adv-x="491" unicode="F" d="M532 690l-22 -143h-233l-23 -142h174v-142h-196l-41 -263h-169l109 690h401z"/>
<glyph glyph-name="G" horiz-adv-x="652" unicode="G" d="M627 396l-57 -344q-108 -65 -238 -65q-132 0 -209.5 78t-77.5 213q0 183 107.5 304t269.5 121q114 0 210 -51l-45 -144q-78 54 -161 54q-93 0 -150.5 -78.5t-57.5 -197.5q0 -82 36.5 -123t98.5 -41q46 0 87 18l19 130h-107v126h275z"/>
<glyph glyph-name="H" horiz-adv-x="675" unicode="H" d="M684 690l-109 -690h-170l45 280h-214l-44 -280h-170l109 690h170l-42 -261h215l40 261h170z"/>
<glyph glyph-name="I" horiz-adv-x="298" unicode="I" d="M304 690l-109 -690h-170l109 690h170z"/>
<glyph glyph-name="J" horiz-adv-x="421" unicode="J" d="M434 690l-75 -477q-19 -118 -81.5 -168.5t-173.5 -50.5q-57 0 -103 8v145q42 -10 84 -10q45 0 72.5 23t36.5 82l71 448h169z"/>
<glyph glyph-name="K" horiz-adv-x="619" unicode="K" d="M677 690l-272 -333l175 -335l-177 -29l-162 327l-49 -320h-170l109 690h170l-48 -295l229 295h195z"/>
<glyph glyph-name="L" horiz-adv-x="478" unicode="L" d="M422 0h-400l109 690h170l-86 -543h207v-147z"/>
<glyph glyph-name="M" horiz-adv-x="866" unicode="M" d="M841 690l-59 -690h-172l42 453l-195 -456h-154l-49 456l-102 -453h-146l160 690h215l52 -465l200 465h208z"/>
<glyph glyph-name="N" horiz-adv-x="667" unicode="N" d="M676 690l-109 -690h-135l-188 417l-67 -417h-155l109 690h160l170 -381l60 381h155z"/>
<glyph glyph-name="O" horiz-adv-x="690" unicode="O" d="M330 116q47 0 86 39q35 35 58 106t23 155q0 158 -109 158q-48 0 -87 -39q-34 -33 -57 -105t-23 -156q0 -158 109 -158zM327 -13q-131 0 -205 80t-74 223q0 96 31 181t89 142q88 90 222 90q131 0 205 -80t74 -223q0 -96 -31 -181t-88 -142q-90 -90 -223 -90z"/>
<glyph glyph-name="P" horiz-adv-x="565" unicode="P" d="M411 478q0 88 -103 88h-30l-32 -210h32q63 0 98 32t35 90zM576 484q0 -115 -81.5 -184t-223.5 -69h-44l-36 -231h-169l109 690h192q253 0 253 -206z"/>
<glyph glyph-name="Q" horiz-adv-x="697" unicode="Q" d="M330 116q47 0 86 39q35 35 58 106t23 155q0 158 -109 158q-48 0 -87 -39q-34 -33 -57 -105t-23 -156q0 -158 109 -158zM648 1l-49 -144l-304 119q-135 53 -191 118t-56 189q0 210 120 330q90 90 223 90q131 0 204.5 -79t73.5 -216q0 -243 -173 -357z"/>
<glyph glyph-name="R" horiz-adv-x="594" unicode="R" d="M417 481q0 85 -103 85h-38l-31 -206h36q65 0 100.5 31.5t35.5 89.5zM581 495q0 -81 -39.5 -135.5t-108.5 -80.5l115 -257l-176 -29l-104 248h-41l-38 -241h-167l109 690h198q121 0 186.5 -49t65.5 -146z"/>
<glyph glyph-name="S" horiz-adv-x="536" unicode="S" d="M536 642l-46 -135q-99 65 -170 65q-36 0 -54.5 -17.5t-18.5 -44.5q0 -23 15.5 -39.5t59.5 -40.5q100 -54 138.5 -101t38.5 -110q0 -109 -69.5 -169.5t-181.5 -60.5q-128 0 -247 68l47 135q111 -74 200 -74q39 0 63.5 20.5t24.5 52.5q0 25 -14 41t-54 38 q-107 57 -145.5 101.5t-38.5 114.5q0 93 65 154t174 61q114 0 213 -59z"/>
<glyph glyph-name="T" horiz-adv-x="585" unicode="T" d="M620 548h-195l-86 -548h-170l87 548h-190l23 142h531v-142z"/>
<glyph glyph-name="U" horiz-adv-x="659" unicode="U" d="M675 690l-67 -422q-23 -147 -99.5 -214t-204.5 -67q-121 0 -185.5 56t-64.5 166q0 35 8 91l62 390h169l-63 -400q-7 -47 -7 -73q0 -43 23.5 -67.5t68.5 -24.5q101 0 123 138l67 427h170z"/>
<glyph glyph-name="V" horiz-adv-x="648" unicode="V" d="M708 690l-347 -693h-159l-121 670l178 30l66 -480l215 473h168z"/>
<glyph glyph-name="W" horiz-adv-x="971" unicode="W" d="M1025 690l-297 -690h-160l-57 434l-197 -434h-154l-76 667l188 30l27 -432l187 425h165l51 -425l161 425h162z"/>
<glyph glyph-name="X" horiz-adv-x="621" unicode="X" d="M666 690l-240 -329l154 -339l-178 -29l-94 234l-155 -227h-185l265 361l-138 307l177 29l78 -201l131 194h185z"/>
<glyph glyph-name="Y" horiz-adv-x="631" unicode="Y" d="M703 690l-305 -437l-41 -253h-170l40 250l-160 419l177 28l97 -282l178 275h184z"/>
<glyph glyph-name="Z" horiz-adv-x="576" unicode="Z" d="M609 690l-19 -123l-366 -432h287v-135h-517l20 123l365 432h-262v135h492z"/>
<glyph glyph-name="bracketleft" horiz-adv-x="406" unicode="[" d="M445 690l-14 -93h-162l-96 -608h153v-93h-312l126 794h305z"/>
<glyph glyph-name="backslash" horiz-adv-x="509" unicode="\" d="M516 -98l-123 -29l-343 797l123 29z"/>
<glyph glyph-name="bracketright" horiz-adv-x="406" unicode="]" d="M406 690l-125 -794h-306l15 93h161l96 608h-153v93h312z"/>
<glyph glyph-name="asciicircum" horiz-adv-x="423" unicode="^" d="M421 547h-92l-58 58l-79 -58h-89l117 147h127z"/>
<glyph glyph-name="underscore" horiz-adv-x="423" unicode="_" d="M379 -34l-11 -70h-424l11 70h424z"/>
<glyph glyph-name="grave" horiz-adv-x="423" unicode="`" d="M369 547h-93l-128 121l183 30z"/>
<glyph glyph-name="a" horiz-adv-x="515" unicode="a" d="M305 173l32 201q-18 7 -35 7q-51 0 -90 -53.5t-39 -134.5q0 -73 47 -73q34 0 85 53zM299 76q-75 -86 -145 -86q-60 0 -94.5 45t-34.5 124q0 159 85.5 248t207.5 89q86 0 178 -35l-54 -338v-123h-138z"/>
<glyph glyph-name="b" horiz-adv-x="515" unicode="b" d="M176 116q20 -7 41 -7q53 0 89 50t36 138q0 73 -51 73q-33 0 -82 -49zM17 29l107 670l150 23l-47 -291q69 69 131 69q60 0 96.5 -47t36.5 -129q0 -154 -82 -242t-200 -88q-89 0 -192 35z"/>
<glyph glyph-name="c" horiz-adv-x="423" unicode="c" d="M426 464l-38 -121q-44 29 -87 29q-55 0 -90.5 -46.5t-35.5 -111.5q0 -51 24.5 -76t67.5 -25q39 0 95 27v-120q-56 -29 -127 -29q-100 0 -154.5 55.5t-54.5 155.5q0 126 74.5 212t190.5 86q74 0 135 -36z"/>
<glyph glyph-name="d" horiz-adv-x="519" unicode="d" d="M339 373q-16 7 -40 7q-53 0 -89.5 -49.5t-36.5 -137.5q0 -73 51 -73q34 0 82 48zM541 722l-96 -600v-122h-138l-6 73q-76 -83 -143 -83q-61 0 -97 46.5t-36 129.5q0 153 79.5 240.5t192.5 87.5q29 0 61 -8l32 213z"/>
<glyph glyph-name="e" horiz-adv-x="478" unicode="e" d="M264 402q-32 0 -56 -29t-36 -76h148q2 20 2 27q0 78 -58 78zM262 96q71 0 154 44v-103q-92 -47 -182 -47q-94 0 -151.5 53t-57.5 152q0 131 73 218t181 87q82 0 128 -53t46 -142q0 -50 -12 -95h-279q0 -114 100 -114z"/>
<glyph glyph-name="f" horiz-adv-x="330" unicode="f" d="M385 596q-25 6 -48 6q-28 0 -44 -14t-22 -47l-9 -51h83v-121h-101l-83 -532l-150 -23l87 555h-68l19 121h68l12 71q13 75 54.5 115.5t124.5 40.5q39 0 77 -6v-115z"/>
<glyph glyph-name="g" horiz-adv-x="517" unicode="g" d="M339 373q-17 7 -42 7q-52 0 -88 -48.5t-36 -129.5q0 -71 52 -71q35 0 82 50zM498 461l-66 -423q-20 -121 -83.5 -170.5t-163.5 -49.5q-114 0 -204 44l37 113q80 -41 155 -41q92 0 110 98l9 44q-69 -69 -130 -69q-63 0 -100 44.5t-37 126.5q0 147 82.5 232.5t198.5 85.5 q89 0 192 -35z"/>
<glyph glyph-name="h" horiz-adv-x="519" unicode="h" d="M489 391q0 -18 -4 -50l-55 -341h-147l48 303q4 18 4 34q0 14 -8.5 23t-22.5 9q-31 0 -96 -62l-49 -307h-147l112 699l150 23l-51 -313q47 45 84 68t82 23q48 0 74 -29.5t26 -79.5z"/>
<glyph glyph-name="i" horiz-adv-x="258" unicode="i" d="M242 490l-79 -490h-147l79 490h147zM278 636q0 -37 -24.5 -59.5t-61.5 -22.5t-62 22.5t-25 59.5t25 59.5t62 22.5t61.5 -22.5t24.5 -59.5z"/>
<glyph glyph-name="j" horiz-adv-x="258" unicode="j" d="M241 490l-78 -499q-16 -94 -58 -133.5t-123 -39.5q-46 0 -66 6v124q14 -5 40 -5q28 0 42.5 16t19.5 51l76 480h147zM278 636q0 -37 -24.5 -59.5t-61.5 -22.5t-62 22.5t-25 59.5t25 59.5t62 22.5t61.5 -22.5t24.5 -59.5z"/>
<glyph glyph-name="k" horiz-adv-x="491" unicode="k" d="M159 0h-147l111 696l151 26l-70 -428l150 196h164l-185 -232l117 -240l-148 -25l-109 236z"/>
<glyph glyph-name="l" horiz-adv-x="258" unicode="l" d="M278 722l-115 -722h-147l111 699z"/>
<glyph glyph-name="m" horiz-adv-x="783" unicode="m" d="M753 391q0 -23 -5 -50l-54 -341h-147l49 303q3 30 3 34q0 32 -28 32q-33 0 -95 -63l-49 -306h-147l48 303q4 20 4 34q0 32 -29 32q-32 0 -94 -63l-48 -306h-147l58 367v123h139l5 -90q102 100 173 100q46 0 70.5 -27.5t25.5 -69.5q97 97 170 97q47 0 72.5 -29.5 t25.5 -79.5z"/>
<glyph glyph-name="n" d="M491 391q0 -10 -5 -50l-55 -341h-146l48 303q3 27 3 34q0 14 -8.5 23t-22.5 9q-31 0 -96 -62l-48 -307h-147l58 367v123h138l6 -90q49 48 89.5 74t85.5 26q48 0 74 -29.5t26 -79.5z" unicode="n"/>
<glyph glyph-name="o" horiz-adv-x="507" unicode="o" d="M334 283q0 100 -63 100q-44 0 -71 -54t-27 -122q0 -100 62 -100q45 0 72 53.5t27 122.5zM479 283q0 -125 -69 -209t-181 -84q-96 0 -149 59.5t-53 156.5q0 126 69.5 210t181.5 84q94 0 147.5 -59.5t53.5 -157.5z"/>
<glyph glyph-name="p" horiz-adv-x="516" unicode="p" d="M177 116q21 -7 41 -7q53 0 89 50t36 138q0 73 -50 73q-34 0 -83 -49zM-16 -186l88 553v123h138l5 -73q40 41 73 62t71 21q60 0 96.5 -47t36.5 -129q0 -154 -79.5 -241t-192.5 -87q-26 0 -61 7l-24 -166z"/>
<glyph glyph-name="q" horiz-adv-x="518" unicode="q" d="M339 373q-16 7 -41 7q-53 0 -89 -49.5t-36 -137.5q0 -73 51 -73q34 0 82 48zM498 461l-97 -624l-150 -23l37 245q-69 -69 -130 -69t-97 46.5t-36 129.5q0 153 82 241.5t199 88.5q89 0 192 -35z"/>
<glyph glyph-name="r" horiz-adv-x="371" unicode="r" d="M379 348q-104 -9 -176 -79l-42 -269h-147l58 367v123h137l7 -109q73 118 163 119v-152z"/>
<glyph glyph-name="s" horiz-adv-x="421" unicode="s" d="M404 455l-31 -110q-85 47 -145 47q-44 0 -44 -32q0 -14 9.5 -23t38.5 -22q86 -40 119.5 -73t33.5 -91q0 -70 -49.5 -115.5t-138.5 -45.5q-104 0 -203 57l34 111q92 -60 171 -60q25 0 39 10t14 27q0 15 -11.5 25t-45.5 26q-80 37 -112 69t-32 88q0 70 48.5 113.5 t130.5 43.5q89 0 174 -45z"/>
<glyph glyph-name="t" horiz-adv-x="358" unicode="t" d="M351 369h-110l-28 -176q-3 -18 -3 -34q0 -42 44 -42q16 0 43 5v-120q-44 -11 -97 -11q-141 0 -141 122q0 29 5 61l31 195h-61l19 121h61l22 149l151 23l-27 -172h91v-121z"/>
<glyph glyph-name="u" d="M30 98q0 20 4 50l55 342h147l-48 -304q-4 -16 -4 -33q0 -32 31 -32t96 62l49 307h147l-59 -368v-122h-138l-6 89q-49 -48 -89 -73.5t-85 -25.5q-48 0 -74 29t-26 79z" unicode="u"/>
<glyph glyph-name="v" horiz-adv-x="474" unicode="v" d="M503 490l-238 -492h-137l-83 478l153 21l35 -308l127 301h143z"/>
<glyph glyph-name="w" horiz-adv-x="707" unicode="w" d="M731 490l-210 -490h-139l-25 296l-117 -296h-136l-55 478l149 19l16 -302l114 295h135l21 -295l108 295h139z"/>
<glyph glyph-name="x" horiz-adv-x="479" unicode="x" d="M497 490l-173 -240l105 -238l-144 -19l-60 155l-97 -148h-155l182 251l-97 227l144 19l53 -145l88 138h154z"/>
<glyph glyph-name="y" horiz-adv-x="483" unicode="y" d="M511 490l-245 -504q-46 -96 -93.5 -132t-130.5 -36q-31 0 -55 6v120q30 -7 57 -7q51 0 80 46l10 19l-87 474l153 21l39 -309l129 302h143z"/>
<glyph glyph-name="z" horiz-adv-x="456" unicode="z" d="M456 490l-18 -114l-244 -259h198v-117h-404l18 113l245 259h-175v118h380z"/>
<glyph glyph-name="braceleft" horiz-adv-x="478" unicode="{" d="M511 690l-14 -93h-84q-74 0 -75 -80v-68q-1 -68 -33 -104.5t-97 -51.5v-2q48 -11 68.5 -33.5t20.5 -63.5q0 -29 -17.5 -86t-17.5 -76q0 -43 57 -43h74v-93h-155q-61 0 -93.5 26.5t-32.5 76.5q0 30 18.5 92.5t18.5 87.5q0 36 -21 52.5t-68 16.5h-22v91h38q60 0 88 28.5 t29 95.5v65q1 75 44 118.5t126 43.5h148z"/>
<glyph glyph-name="bar" horiz-adv-x="305" unicode="|" d="M212 -166l-126 -20v888l126 20v-888z"/>
<glyph glyph-name="braceright" horiz-adv-x="473" unicode="}" d="M-24 -104l15 93h84q74 0 74 80v68q1 69 33 105t97 51v2q-48 11 -68.5 34.5t-20.5 65.5q1 28 18.5 84t17.5 74q0 44 -57 44h-74v93h155q61 0 93.5 -26.5t32.5 -76.5q0 -30 -18.5 -93.5t-18.5 -89.5q0 -34 21 -50t67 -16h23v-91h-39q-60 0 -88 -28.5t-29 -95.5v-65 q0 -75 -43 -118.5t-126 -43.5h-149z"/>
<glyph glyph-name="asciitilde" horiz-adv-x="380" unicode="~" d="M362 355q-18 -77 -42.5 -108.5t-62.5 -31.5q-23 0 -63 20q-42 21 -57 21q-11 0 -19 -9t-18 -35l-68 15q18 77 43 108.5t63 31.5q27 0 63 -19q42 -22 57 -22q20 0 37 45z"/>
<glyph glyph-name="uni00A0" horiz-adv-x="99" unicode=" "/>
<glyph glyph-name="exclamdown" horiz-adv-x="293" unicode="¡" d="M227 456l-25 -456h-185l115 434zM301 690l-28 -170h-161l27 170h162z"/>
<glyph glyph-name="cent" horiz-adv-x="447" unicode="¢" d="M183 301q0 -63 39 -85l75 252q-50 -5 -82 -52t-32 -115zM427 668l-29 -93q29 -10 63 -31l-40 -114q-38 25 -64 32l-78 -258q51 0 110 31v-112q-64 -35 -140 -35l-29 -98l-68 18l27 89q-61 18 -97.5 67.5t-36.5 126.5q0 126 76 211t193 85q2 0 6.5 -0.5t6.5 -0.5l31 99z "/>
<glyph glyph-name="sterling" horiz-adv-x="553" unicode="£" d="M61 396h89l56 131q35 83 85.5 122.5t133.5 39.5q75 0 131 -18l-33 -130q-39 14 -79 14q-63 0 -97 -76l-35 -83h128v-124h-180l-60 -142h283v-130h-471l18 116l67 156h-56z"/>
<glyph glyph-name="yen" horiz-adv-x="633" unicode="¥" d="M72 219l12 76h134l-139 363l172 25l91 -281l175 274h174l-270 -381h129v-76h-161l-10 -62h156l-11 -75h-157l-13 -82h-160l13 82h-150v75h162l9 62h-156z"/>
<glyph glyph-name="section" horiz-adv-x="557" unicode="§" d="M42 305q0 54 47 112l96 -25q-19 -31 -19 -50t14.5 -29.5t53.5 -21.5l64 -17q73 -20 107 -51t34 -84q0 -64 -50 -105.5t-135 -41.5q-89 0 -170 36l32 100q76 -37 147 -37q22 0 34 8.5t12 21.5q0 15 -16.5 24t-61.5 21l-42 12q-82 22 -114.5 50.5t-32.5 76.5zM541 370 q0 -54 -48 -111l-96 25q19 28 19 49q0 19 -14.5 29.5t-53.5 21.5l-64 18q-73 20 -106.5 50t-33.5 84q0 65 50 106.5t134 41.5q90 0 171 -37l-32 -100q-76 38 -147 38q-47 0 -47 -30q0 -16 16 -24.5t62 -21.5l42 -11q83 -23 115.5 -51t32.5 -77z"/>
<glyph glyph-name="dieresis" horiz-adv-x="423" unicode="¨" d="M227 548h-120l20 131h122zM411 548h-121l21 131h121z"/>
<glyph glyph-name="copyright" horiz-adv-x="799" unicode="©" d="M564 177q-57 -32 -125 -32q-94 0 -149.5 55.5t-55.5 147.5q0 91 56.5 147t146.5 56q65 0 120 -26l-15 -98q-50 32 -98 32q-43 0 -68 -30.5t-25 -79.5q0 -51 27 -81t73 -30q47 0 99 30zM720 345q0 151 -85 236.5t-216 85.5q-133 0 -217.5 -85.5t-84.5 -236.5t85 -236.5 t217 -85.5t216.5 85.5t84.5 236.5zM764 346q0 -160 -96.5 -259.5t-249.5 -99.5q-154 0 -249.5 98.5t-95.5 258.5t96.5 259.5t249.5 99.5q154 0 249.5 -98.5t95.5 -258.5z"/>
<glyph glyph-name="ordfeminine" horiz-adv-x="372" unicode="ª" d="M122 582l1 73q62 26 137 26q115 0 115 -87q0 -17 -2 -27l-24 -148v-64h-97l-1 41q-53 -48 -108 -48q-36 0 -55.5 20t-19.5 54q0 114 203 134l1 6v6q0 22 -11 30.5t-38 8.5q-41 0 -101 -25zM253 447l10 61q-92 -13 -92 -66q0 -24 23 -24q25 0 59 29zM327 222h-288l11 73 h277v-73z"/>
<glyph glyph-name="guillemotleft" horiz-adv-x="530" unicode="«" d="M320 490l-146 -249l64 -226l-98 -24l-122 254l188 245h114zM542 490l-146 -249l63 -226l-98 -24l-122 254l188 245h115z"/>
<glyph glyph-name="registered" horiz-adv-x="563" unicode="®" d="M355 521q0 35 -40 35h-20v-71h20q40 0 40 36zM442 359l-75 -12l-59 92h-13v-89h-70v256h98q48 0 74.5 -20.5t26.5 -59.5q0 -52 -47 -71zM513 470q0 96 -55.5 151t-138.5 55q-85 0 -140 -55t-55 -151q0 -95 55.5 -150t138.5 -55q85 0 140 55t55 150zM545 470 q0 -103 -63.5 -167.5t-163.5 -64.5q-101 0 -163.5 64t-62.5 168q0 103 63.5 168t163.5 65t163 -64.5t63 -168.5z"/>
<glyph glyph-name="macron" horiz-adv-x="423" unicode="¯" d="M410 557h-301l17 105h301z"/>
<glyph glyph-name="degree" horiz-adv-x="446" unicode="°" d="M351 505q0 40 -24.5 67t-62.5 27t-62.5 -27t-24.5 -67q0 -41 24 -67t63 -26t63 26t24 67zM441 505q0 -77 -50 -126.5t-127 -49.5t-127 49.5t-50 126.5t50 127t127 50t127 -50t50 -127z"/>
<glyph glyph-name="plusminus" horiz-adv-x="540" unicode="±" d="M461 57h-444l18 116h444zM347 358l-23 -140h-120l23 140h-135l18 114h135l22 140h120l-22 -140h134l-18 -114h-134z"/>
<glyph glyph-name="two.sup" horiz-adv-x="360" unicode="²" d="M351 405h-274l14 86l146 127q35 30 35 52q0 28 -33 28q-36 0 -100 -35v91q65 35 127 35q53 0 84 -27.5t31 -69.5q0 -37 -19 -64.5t-69 -68.5l-75 -64h133v-90z"/>
<glyph glyph-name="three.sup" horiz-adv-x="360" unicode="³" d="M357 517q0 -55 -43 -87t-107 -32t-134 35l26 79q55 -30 100 -30q23 0 37.5 11t14.5 30q0 37 -61 37h-26v71h26q40 0 61.5 12t21.5 32q0 28 -37 28q-42 0 -97 -30v84q62 32 128 32q53 0 84 -23.5t31 -65.5q0 -76 -89 -102q64 -22 64 -81z"/>
<glyph glyph-name="acute" horiz-adv-x="423" unicode="´" d="M402 668l-156 -121h-94l81 151z"/>
<glyph glyph-name="paragraph" horiz-adv-x="521" unicode="¶" d="M414 0h-86l97 607h-59l-27 -164l-68 -220q-97 5 -151.5 53.5t-54.5 140.5q0 118 77.5 188.5t212.5 70.5h166z"/>
<glyph glyph-name="periodcentered" horiz-adv-x="257" unicode="·" d="M202 200h-162l29 182h161z"/>
<glyph glyph-name="cedilla" horiz-adv-x="423" unicode="¸" d="M263 -81l-146 -106h-92l73 137z"/>
<glyph glyph-name="one.sup" horiz-adv-x="360" unicode="¹" d="M343 405h-253l13 86h76l30 185l-81 -32v91l129 53h77l-49 -297h58v-86z"/>
<glyph glyph-name="ordmasculine" horiz-adv-x="373" unicode="º" d="M243 598q-30 0 -50 -33t-20 -75q0 -59 45 -59q30 0 50 33t20 75q0 59 -45 59zM334 222h-298l12 73h286v-73zM208 349q-60 0 -97.5 36.5t-37.5 100.5q0 82 49.5 138t129.5 56q61 0 98.5 -36.5t37.5 -100.5q0 -82 -50 -138t-130 -56z"/>
<glyph glyph-name="guillemotright" horiz-adv-x="530" unicode="»" d="M-13 0l146 249l-63 226l97 23l122 -254l-187 -244h-115zM208 0l146 249l-63 226l97 23l123 -254l-188 -244h-115z"/>
<glyph glyph-name="onequarter" horiz-adv-x="810" unicode="¼" d="M633 142l13 74l20 84h-5l-46 -74l-28 -40l-38 -45l1 -2l57 3h26zM756 70h-44l-12 -73h-100l12 73h-151l10 71l166 238h124l-38 -235h45zM470 319l-249 -333l-64 18l270 347l251 333l64 -18zM328 305h-253l13 86h76l30 185l-81 -32v91l129 53h77l-49 -297h58v-86z"/>
<glyph glyph-name="onehalf" horiz-adv-x="810" unicode="½" d="M735 0h-274l13 85l146 128q36 31 36 52q0 28 -34 28q-36 0 -100 -35v90q63 36 127 36q53 0 84 -27.5t31 -69.5q0 -38 -18.5 -64.5t-69.5 -69.5l-75 -63h134v-90zM328 305h-253l13 86h76l30 185l-81 -32v91l129 53h77l-49 -297h58v-86zM449 319l-249 -333l-64 18l270 347 l251 333l64 -18z"/>
<glyph glyph-name="threequarters" horiz-adv-x="810" unicode="¾" d="M633 142l13 74l20 84h-5l-46 -74l-28 -40l-38 -45l1 -2l57 3h26zM756 70h-44l-12 -73h-100l12 73h-151l10 71l166 238h124l-38 -235h45zM463 319l-249 -333l-64 18l270 347l251 333l64 -18zM342 417q0 -55 -43 -87t-107 -32t-134 35l26 79q55 -30 100 -30q23 0 37.5 11 t14.5 30q0 37 -61 37h-26v71h26q40 0 61.5 12t21.5 32q0 28 -37 28q-42 0 -97 -30v84q62 32 128 32q53 0 84 -23.5t31 -65.5q0 -76 -89 -102q64 -22 64 -81z"/>
<glyph glyph-name="questiondown" horiz-adv-x="483" unicode="¿" d="M245 399l9 39l104 24l-18 -165l-17 -7q-100 -41 -120 -56q-26 -19 -26 -47q0 -56 74 -56q78 0 184 69v-145q-108 -68 -232 -68q-94 0 -142.5 47.5t-48.5 127.5q0 89 57 145t176 92zM251 520l28 170h161l-27 -170h-162z"/>
<glyph glyph-name="Agrave" horiz-adv-x="663" unicode="À" d="M372 514l-109 -238h142zM465 751h-93l-128 121l183 30zM444 -7l-22 150h-217l-65 -143h-166l347 693h173l121 -670z"/>
<glyph glyph-name="Aacute" horiz-adv-x="663" unicode="Á" d="M372 514l-109 -238h142zM610 872l-156 -121h-94l81 151zM444 -7l-22 150h-217l-65 -143h-166l347 693h173l121 -670z"/>
<glyph glyph-name="Acircumflex" horiz-adv-x="663" unicode="Â" d="M372 514l-109 -238h142zM572 749h-92l-58 58l-79 -58h-89l117 147h127zM444 -7l-22 150h-217l-65 -143h-166l347 693h173l121 -670z"/>
<glyph glyph-name="Atilde" horiz-adv-x="663" unicode="Ã" d="M372 514l-109 -238h142zM593 890q-18 -76 -42.5 -107.5t-62.5 -31.5q-23 0 -63 20q-42 21 -57 21q-21 0 -37 -44l-68 15q18 77 43 108.5t63 31.5q28 0 63 -20q41 -21 57 -21q11 0 19 9.5t18 35.5zM444 -7l-22 150h-217l-65 -143h-166l347 693h173l121 -670z"/>
<glyph glyph-name="Adieresis" horiz-adv-x="663" unicode="Ä" d="M381 752h-120l20 131h122zM565 752h-121l21 131h121zM372 514l-109 -238h142zM444 -7l-22 150h-217l-65 -143h-166l347 693h173l121 -670z"/>
<glyph glyph-name="Aring" horiz-adv-x="663" unicode="Å" d="M404 675q21 0 36 17t15 43q0 25 -13.5 39.5t-33.5 14.5q-21 0 -36 -17.5t-15 -43.5q0 -25 13.5 -39t33.5 -14zM372 514l-109 -238h142zM444 -7l-22 150h-217l-65 -143h-166l331 662q-27 29 -27 69q0 48 36 78.5t95 30.5q53 0 89 -30.5t36 -77.5t-34 -76l115 -633z"/>
<glyph glyph-name="AE" horiz-adv-x="867" unicode="Æ" d="M295 276h136l47 296zM126 0h-167l445 690h492l-21 -138h-232l-20 -127h171v-137h-193l-24 -150h240l-22 -138h-407l22 143h-194z"/>
<glyph glyph-name="Ccedilla" horiz-adv-x="573" unicode="Ç" d="M366 -89l-146 -106h-92l73 137zM592 647l-45 -144q-66 55 -135 55q-86 0 -140.5 -77t-54.5 -182q0 -84 38 -127t104 -43q70 0 146 43v-143q-75 -40 -176 -40q-130 0 -207 75.5t-77 217.5q0 185 104.5 302.5t258.5 117.5q104 0 184 -55z"/>
<glyph glyph-name="Egrave" horiz-adv-x="512" unicode="È" d="M395 741h-93l-128 121l183 30zM541 690l-21 -138h-243l-20 -127h182v-137h-204l-24 -150h251l-22 -138h-418l109 690h410z"/>
<glyph glyph-name="Eacute" horiz-adv-x="512" unicode="É" d="M541 690l-21 -138h-243l-20 -127h182v-137h-204l-24 -150h251l-22 -138h-418l109 690h410zM540 862l-156 -121h-94l81 151z"/>
<glyph glyph-name="Ecircumflex" horiz-adv-x="512" unicode="Ê" d="M541 690l-21 -138h-243l-20 -127h182v-137h-204l-24 -150h251l-22 -138h-418l109 690h410zM502 741h-92l-58 58l-79 -58h-89l117 147h127z"/>
<glyph glyph-name="Edieresis" horiz-adv-x="512" unicode="Ë" d="M541 690l-21 -138h-243l-20 -127h182v-137h-204l-24 -150h251l-22 -138h-418l109 690h410zM311 742h-120l20 131h122zM495 742h-121l21 131h121z"/>
<glyph glyph-name="Igrave" horiz-adv-x="298" unicode="Ì" d="M279 741h-93l-128 121l183 30zM304 690l-109 -690h-170l109 690h170z"/>
<glyph glyph-name="Iacute" horiz-adv-x="298" unicode="Í" d="M423 862l-156 -121h-94l81 151zM304 690l-109 -690h-170l109 690h170z"/>
<glyph glyph-name="Icircumflex" horiz-adv-x="298" unicode="Î" d="M386 741h-92l-58 58l-79 -58h-89l117 147h127zM304 690l-109 -690h-170l109 690h170z"/>
<glyph glyph-name="Idieresis" horiz-adv-x="298" unicode="Ï" d="M195 742h-120l20 131h122zM379 742h-121l21 131h121zM304 690l-109 -690h-170l109 690h170z"/>
<glyph glyph-name="Eth" horiz-adv-x="694" unicode="Ð" d="M369 285h-107l-25 -155h27q102 0 167 65q72 72 72 197q0 168 -164 168h-33l-22 -137h108zM675 401q0 -178 -109 -285q-116 -116 -332 -116h-183l44 283h-67v143h90l42 264h179q164 0 250 -73.5t86 -215.5z"/>
<glyph glyph-name="Ntilde" horiz-adv-x="667" unicode="Ñ" d="M591 877q-18 -76 -42.5 -107.5t-62.5 -31.5q-23 0 -63 20q-42 21 -57 21q-21 0 -37 -44l-68 15q18 77 43 108.5t63 31.5q28 0 63 -20q41 -21 57 -21q11 0 19 9.5t18 35.5zM676 690l-109 -690h-135l-188 417l-67 -417h-155l109 690h160l170 -381l60 381h155z"/>
<glyph glyph-name="Ograve" horiz-adv-x="690" unicode="Ò" d="M472 751h-93l-128 121l183 30zM330 116q47 0 86 39q35 35 58 106t23 155q0 158 -109 158q-48 0 -87 -39q-34 -33 -57 -105t-23 -156q0 -158 109 -158zM327 -13q-131 0 -205 80t-74 223q0 96 31 181t89 142q88 90 222 90q131 0 205 -80t74 -223q0 -96 -31 -181t-88 -142 q-90 -90 -223 -90z"/>
<glyph glyph-name="Oacute" horiz-adv-x="690" unicode="Ó" d="M330 116q47 0 86 39q35 35 58 106t23 155q0 158 -109 158q-48 0 -87 -39q-34 -33 -57 -105t-23 -156q0 -158 109 -158zM327 -13q-131 0 -205 80t-74 223q0 96 31 181t89 142q88 90 222 90q131 0 205 -80t74 -223q0 -96 -31 -181t-88 -142q-90 -90 -223 -90zM617 872 l-156 -121h-94l81 151z"/>
<glyph glyph-name="Ocircumflex" horiz-adv-x="690" unicode="Ô" d="M330 116q47 0 86 39q35 35 58 106t23 155q0 158 -109 158q-48 0 -87 -39q-34 -33 -57 -105t-23 -156q0 -158 109 -158zM327 -13q-131 0 -205 80t-74 223q0 96 31 181t89 142q88 90 222 90q131 0 205 -80t74 -223q0 -96 -31 -181t-88 -142q-90 -90 -223 -90zM580 751h-92 l-58 58l-79 -58h-89l117 147h127z"/>
<glyph glyph-name="Otilde" horiz-adv-x="690" unicode="Õ" d="M600 890q-18 -76 -42.5 -107.5t-62.5 -31.5q-23 0 -63 20q-42 21 -57 21q-21 0 -37 -44l-68 15q18 77 43 108.5t63 31.5q28 0 63 -20q41 -21 57 -21q11 0 19 9.5t18 35.5zM330 116q47 0 86 39q35 35 58 106t23 155q0 158 -109 158q-48 0 -87 -39q-34 -33 -57 -105 t-23 -156q0 -158 109 -158zM327 -13q-131 0 -205 80t-74 223q0 96 31 181t89 142q88 90 222 90q131 0 205 -80t74 -223q0 -96 -31 -181t-88 -142q-90 -90 -223 -90z"/>
<glyph glyph-name="Odieresis" horiz-adv-x="690" unicode="Ö" d="M330 116q47 0 86 39q35 35 58 106t23 155q0 158 -109 158q-48 0 -87 -39q-34 -33 -57 -105t-23 -156q0 -158 109 -158zM327 -13q-131 0 -205 80t-74 223q0 96 31 181t89 142q88 90 222 90q131 0 205 -80t74 -223q0 -96 -31 -181t-88 -142q-90 -90 -223 -90zM389 752h-120 l20 131h122zM573 752h-121l21 131h121z"/>
<glyph glyph-name="multiply" horiz-adv-x="572" unicode="×" d="M408 113l-118 142l-162 -141l-75 88l164 139l-119 140l96 82l117 -141l162 141l75 -88l-164 -139l120 -140z"/>
<glyph glyph-name="Oslash" horiz-adv-x="690" unicode="Ø" d="M217 274q0 -21 1 -30l260 283q-28 51 -90 51q-49 0 -89 -40q-35 -35 -58.5 -107t-23.5 -157zM330 112q49 0 89 40q35 35 58.5 107t23.5 157q0 21 -1 31l-261 -284q29 -51 91 -51zM327 -13q-116 0 -188 63l-58 -59l-110 25l110 112q-33 68 -33 162q0 96 31 181t89 142 q88 90 222 90q116 0 188 -63l58 59l110 -25l-110 -113q33 -66 33 -161q0 -96 -31 -181t-88 -142q-90 -90 -223 -90z"/>
<glyph glyph-name="Ugrave" horiz-adv-x="659" unicode="Ù" d="M457 738h-93l-128 121l183 30zM675 690l-67 -422q-23 -147 -99.5 -214t-204.5 -67q-121 0 -185.5 56t-64.5 166q0 35 8 91l62 390h169l-63 -400q-7 -47 -7 -73q0 -43 23.5 -67.5t68.5 -24.5q101 0 123 138l67 427h170z"/>
<glyph glyph-name="Uacute" horiz-adv-x="659" unicode="Ú" d="M675 690l-67 -422q-23 -147 -99.5 -214t-204.5 -67q-121 0 -185.5 56t-64.5 166q0 35 8 91l62 390h169l-63 -400q-7 -47 -7 -73q0 -43 23.5 -67.5t68.5 -24.5q101 0 123 138l67 427h170zM602 859l-156 -121h-94l81 151z"/>
<glyph glyph-name="Ucircumflex" horiz-adv-x="659" unicode="Û" d="M675 690l-67 -422q-23 -147 -99.5 -214t-204.5 -67q-121 0 -185.5 56t-64.5 166q0 35 8 91l62 390h169l-63 -400q-7 -47 -7 -73q0 -43 23.5 -67.5t68.5 -24.5q101 0 123 138l67 427h170zM565 738h-92l-58 58l-79 -58h-89l117 147h127z"/>
<glyph glyph-name="Udieresis" horiz-adv-x="659" unicode="Ü" d="M675 690l-67 -422q-23 -147 -99.5 -214t-204.5 -67q-121 0 -185.5 56t-64.5 166q0 35 8 91l62 390h169l-63 -400q-7 -47 -7 -73q0 -43 23.5 -67.5t68.5 -24.5q101 0 123 138l67 427h170zM373 739h-120l20 131h122zM557 739h-121l21 131h121z"/>
<glyph glyph-name="Yacute" horiz-adv-x="631" unicode="Ý" d="M584 859l-156 -121h-94l81 151zM703 690l-305 -437l-41 -253h-170l40 250l-160 419l177 28l97 -282l178 275h184z"/>
<glyph glyph-name="Thorn" horiz-adv-x="570" unicode="Þ" d="M400 370q0 88 -103 88h-38l-32 -210h40q63 0 98 32t35 90zM563 374q0 -114 -80.5 -182.5t-222.5 -68.5h-51l-20 -123h-167l109 690h167l-17 -108h31q251 0 251 -208z"/>
<glyph glyph-name="germandbls" horiz-adv-x="591" unicode="ß" d="M561 169q0 -83 -50.5 -129.5t-134.5 -46.5q-73 0 -143 35l34 106q53 -29 96 -29q26 0 41.5 14.5t15.5 40.5q0 29 -28 51.5t-95 44.5v99q43 60 62.5 103t19.5 88q0 58 -45 58q-54 0 -71 -108l-102 -659l-150 -23l87 555h-65l19 121h65l3 15q18 102 75 157t153 55 q88 0 134 -42.5t46 -114.5q0 -59 -27.5 -109.5t-82.5 -111.5q70 -31 106.5 -69.5t36.5 -100.5z"/>
<glyph glyph-name="agrave" horiz-adv-x="515" unicode="à" d="M372 547h-93l-128 121l183 30zM305 173l32 201q-18 7 -35 7q-51 0 -90 -53.5t-39 -134.5q0 -73 47 -73q34 0 85 53zM299 76q-75 -86 -145 -86q-60 0 -94.5 45t-34.5 124q0 159 85.5 248t207.5 89q86 0 178 -35l-54 -338v-123h-138z"/>
<glyph glyph-name="aacute" horiz-adv-x="515" unicode="á" d="M517 668l-156 -121h-94l81 151zM305 173l32 201q-18 7 -35 7q-51 0 -90 -53.5t-39 -134.5q0 -73 47 -73q34 0 85 53zM299 76q-75 -86 -145 -86q-60 0 -94.5 45t-34.5 124q0 159 85.5 248t207.5 89q86 0 178 -35l-54 -338v-123h-138z"/>
<glyph glyph-name="acircumflex" horiz-adv-x="515" unicode="â" d="M480 547h-92l-58 58l-79 -58h-89l117 147h127zM305 173l32 201q-18 7 -35 7q-51 0 -90 -53.5t-39 -134.5q0 -73 47 -73q34 0 85 53zM299 76q-75 -86 -145 -86q-60 0 -94.5 45t-34.5 124q0 159 85.5 248t207.5 89q86 0 178 -35l-54 -338v-123h-138z"/>
<glyph glyph-name="atilde" horiz-adv-x="515" unicode="ã" d="M501 686q-18 -76 -42.5 -107.5t-62.5 -31.5q-23 0 -63 20q-42 21 -57 21q-21 0 -37 -44l-68 15q18 77 43 108.5t63 31.5q28 0 63 -20q41 -21 57 -21q11 0 19 9.5t18 35.5zM305 173l32 201q-18 7 -35 7q-51 0 -90 -53.5t-39 -134.5q0 -73 47 -73q34 0 85 53zM299 76 q-75 -86 -145 -86q-60 0 -94.5 45t-34.5 124q0 159 85.5 248t207.5 89q86 0 178 -35l-54 -338v-123h-138z"/>
<glyph glyph-name="adieresis" horiz-adv-x="515" unicode="ä" d="M289 548h-120l20 131h122zM473 548h-121l21 131h121zM305 173l32 201q-18 7 -35 7q-51 0 -90 -53.5t-39 -134.5q0 -73 47 -73q34 0 85 53zM299 76q-75 -86 -145 -86q-60 0 -94.5 45t-34.5 124q0 159 85.5 248t207.5 89q86 0 178 -35l-54 -338v-123h-138z"/>
<glyph glyph-name="aring" horiz-adv-x="515" unicode="å" d="M335 545q-53 0 -89 29.5t-36 76.5q0 48 36 79t95 31q53 0 89 -30t36 -77q0 -48 -36 -78.5t-95 -30.5zM335 596q22 0 37 17.5t15 43.5q0 25 -13 39t-33 14q-22 0 -37 -18t-15 -44q0 -25 13 -38.5t33 -13.5zM305 173l32 201q-18 7 -35 7q-51 0 -90 -53.5t-39 -134.5 q0 -73 47 -73q34 0 85 53zM299 76q-75 -86 -145 -86q-60 0 -94.5 45t-34.5 124q0 159 85.5 248t207.5 89q86 0 178 -35l-54 -338v-123h-138z"/>
<glyph glyph-name="ae" horiz-adv-x="749" unicode="æ" d="M591 297q1 9 1 26q0 79 -57 79q-31 0 -56 -28.5t-37 -76.5h149zM301 138q-6 23 -6 62q0 19 1 28q-136 -14 -136 -89q0 -43 44 -43q39 0 97 42zM723 312q0 -57 -12 -102h-278v-10q4 -104 99 -104q71 0 154 44v-103q-92 -47 -181 -47q-117 0 -171 75q-102 -75 -193 -75 q-57 0 -92.5 32t-35.5 92q0 172 294 187l3 16q2 16 2 21q0 49 -67 49q-61 0 -151 -37v112q101 38 187 38q100 0 132 -55q61 55 140 55q81 0 125.5 -52t44.5 -136z"/>
<glyph glyph-name="ccedilla" horiz-adv-x="423" unicode="ç" d="M272 -81l-146 -106h-92l73 137zM426 464l-38 -121q-44 29 -87 29q-55 0 -90.5 -46.5t-35.5 -111.5q0 -51 24.5 -76t67.5 -25q39 0 95 27v-120q-56 -29 -127 -29q-100 0 -154.5 55.5t-54.5 155.5q0 126 74.5 212t190.5 86q74 0 135 -36z"/>
<glyph glyph-name="egrave" horiz-adv-x="478" unicode="è" d="M264 402q-32 0 -56 -29t-36 -76h148q2 20 2 27q0 78 -58 78zM341 547h-93l-128 121l183 30zM262 96q71 0 154 44v-103q-92 -47 -182 -47q-94 0 -151.5 53t-57.5 152q0 131 73 218t181 87q82 0 128 -53t46 -142q0 -50 -12 -95h-279q0 -114 100 -114z"/>
<glyph glyph-name="eacute" horiz-adv-x="478" unicode="é" d="M264 402q-32 0 -56 -29t-36 -76h148q2 20 2 27q0 78 -58 78zM485 668l-156 -121h-94l81 151zM262 96q71 0 154 44v-103q-92 -47 -182 -47q-94 0 -151.5 53t-57.5 152q0 131 73 218t181 87q82 0 128 -53t46 -142q0 -50 -12 -95h-279q0 -114 100 -114z"/>
<glyph glyph-name="ecircumflex" horiz-adv-x="478" unicode="ê" d="M264 402q-32 0 -56 -29t-36 -76h148q2 20 2 27q0 78 -58 78zM448 547h-92l-58 58l-79 -58h-89l117 147h127zM262 96q71 0 154 44v-103q-92 -47 -182 -47q-94 0 -151.5 53t-57.5 152q0 131 73 218t181 87q82 0 128 -53t46 -142q0 -50 -12 -95h-279q0 -114 100 -114z"/>
<glyph glyph-name="edieresis" horiz-adv-x="478" unicode="ë" d="M264 402q-32 0 -56 -29t-36 -76h148q2 20 2 27q0 78 -58 78zM441 548h-121l21 131h121zM257 548h-120l20 131h122zM262 96q71 0 154 44v-103q-92 -47 -182 -47q-94 0 -151.5 53t-57.5 152q0 131 73 218t181 87q82 0 128 -53t46 -142q0 -50 -12 -95h-279q0 -114 100 -114z "/>
<glyph glyph-name="igrave" horiz-adv-x="258" unicode="ì" d="M228 547h-93l-128 121l183 30zM242 490l-79 -490h-147l79 490h147z"/>
<glyph glyph-name="iacute" horiz-adv-x="258" unicode="í" d="M242 490l-79 -490h-147l79 490h147zM373 668l-156 -121h-94l81 151z"/>
<glyph glyph-name="icircumflex" horiz-adv-x="258" unicode="î" d="M242 490l-79 -490h-147l79 490h147zM336 547h-92l-58 58l-79 -58h-89l117 147h127z"/>
<glyph glyph-name="idieresis" horiz-adv-x="258" unicode="ï" d="M242 490l-79 -490h-147l79 490h147zM145 548h-120l20 131h122zM329 548h-121l21 131h121z"/>
<glyph glyph-name="eth" horiz-adv-x="516" unicode="ð" d="M229 104q43 0 74.5 49.5t45.5 139.5q-45 50 -95 50q-40 0 -65 -42.5t-25 -107.5q0 -89 65 -89zM274 503h-84l61 71q-39 19 -75 31l33 117q73 -21 126 -50l40 50l80 -18l-63 -72q106 -89 106 -248q0 -99 -33 -186t-86 -140q-71 -69 -160 -69q-85 0 -141 51t-56 152 q0 112 60 190t145 78q74 0 136 -67v7q0 84 -58 137z"/>
<glyph glyph-name="ntilde" d="M485 686q-18 -76 -42.5 -107.5t-62.5 -31.5q-23 0 -63 20q-42 21 -57 21q-21 0 -37 -44l-68 15q18 77 43 108.5t63 31.5q28 0 63 -20q41 -21 57 -21q11 0 19 9.5t18 35.5zM491 391q0 -10 -5 -50l-55 -341h-146l48 303q3 27 3 34q0 14 -8.5 23t-22.5 9q-31 0 -96 -62 l-48 -307h-147l58 367v123h138l6 -90q49 48 89.5 74t85.5 26q48 0 74 -29.5t26 -79.5z" unicode="ñ"/>
<glyph glyph-name="ograve" horiz-adv-x="507" unicode="ò" d="M351 547h-93l-128 121l183 30zM334 283q0 100 -63 100q-44 0 -71 -54t-27 -122q0 -100 62 -100q45 0 72 53.5t27 122.5zM479 283q0 -125 -69 -209t-181 -84q-96 0 -149 59.5t-53 156.5q0 126 69.5 210t181.5 84q94 0 147.5 -59.5t53.5 -157.5z"/>
<glyph glyph-name="oacute" horiz-adv-x="507" unicode="ó" d="M334 283q0 100 -63 100q-44 0 -71 -54t-27 -122q0 -100 62 -100q45 0 72 53.5t27 122.5zM479 283q0 -125 -69 -209t-181 -84q-96 0 -149 59.5t-53 156.5q0 126 69.5 210t181.5 84q94 0 147.5 -59.5t53.5 -157.5zM495 668l-156 -121h-94l81 151z"/>
<glyph glyph-name="ocircumflex" horiz-adv-x="507" unicode="ô" d="M334 283q0 100 -63 100q-44 0 -71 -54t-27 -122q0 -100 62 -100q45 0 72 53.5t27 122.5zM479 283q0 -125 -69 -209t-181 -84q-96 0 -149 59.5t-53 156.5q0 126 69.5 210t181.5 84q94 0 147.5 -59.5t53.5 -157.5zM458 547h-92l-58 58l-79 -58h-89l117 147h127z"/>
<glyph glyph-name="otilde" horiz-adv-x="507" unicode="õ" d="M479 686q-18 -76 -42.5 -107.5t-62.5 -31.5q-23 0 -63 20q-42 21 -57 21q-21 0 -37 -44l-68 15q18 77 43 108.5t63 31.5q28 0 63 -20q41 -21 57 -21q11 0 19 9.5t18 35.5zM334 283q0 100 -63 100q-44 0 -71 -54t-27 -122q0 -100 62 -100q45 0 72 53.5t27 122.5zM479 283 q0 -125 -69 -209t-181 -84q-96 0 -149 59.5t-53 156.5q0 126 69.5 210t181.5 84q94 0 147.5 -59.5t53.5 -157.5z"/>
<glyph glyph-name="odieresis" horiz-adv-x="507" unicode="ö" d="M334 283q0 100 -63 100q-44 0 -71 -54t-27 -122q0 -100 62 -100q45 0 72 53.5t27 122.5zM479 283q0 -125 -69 -209t-181 -84q-96 0 -149 59.5t-53 156.5q0 126 69.5 210t181.5 84q94 0 147.5 -59.5t53.5 -157.5zM267 548h-120l20 131h122zM451 548h-121l21 131h121z"/>
<glyph glyph-name="divide" horiz-adv-x="572" unicode="÷" d="M326 74h-134l20 130h134zM523 280h-464l19 116h464zM389 472h-134l20 130h135z"/>
<glyph glyph-name="oslash" horiz-adv-x="507" unicode="ø" d="M166 206v-18l158 173q-19 29 -53 29q-47 0 -76 -56.5t-29 -127.5zM341 284q0 4 -0.5 10t-0.5 9l-158 -175q18 -28 53 -28q48 0 77 56t29 128zM527 478l-77 -77q29 -50 29 -118q0 -125 -69 -209t-181 -84q-78 0 -131 45l-39 -43l-81 20l76 76q-27 51 -27 118 q0 126 69.5 210t181.5 84q75 0 130 -45l40 43z"/>
<glyph glyph-name="ugrave" d="M357 547h-93l-128 121l183 30zM30 98q0 20 4 50l55 342h147l-48 -304q-4 -16 -4 -33q0 -32 31 -32t96 62l49 307h147l-59 -368v-122h-138l-6 89q-49 -48 -89 -73.5t-85 -25.5q-48 0 -74 29t-26 79z" unicode="ù"/>
<glyph glyph-name="uacute" d="M30 98q0 20 4 50l55 342h147l-48 -304q-4 -16 -4 -33q0 -32 31 -32t96 62l49 307h147l-59 -368v-122h-138l-6 89q-49 -48 -89 -73.5t-85 -25.5q-48 0 -74 29t-26 79zM501 668l-156 -121h-94l81 151z" unicode="ú"/>
<glyph glyph-name="ucircumflex" d="M30 98q0 20 4 50l55 342h147l-48 -304q-4 -16 -4 -33q0 -32 31 -32t96 62l49 307h147l-59 -368v-122h-138l-6 89q-49 -48 -89 -73.5t-85 -25.5q-48 0 -74 29t-26 79zM464 547h-92l-58 58l-79 -58h-89l117 147h127z" unicode="û"/>
<glyph glyph-name="udieresis" d="M30 98q0 20 4 50l55 342h147l-48 -304q-4 -16 -4 -33q0 -32 31 -32t96 62l49 307h147l-59 -368v-122h-138l-6 89q-49 -48 -89 -73.5t-85 -25.5q-48 0 -74 29t-26 79zM273 548h-120l20 131h122zM457 548h-121l21 131h121z" unicode="ü"/>
<glyph glyph-name="yacute" horiz-adv-x="483" unicode="ý" d="M489 668l-156 -121h-94l81 151zM511 490l-245 -504q-46 -96 -93.5 -132t-130.5 -36q-31 0 -55 6v120q30 -7 57 -7q51 0 80 46l10 19l-87 474l153 21l39 -309l129 302h143z"/>
<glyph glyph-name="thorn" horiz-adv-x="516" unicode="þ" d="M176 116q20 -7 41 -7q53 0 90 50t37 137q0 74 -52 74q-34 0 -83 -50zM492 324q0 -154 -79.5 -241t-193.5 -87q-28 0 -61 7l-24 -166l-151 -23l140 885l151 23l-47 -292q34 34 64 52t68 18q61 0 97 -47t36 -129z"/>
<glyph glyph-name="OE" horiz-adv-x="852" unicode="Œ" d="M483 690h398l-20 -138h-233l-20 -127h172v-137h-194l-24 -150h241l-22 -138h-402q-163 0 -249.5 73.5t-86.5 215.5q0 178 109 285q115 116 331 116zM214 298q0 -168 165 -168h15l69 430h-9q-101 0 -168 -65q-72 -72 -72 -197z"/>
<glyph glyph-name="oe" horiz-adv-x="784" unicode="œ" d="M571 402q-32 0 -56.5 -28.5t-36.5 -76.5h149q1 9 1 26q0 79 -57 79zM334 287q0 96 -64 96q-43 0 -70 -53.5t-27 -126.5q0 -96 64 -96q43 0 70 53.5t27 126.5zM759 305q0 -50 -12 -95h-278v-10q4 -104 99 -104q71 0 154 44v-103q-92 -47 -186 -47q-98 0 -149 76 q-63 -76 -163 -76q-91 0 -144 59t-53 155q0 125 69 210.5t177 85.5q101 0 150 -80q67 80 165 80q82 0 126.5 -52.5t44.5 -142.5z"/>
<glyph glyph-name="Scaron" horiz-adv-x="536" unicode="Š" d="M536 642l-46 -135q-99 65 -170 65q-36 0 -54.5 -17.5t-18.5 -44.5q0 -23 15.5 -39.5t59.5 -40.5q100 -54 138.5 -101t38.5 -110q0 -109 -69.5 -169.5t-181.5 -60.5q-128 0 -247 68l47 135q111 -74 200 -74q39 0 63.5 20.5t24.5 52.5q0 25 -14 41t-54 38 q-107 57 -145.5 101.5t-38.5 114.5q0 93 65 154t174 61q114 0 213 -59zM214 898h92l57 -58l80 58h89l-117 -147h-128z"/>
<glyph glyph-name="scaron" horiz-adv-x="421" unicode="š" d="M404 455l-31 -110q-85 47 -145 47q-44 0 -44 -32q0 -14 9.5 -23t38.5 -22q86 -40 119.5 -73t33.5 -91q0 -70 -49.5 -115.5t-138.5 -45.5q-104 0 -203 57l34 111q92 -60 171 -60q25 0 39 10t14 27q0 15 -11.5 25t-45.5 26q-80 37 -112 69t-32 88q0 70 48.5 113.5 t130.5 43.5q89 0 174 -45zM123 694h92l57 -58l80 58h89l-117 -147h-128z"/>
<glyph glyph-name="Ydieresis" horiz-adv-x="631" unicode="Ÿ" d="M356 739h-120l20 131h122zM540 739h-121l21 131h121zM703 690l-305 -437l-41 -253h-170l40 250l-160 419l177 28l97 -282l178 275h184z"/>
<glyph glyph-name="circumflex" horiz-adv-x="423" unicode="ˆ" d="M421 547h-92l-58 58l-79 -58h-89l117 147h127z"/>
<glyph glyph-name="tilde" horiz-adv-x="423" unicode="˜" d="M435 686q-18 -76 -42.5 -107.5t-62.5 -31.5q-23 0 -63 20q-42 21 -57 21q-21 0 -37 -44l-68 15q18 77 43 108.5t63 31.5q28 0 63 -20q41 -21 57 -21q11 0 19 9.5t18 35.5z"/>
<glyph glyph-name="uni0391" horiz-adv-x="663" unicode="Α" d="M372 514l-109 -238h142zM444 -7l-22 150h-217l-65 -143h-166l347 693h173l121 -670z"/>
<glyph glyph-name="uni0392" horiz-adv-x="578" unicode="Β" d="M380 218q0 84 -108 84h-40l-30 -185h53q56 0 90.5 26.5t34.5 74.5zM406 502q0 70 -87 70h-45l-25 -161h46q48 0 79.5 24t31.5 67zM563 529q0 -116 -120 -165q99 -44 99 -144q0 -105 -77 -162.5t-209 -57.5h-234l109 690h211q107 0 164 -42.5t57 -118.5z"/>
<glyph glyph-name="uni0393" horiz-adv-x="489" unicode="Γ" d="M131 690h385v-148h-239l-85 -542h-170z"/>
<glyph glyph-name="uni0394" horiz-adv-x="673" unicode="Δ" d="M375 519l-197 -387h270zM588 0h-578v122l306 571h184l122 -566z"/>
<glyph glyph-name="uni0395" horiz-adv-x="512" unicode="Ε" d="M541 690l-21 -138h-243l-20 -127h182v-137h-204l-24 -150h251l-22 -138h-418l109 690h410z"/>
<glyph glyph-name="uni0396" horiz-adv-x="576" unicode="Ζ" d="M609 690l-19 -123l-366 -432h287v-135h-517l20 123l365 432h-262v135h492z"/>
<glyph glyph-name="uni0397" horiz-adv-x="675" unicode="Η" d="M684 690l-109 -690h-170l45 280h-214l-44 -280h-170l109 690h170l-42 -261h215l40 261h170z"/>
<glyph glyph-name="uni0398" horiz-adv-x="690" unicode="Θ" d="M328 110q55 0 95 42q36 35 59.5 106.5t23.5 157.5q0 164 -116 164q-52 0 -96 -42q-35 -36 -58.5 -106.5t-23.5 -157.5q0 -164 116 -164zM327 -13q-131 0 -205 80t-74 223q0 96 31 181t89 142q88 90 222 90q131 0 205 -80t74 -223q0 -96 -31 -181t-88 -142 q-90 -90 -223 -90zM441 280h-185l21 130h185z"/>
<glyph glyph-name="uni0399" horiz-adv-x="298" unicode="Ι" d="M304 690l-109 -690h-170l109 690h170z"/>
<glyph glyph-name="uni039A" horiz-adv-x="619" unicode="Κ" d="M677 690l-272 -333l175 -335l-177 -29l-162 327l-49 -320h-170l109 690h170l-48 -295l229 295h195z"/>
<glyph glyph-name="uni039B" horiz-adv-x="656" unicode="Λ" d="M484 693l124 -670l-178 -30l-70 480l-218 -473h-168l350 693h160z"/>
<glyph glyph-name="uni039C" horiz-adv-x="866" unicode="Μ" d="M841 690l-59 -690h-172l42 453l-195 -456h-154l-49 456l-102 -453h-146l160 690h215l52 -465l200 465h208z"/>
<glyph glyph-name="uni039D" horiz-adv-x="667" unicode="Ν" d="M676 690l-109 -690h-135l-188 417l-67 -417h-155l109 690h160l170 -381l60 381h155z"/>
<glyph glyph-name="uni039E" horiz-adv-x="557" unicode="Ξ" d="M563 551h-471l22 139h471zM492 286h-405l22 140h383v-140zM486 0h-491l22 139h491z"/>
<glyph glyph-name="uni039F" horiz-adv-x="690" unicode="Ο" d="M330 116q47 0 86 39q35 35 58 106t23 155q0 158 -109 158q-48 0 -87 -39q-34 -33 -57 -105t-23 -156q0 -158 109 -158zM327 -13q-131 0 -205 80t-74 223q0 96 31 181t89 142q88 90 222 90q131 0 205 -80t74 -223q0 -96 -31 -181t-88 -142q-90 -90 -223 -90z"/>
<glyph glyph-name="uni03A0" horiz-adv-x="672" unicode="Π" d="M681 690l-109 -690h-169l86 548h-210l-87 -548h-170l109 690h550z"/>
<glyph glyph-name="uni03A1" horiz-adv-x="562" unicode="Ρ" d="M411 478q0 88 -103 88h-30l-32 -210h32q63 0 98 32t35 90zM576 484q0 -115 -81.5 -184t-223.5 -69h-44l-36 -231h-169l109 690h192q253 0 253 -206z"/>
<glyph glyph-name="uni03A3" horiz-adv-x="568" unicode="Σ" d="M244 360l-150 206l19 124h490l-22 -135h-288l147 -204l-212 -216h277v-135h-510l19 123z"/>
<glyph glyph-name="uni03A4" horiz-adv-x="585" unicode="Τ" d="M620 548h-195l-86 -548h-170l87 548h-190l23 142h531v-142z"/>
<glyph glyph-name="uni03A5" horiz-adv-x="631" unicode="Υ" d="M703 690l-305 -437l-41 -253h-170l40 250l-160 419l177 28l97 -282l178 275h184z"/>
<glyph glyph-name="uni03A6" horiz-adv-x="862" unicode="Φ" d="M204 324q0 -120 137 -137l51 317q-88 -9 -138 -60t-50 -120zM690 367q0 59 -35.5 94t-103.5 42l-51 -317q88 9 139 60t51 121zM474 -11h-167l11 77q-137 15 -208 82t-71 171q0 131 100 215.5t268 93.5l11 73h168l-12 -76q137 -15 208.5 -82t71.5 -170q0 -132 -100.5 -217 t-267.5 -93z"/>
<glyph glyph-name="uni03A7" horiz-adv-x="621" unicode="Χ" d="M666 690l-240 -329l154 -339l-178 -29l-94 234l-155 -227h-185l265 361l-138 307l177 29l78 -201l131 194h185z"/>
<glyph glyph-name="uni03A8" horiz-adv-x="814" unicode="Ψ" d="M396 690h161l-59 -374q113 5 130 113l42 261h164l-43 -279q-36 -227 -311 -236l-27 -175h-169l27 176q-115 7 -175.5 60t-60.5 140q0 31 7 72l37 242h165l-39 -246q-5 -33 -5 -50q0 -36 25.5 -56t71.5 -22z"/>
<glyph glyph-name="uni03B1" horiz-adv-x="607" unicode="α" d="M216 110q25 0 47 25.5t57 95.5l9 17v3q-15 79 -27.5 103.5t-37.5 24.5q-36 0 -65.5 -55.5t-29.5 -132.5q0 -81 47 -81zM269 499q112 0 146 -117l56 108h147l-142 -261l14 -77q7 -40 41 -40q17 0 41 7l-34 -114q-32 -12 -70 -12q-49 0 -74 25.5t-37 82.5 q-38 -60 -78 -85.5t-94 -25.5q-79 0 -120 51.5t-41 144.5q0 133 68.5 223t176.5 90z"/>
<glyph glyph-name="uni03B2" horiz-adv-x="557" unicode="β" d="M283 302v90q58 20 90 55.5t32 78.5q0 31 -18 51t-50 20q-85 0 -106 -135l-48 -306q54 -45 107 -45q38 0 61.5 23t23.5 61q0 36 -22 60.5t-70 46.5zM311 -10q-79 0 -147 43l-31 -196l-149 -23l104 664q18 116 82.5 177.5t170.5 61.5q94 0 150 -53t56 -133 q0 -133 -140 -187q113 -51 113 -162q0 -84 -59 -138t-150 -54z"/>
<glyph glyph-name="uni03B3" horiz-adv-x="489" unicode="γ" d="M517 490l-49 -97q-122 -245 -158 -328.5t-50 -166.5l-9 -58l-151 -26l10 70q8 56 8 104q0 106 -58 402l-17 86l152 21l12 -74q23 -156 23 -265v-21q32 108 114 288l30 65h143z"/>
<glyph glyph-name="uni03B4" horiz-adv-x="510" unicode="δ" d="M337 241q0 75 -58 129q-110 -53 -110 -167q0 -46 19.5 -72t53.5 -26q41 0 68 38t27 98zM143 564q0 70 48 111.5t132 41.5q96 0 185 -46l-21 -123q-93 53 -153 53q-52 0 -52 -37q0 -16 11.5 -31t53.5 -49q73 -59 103 -112.5t30 -126.5q0 -112 -67 -183.5t-175 -71.5 q-102 0 -158 58.5t-56 149.5q0 173 175 248q-56 53 -56 118z"/>
<glyph glyph-name="uni03B5" horiz-adv-x="469" unicode="ε" d="M358 299v-100h-112q-42 0 -63.5 -14.5t-21.5 -37.5q0 -42 64 -42q77 0 182 44v-118q-100 -41 -206 -41q-89 0 -137 36t-48 97q0 92 104 131q-59 25 -59 96q0 67 55.5 108t154.5 41q100 0 193 -40l-36 -110q-87 37 -155 37q-37 0 -56 -12.5t-19 -33.5q0 -41 67 -41h93z "/>
<glyph glyph-name="uni03B6" horiz-adv-x="454" unicode="ζ" d="M18 167q0 58 31.5 110t111.5 137l170 184h-215l34 116h344v-101l-232 -269q-54 -63 -74 -93.5t-19 -55.5q0 -28 21 -43t83 -35q78 -26 102.5 -45.5t24.5 -56.5q0 -39 -25.5 -85t-84.5 -116l-127 16q50 73 65.5 99t15.5 41q0 11 -8.5 17t-32.5 13q-104 31 -144.5 67.5 t-40.5 99.5z"/>
<glyph glyph-name="uni03B7" d="M491 391q0 -18 -4 -46l-81 -508l-150 -23l77 489q3 27 3 32q0 34 -31 34t-96 -62l-48 -307h-147l58 367v123h138l6 -90q49 48 89.5 74t85.5 26q48 0 74 -29.5t26 -79.5z" unicode="η"/>
<glyph glyph-name="uni03B8" horiz-adv-x="588" unicode="θ" d="M269 568q-45 -48 -66 -152h224v21q0 166 -87 166q-39 0 -71 -35zM276 104q39 0 71 35q46 51 67 157h-225v-27q0 -165 87 -165zM269 -10q-110 0 -164.5 77.5t-54.5 222.5q0 104 32 200.5t88 152.5q76 74 177 74q110 0 164.5 -77.5t54.5 -222.5q0 -104 -32 -200.5 t-88 -152.5q-76 -74 -177 -74z"/>
<glyph glyph-name="uni03B9" horiz-adv-x="289" unicode="ι" d="M240 9q-43 -16 -91 -16q-119 0 -119 111q0 31 7 73l52 313h147l-54 -326q-3 -17 -3 -32q0 -24 27 -24q16 0 34 6v-105z"/>
<glyph glyph-name="uni03BA" horiz-adv-x="497" unicode="κ" d="M90 490h147l-35 -209l70 87q57 73 100.5 100.5t114.5 27.5h9v-133q-38 -1 -63.5 -17.5t-60.5 -57.5l-38 -43l116 -228l-148 -24l-109 233l-34 -226h-147z"/>
<glyph glyph-name="uni03BB" horiz-adv-x="501" unicode="λ" d="M302 -8l-37 310l-135 -302h-146l244 489l1 4l-4 30q-7 38 -23 54.5t-46 16.5q-15 0 -43 -6l18 119q32 9 65 9q78 0 114 -39.5t53 -139.5l89 -524z"/>
<glyph glyph-name="uni03BC" horiz-adv-x="563" unicode="μ" d="M130 -163l-147 -23l107 676h147l-48 -304q-3 -24 -3 -31q0 -34 31 -34q32 0 95 62l49 307h147l-52 -326q-4 -22 -4 -32q0 -24 27 -24q17 0 35 6v-105q-43 -16 -95 -16q-91 0 -109 77v1l-1 1q-64 -82 -119 -82h-2q-35 1 -56 29q6 -42 6 -83q0 -32 -3 -59z"/>
<glyph glyph-name="uni03BD" horiz-adv-x="499" unicode="ν" d="M337 490h150q1 -145 -48.5 -252t-164.5 -240h-147l-82 478l153 21l42 -342q54 72 75.5 149t21.5 186z"/>
<glyph glyph-name="uni03BE" horiz-adv-x="472" unicode="ξ" d="M410 13q0 -36 -26 -82t-84 -117l-128 16q50 72 65.5 98.5t15.5 40.5q0 13 -8 18.5t-35 14.5q-4 2 -7 3q-105 36 -144 71t-39 102q0 68 45 115t127 71q-78 30 -78 103q0 82 102 131h-115l35 116h367v-115h-34q-101 0 -154.5 -32t-53.5 -81q0 -72 107 -72h54v-115h-79 q-83 0 -129.5 -27.5t-46.5 -68.5q0 -28 21.5 -44.5t89.5 -38.5q79 -25 105.5 -46t26.5 -61z"/>
<glyph glyph-name="uni03BF" horiz-adv-x="507" unicode="ο" d="M334 283q0 100 -63 100q-44 0 -71 -54t-27 -122q0 -100 62 -100q45 0 72 53.5t27 122.5zM479 283q0 -125 -69 -209t-181 -84q-96 0 -149 59.5t-53 156.5q0 126 69.5 210t181.5 84q94 0 147.5 -59.5t53.5 -157.5z"/>
<glyph glyph-name="uni03C0" horiz-adv-x="599" unicode="π" d="M533 8q-44 -14 -90 -14q-116 0 -116 104q0 21 5 61l34 215h-105l-58 -374h-147l58 371h-66v119h559l-19 -119h-76l-32 -207q-3 -18 -3 -30q0 -26 26 -26q10 0 30 4v-104z"/>
<glyph glyph-name="uni03C1" horiz-adv-x="512" unicode="ρ" d="M191 252l-20 -129q22 -11 46 -11q53 0 87.5 50t34.5 123q0 87 -59 87q-69 0 -89 -120zM-23 -186l71 447q18 111 78 175t158 64q99 0 150 -59t51 -155q0 -124 -69.5 -206.5t-181.5 -82.5q-41 0 -81 15l-26 -175z"/>
<glyph glyph-name="uni03C2" horiz-adv-x="435" unicode="ς" d="M171 13q-78 37 -111 79t-33 120q0 118 66.5 203t185.5 85q82 0 154 -45l-42 -124q-54 41 -101 41q-50 0 -82.5 -43.5t-32.5 -102.5q0 -40 19 -63t70 -48q56 -28 77 -49t21 -53q0 -37 -26 -82.5t-85 -116.5l-127 16q49 71 65.5 100.5t16.5 46.5q0 22 -35 36z"/>
<glyph glyph-name="uni03C3" horiz-adv-x="522" unicode="σ" d="M331 264q0 66 -22 116h-1q-62 0 -98.5 -50t-36.5 -127q0 -47 17.5 -71.5t45.5 -24.5q43 0 69 45t26 112zM513 371h-75q36 -58 36 -135q0 -98 -68 -172t-175 -74q-95 0 -149.5 59.5t-54.5 155.5q0 127 76 206t202 79h208v-119z"/>
<glyph glyph-name="uni03C4" horiz-adv-x="469" unicode="τ" d="M458 371h-146l-29 -185q-4 -28 -4 -40q0 -37 37 -37q28 0 73 15v-110q-58 -21 -123 -21q-66 0 -101.5 31.5t-35.5 89.5q0 22 7 68l30 189h-132l19 119h405v-119z"/>
<glyph glyph-name="uni03C5" horiz-adv-x="512" unicode="υ" d="M456 184q-32 -194 -228 -194q-90 0 -141 44t-51 119q0 28 8 78l40 259h147l-44 -282q-3 -24 -3 -39q0 -26 13.5 -41.5t39.5 -15.5q61 0 74 87l45 291h147z"/>
<glyph glyph-name="uni03C6" horiz-adv-x="690" unicode="φ" d="M421 300l-32 -193q65 6 105 61.5t40 147.5q0 36 -13 54.5t-35 18.5q-52 0 -65 -89zM203 -186l29 181q-97 9 -150.5 66t-53.5 153q0 149 132 285l138 -26q-68 -71 -99 -130.5t-31 -120.5q0 -103 85 -114l31 200q14 89 66 140.5t137 51.5t134 -51t49 -141 q0 -136 -83.5 -221.5t-212.5 -92.5l-24 -158z"/>
<glyph glyph-name="uni03C7" horiz-adv-x="504" unicode="χ" d="M529 490l-206 -313l119 -341l-155 -19l-69 235l-141 -228h-145l227 344l-108 310l154 19l59 -203l119 196h146z"/>
<glyph glyph-name="uni03C8" horiz-adv-x="732" unicode="ψ" d="M373 -164l-149 -22l29 181q-107 5 -160 52.5t-53 129.5q0 23 7 76l38 237h145l-39 -247q-5 -37 -5 -50q0 -38 20 -57t67 -22l93 586l146 22l-97 -608q54 2 83 30t39 85l41 261h144l-42 -271q-18 -112 -86 -167.5t-196 -57.5z"/>
<glyph glyph-name="uni0400" horiz-adv-x="512" unicode="Ѐ" d="M395 741h-93l-128 121l183 30zM541 690l-21 -138h-243l-20 -127h182v-137h-204l-24 -150h251l-22 -138h-418l109 690h410z"/>
<glyph glyph-name="uni0401" horiz-adv-x="512" unicode="Ё" d="M541 690l-21 -138h-243l-20 -127h182v-137h-204l-24 -150h251l-22 -138h-418l109 690h410zM311 742h-120l20 131h122zM495 742h-121l21 131h121z"/>
<glyph glyph-name="uni0402" horiz-adv-x="752" unicode="Ђ" d="M442 -7v126q117 13 117 95q0 74 -93 74q-37 0 -85 -10l-43 -278h-170l86 548h-188l23 142h531v-142h-196l-21 -133q51 10 103 10q100 0 158 -52t58 -144q0 -110 -73.5 -172t-206.5 -64z"/>
<glyph glyph-name="uni0403" horiz-adv-x="489" unicode="Ѓ" d="M131 690h385v-148h-239l-85 -542h-170zM521 862l-156 -121h-94l81 151z"/>
<glyph glyph-name="uni0404" horiz-adv-x="587" unicode="Є" d="M604 647l-44 -142q-70 56 -144 56q-68 0 -115.5 -39.5t-69.5 -105.5l234 2v-134l-250 3q1 -79 39.5 -118t104.5 -39q76 0 159 46v-145q-84 -42 -181 -42q-137 0 -213 79.5t-76 226.5q0 178 101 292.5t263 114.5q113 0 192 -55z"/>
<glyph glyph-name="uni0405" horiz-adv-x="536" unicode="Ѕ" d="M536 642l-46 -135q-99 65 -170 65q-36 0 -54.5 -17.5t-18.5 -44.5q0 -23 15.5 -39.5t59.5 -40.5q100 -54 138.5 -101t38.5 -110q0 -109 -69.5 -169.5t-181.5 -60.5q-128 0 -247 68l47 135q111 -74 200 -74q39 0 63.5 20.5t24.5 52.5q0 25 -14 41t-54 38 q-107 57 -145.5 101.5t-38.5 114.5q0 93 65 154t174 61q114 0 213 -59z"/>
<glyph glyph-name="uni0406" horiz-adv-x="298" unicode="І" d="M304 690l-109 -690h-170l109 690h170z"/>
<glyph glyph-name="uni0407" horiz-adv-x="298" unicode="Ї" d="M195 742h-120l20 131h122zM379 742h-121l21 131h121zM304 690l-109 -690h-170l109 690h170z"/>
<glyph glyph-name="uni0408" horiz-adv-x="421" unicode="Ј" d="M434 690l-75 -477q-19 -118 -81.5 -168.5t-173.5 -50.5q-57 0 -103 8v145q42 -10 84 -10q45 0 72.5 23t36.5 82l71 448h169z"/>
<glyph glyph-name="uni0409" horiz-adv-x="982" unicode="Љ" d="M790 247q0 91 -104 91h-29l-33 -214h31q61 0 98 33t37 90zM715 690l-37 -228h24q124 0 189 -52t65 -152q0 -121 -84.5 -189.5t-230.5 -68.5h-204l87 551h-121l-62 -220q-51 -181 -123.5 -256t-219.5 -88v145q78 14 116 65.5t75 182.5l87 310h439z"/>
<glyph glyph-name="uni040A" horiz-adv-x="940" unicode="Њ" d="M749 247q0 91 -104 91h-29l-33 -214h31q61 0 98 33t37 90zM673 690l-36 -228h24q124 0 189 -52t65 -152q0 -121 -84.5 -189.5t-230.5 -68.5h-204l44 280h-204l-44 -280h-170l109 690h170l-42 -261h204l42 261h168z"/>
<glyph glyph-name="uni040B" horiz-adv-x="765" unicode="Ћ" d="M620 548h-197l-21 -130q53 7 88 7q106 0 164.5 -46t58.5 -140q0 -28 -7 -82l-25 -157h-168l25 159q5 40 5 52q0 68 -95 68q-34 0 -67 -6l-43 -273h-170l86 548h-188l23 142h531v-142z"/>
<glyph glyph-name="uni040C" horiz-adv-x="619" unicode="Ќ" d="M677 690l-272 -333l175 -335l-177 -29l-162 327l-49 -320h-170l109 690h170l-48 -295l229 295h195zM594 859l-156 -121h-94l81 151z"/>
<glyph glyph-name="uni040D" horiz-adv-x="680" unicode="Ѝ" d="M22 0l109 690h158l-63 -399l292 399h171l-109 -690h-158l66 420l-310 -420h-156zM469 738h-93l-128 121l183 30z"/>
<glyph glyph-name="uni040E" horiz-adv-x="637" unicode="Ў" d="M579 873q-34 -136 -161 -136q-65 0 -98 35.5t-32 100.5l79 14q9 -57 59 -57q48 0 76 57zM56 133q129 1 185 75l-153 465l174 24l91 -324l169 317h185l-287 -480q-71 -121 -156 -170t-208 -50v143z"/>
<glyph glyph-name="uni040F" horiz-adv-x="672" unicode="Џ" d="M22 0l109 690h170l-87 -548h211l87 548h169l-109 -690h-196l-24 -143l-164 -19l28 162h-194z"/>
<glyph glyph-name="uni0410" horiz-adv-x="663" unicode="А" d="M372 514l-109 -238h142zM444 -7l-22 150h-217l-65 -143h-166l347 693h173l121 -670z"/>
<glyph glyph-name="uni0411" horiz-adv-x="563" unicode="Б" d="M369 226q0 76 -98 76h-40l-29 -180h40q58 0 92.5 27.5t34.5 76.5zM131 690h406v-143h-268l-18 -119h37q122 0 182.5 -48.5t60.5 -137.5q0 -112 -77 -177t-218 -65h-214z"/>
<glyph glyph-name="uni0412" horiz-adv-x="578" unicode="В" d="M380 218q0 84 -108 84h-40l-30 -185h53q56 0 90.5 26.5t34.5 74.5zM406 502q0 70 -87 70h-45l-25 -161h46q48 0 79.5 24t31.5 67zM563 529q0 -116 -120 -165q99 -44 99 -144q0 -105 -77 -162.5t-209 -57.5h-234l109 690h211q107 0 164 -42.5t57 -118.5z"/>
<glyph glyph-name="uni0413" horiz-adv-x="489" unicode="Г" d="M131 690h385v-148h-239l-85 -542h-170z"/>
<glyph glyph-name="uni0414" horiz-adv-x="742" unicode="Д" d="M463 142l65 413h-111l-18 -69q-31 -114 -75.5 -193.5t-117.5 -150.5h257zM-46 -155l46 287q106 99 161.5 185.5t92.5 221.5l42 151h421l-85 -541h80l-47 -292l-164 -19l26 162h-388l-24 -155h-161z"/>
<glyph glyph-name="uni0415" horiz-adv-x="512" unicode="Е" d="M541 690l-21 -138h-243l-20 -127h182v-137h-204l-24 -150h251l-22 -138h-418l109 690h410z"/>
<glyph glyph-name="uni0416" horiz-adv-x="938" unicode="Ж" d="M92 669l168 28l153 -300l42 293h170l-52 -298l230 298h192l-271 -334l174 -335l-168 -28l-167 334l-47 -327h-170l56 328l-241 -328h-191l285 370z"/>
<glyph glyph-name="uni0417" horiz-adv-x="558" unicode="З" d="M553 532q0 -133 -149 -183q108 -37 108 -144q0 -101 -77 -159t-195 -58q-132 0 -239 60l43 133q101 -55 190 -55q54 0 86 24.5t32 63.5q0 74 -121 74h-78v130h98q67 0 102 22.5t35 60.5q0 64 -86 64t-197 -60v142q102 55 225 55q107 0 165 -45t58 -125z"/>
<glyph glyph-name="uni0418" horiz-adv-x="680" unicode="И" d="M22 0l109 690h158l-63 -399l292 399h171l-109 -690h-158l66 420l-310 -420h-156z"/>
<glyph glyph-name="uni0419" horiz-adv-x="680" unicode="Й" d="M583 873q-34 -136 -161 -136q-65 0 -98 35.5t-32 100.5l79 14q9 -57 59 -57q48 0 76 57zM22 0l109 690h158l-63 -399l292 399h171l-109 -690h-158l66 420l-310 -420h-156z"/>
<glyph glyph-name="uni041A" horiz-adv-x="619" unicode="К" d="M677 690l-272 -333l175 -335l-177 -29l-162 327l-49 -320h-170l109 690h170l-48 -295l229 295h195z"/>
<glyph glyph-name="uni041B" horiz-adv-x="707" unicode="Л" d="M716 690l-109 -690h-170l88 551h-122l-62 -220q-51 -183 -123 -258.5t-220 -85.5v145q78 14 116 65.5t75 182.5l87 310h440z"/>
<glyph glyph-name="uni041C" horiz-adv-x="866" unicode="М" d="M841 690l-59 -690h-172l42 453l-195 -456h-154l-49 456l-102 -453h-146l160 690h215l52 -465l200 465h208z"/>
<glyph glyph-name="uni041D" horiz-adv-x="675" unicode="Н" d="M684 690l-109 -690h-170l45 280h-214l-44 -280h-170l109 690h170l-42 -261h215l40 261h170z"/>
<glyph glyph-name="uni041E" horiz-adv-x="690" unicode="О" d="M330 116q47 0 86 39q35 35 58 106t23 155q0 158 -109 158q-48 0 -87 -39q-34 -33 -57 -105t-23 -156q0 -158 109 -158zM327 -13q-131 0 -205 80t-74 223q0 96 31 181t89 142q88 90 222 90q131 0 205 -80t74 -223q0 -96 -31 -181t-88 -142q-90 -90 -223 -90z"/>
<glyph glyph-name="uni041F" horiz-adv-x="672" unicode="П" d="M681 690l-109 -690h-169l86 548h-210l-87 -548h-170l109 690h550z"/>
<glyph glyph-name="uni0420" horiz-adv-x="562" unicode="Р" d="M411 478q0 88 -103 88h-30l-32 -210h32q63 0 98 32t35 90zM576 484q0 -115 -81.5 -184t-223.5 -69h-44l-36 -231h-169l109 690h192q253 0 253 -206z"/>
<glyph glyph-name="uni0421" horiz-adv-x="573" unicode="С" d="M592 647l-45 -144q-66 55 -135 55q-86 0 -140.5 -77t-54.5 -182q0 -84 38 -127t104 -43q70 0 146 43v-143q-75 -40 -176 -40q-130 0 -207 75.5t-77 217.5q0 185 104.5 302.5t258.5 117.5q104 0 184 -55z"/>
<glyph glyph-name="uni0422" horiz-adv-x="585" unicode="Т" d="M620 548h-195l-86 -548h-170l87 548h-190l23 142h531v-142z"/>
<glyph glyph-name="uni0423" horiz-adv-x="637" unicode="У" d="M56 133q129 1 185 75l-153 465l174 24l91 -324l169 317h185l-287 -480q-71 -121 -156 -170t-208 -50v143z"/>
<glyph glyph-name="uni0424" horiz-adv-x="862" unicode="Ф" d="M204 324q0 -120 137 -137l51 317q-88 -9 -138 -60t-50 -120zM690 367q0 59 -35.5 94t-103.5 42l-51 -317q88 9 139 60t51 121zM474 -11h-167l11 77q-137 15 -208 82t-71 171q0 131 100 215.5t268 93.5l11 73h168l-12 -76q137 -15 208.5 -82t71.5 -170q0 -132 -100.5 -217 t-267.5 -93z"/>
<glyph glyph-name="uni0425" horiz-adv-x="621" unicode="Х" d="M666 690l-240 -329l154 -339l-178 -29l-94 234l-155 -227h-185l265 361l-138 307l177 29l78 -201l131 194h185z"/>
<glyph glyph-name="uni0426" horiz-adv-x="703" unicode="Ц" d="M22 0l109 690h170l-87 -548h208l87 548h170l-86 -541h80l-46 -292l-164 -19l26 162h-467z"/>
<glyph glyph-name="uni0427" horiz-adv-x="619" unicode="Ч" d="M520 0h-170l35 219q-50 -5 -87 -5q-106 0 -164.5 45.5t-58.5 139.5q0 27 7 83l33 208h169l-34 -211q-5 -38 -5 -52q0 -68 95 -68q40 0 67 5l52 326h170z"/>
<glyph glyph-name="uni0428" horiz-adv-x="965" unicode="Ш" d="M213 141h168l87 549h169l-87 -549h168l87 549h169l-109 -690h-843l109 690h169z"/>
<glyph glyph-name="uni0429" horiz-adv-x="999" unicode="Щ" d="M213 141h168l87 549h169l-87 -549h168l87 549h169l-86 -541h80l-46 -292l-164 -19l26 162h-762l109 690h169z"/>
<glyph glyph-name="uni042A" horiz-adv-x="693" unicode="Ъ" d="M501 247q0 91 -104 91h-29l-33 -214h31q61 0 98 33t37 90zM426 690l-37 -228h24q124 0 189 -52t65 -152q0 -121 -84.5 -189.5t-230.5 -68.5h-204l86 548h-170l23 142h339z"/>
<glyph glyph-name="uni042B" horiz-adv-x="845" unicode="Ы" d="M375 249q0 89 -103 89h-30l-33 -214h31q61 0 98 33.5t37 91.5zM300 690l-37 -228h24q254 0 254 -208q0 -117 -84 -185.5t-228 -68.5h-207l109 690h169zM851 690l-109 -690h-170l109 690h170z"/>
<glyph glyph-name="uni042C" horiz-adv-x="567" unicode="Ь" d="M375 247q0 91 -104 91h-29l-33 -214h31q61 0 98 33t37 90zM300 690l-37 -228h24q124 0 189 -52t65 -152q0 -121 -84.5 -189.5t-230.5 -68.5h-204l109 690h169z"/>
<glyph glyph-name="uni042D" horiz-adv-x="587" unicode="Э" d="M152 284v134l246 -2q-4 72 -42.5 108t-103.5 36q-71 0 -149 -42v145q78 38 175 38q136 0 212.5 -79.5t76.5 -226.5q0 -189 -113 -305q-99 -102 -250 -102q-114 0 -201 59l45 141q76 -58 152 -58q70 0 118 42.5t68 113.5z"/>
<glyph glyph-name="uni042E" horiz-adv-x="957" unicode="Ю" d="M660 574q-44 0 -80 -36q-34 -34 -57.5 -107.5t-23.5 -158.5q0 -156 103 -156q44 0 80 36q34 34 58 107.5t24 158.5q0 156 -104 156zM595 -13q-122 0 -193 78t-73 214h-93l-44 -279h-170l109 690h170l-42 -262h87q29 113 101 186q89 89 221 89q125 0 196 -80t71 -222 q0 -96 -31 -182.5t-87 -142.5q-89 -89 -222 -89z"/>
<glyph glyph-name="uni042F" horiz-adv-x="604" unicode="Я" d="M251 447q0 -87 106 -87h39l31 201h-39q-63 0 -100 -30t-37 -84zM152 -7l-174 30l204 254q-95 51 -95 167q0 115 82.5 180.5t227.5 65.5h216l-109 -690h-167l39 237h-42z"/>
<glyph glyph-name="uni0430" horiz-adv-x="515" unicode="а" d="M305 173l32 201q-18 7 -35 7q-51 0 -90 -53.5t-39 -134.5q0 -73 47 -73q34 0 85 53zM299 76q-75 -86 -145 -86q-60 0 -94.5 45t-34.5 124q0 159 85.5 248t207.5 89q86 0 178 -35l-54 -338v-123h-138z"/>
<glyph glyph-name="uni0431" horiz-adv-x="521" unicode="б" d="M295 370q-40 0 -102 -40q-5 -42 -5 -109q0 -114 56 -114q43 0 71.5 55.5t29.5 128.5q0 79 -50 79zM485 722l18 -126l-142 -24q-69 -11 -99 -41q-28 -28 -46 -89q73 47 143 47q66 0 100 -45t34 -126q0 -144 -72 -236t-189 -92q-189 0 -189 246q0 119 31.5 225.5 t81.5 156.5q35 35 78 52t122 30z"/>
<glyph glyph-name="uni0432" horiz-adv-x="498" unicode="в" d="M256 289q39 0 62.5 16.5t23.5 46.5q0 49 -69 49q-31 0 -65 -8l-16 -104h64zM221 89q44 0 71 17.5t27 49.5q0 51 -75 51h-65l-18 -111q30 -7 60 -7zM14 21l72 452q106 27 199 27q89 -1 139 -35.5t51 -93.5q0 -44 -26.5 -77t-68.5 -49q77 -28 77 -101q0 -68 -64.5 -111 t-174.5 -43q-96 0 -204 31z"/>
<glyph glyph-name="uni0433" horiz-adv-x="432" unicode="г" d="M84 452q88 48 182 48q76 0 115 -35t39 -95q0 -68 -41 -107.5t-129 -69.5q-63 -21 -81 -34t-18 -32q0 -30 43 -30q67 0 176 60v-114q-98 -53 -199 -53q-80 0 -121.5 33.5t-41.5 97.5q0 62 40 101t130 72q62 24 81 37.5t19 32.5q0 27 -38 27q-54 0 -156 -51v112z"/>
<glyph glyph-name="uni0434" horiz-adv-x="519" unicode="д" d="M274 129q56 56 79 237q-29 14 -63 14q-38 0 -66 -31t-40.5 -74t-12.5 -88q0 -81 55 -81q27 0 48 23zM188 590l27 116q38 11 81 11q110 0 158 -58.5t48 -186.5q0 -129 -32.5 -241.5t-93.5 -173.5q-67 -67 -163 -67q-89 0 -137 55.5t-48 145.5q0 127 68.5 213.5t176.5 86.5 q48 0 87 -16v8q0 62 -22 91.5t-76 29.5q-35 0 -74 -14z"/>
<glyph glyph-name="uni0435" horiz-adv-x="478" unicode="е" d="M264 402q-32 0 -56 -29t-36 -76h148q2 20 2 27q0 78 -58 78zM262 96q71 0 154 44v-103q-92 -47 -182 -47q-94 0 -151.5 53t-57.5 152q0 131 73 218t181 87q82 0 128 -53t46 -142q0 -50 -12 -95h-279q0 -114 100 -114z"/>
<glyph glyph-name="uni0436" horiz-adv-x="733" unicode="ж" d="M127 0h-159l201 262l-117 213l145 22l106 -213l30 206h146l-37 -202l159 202h159l-194 -241l127 -234l-146 -22l-115 231l-32 -224h-147l40 224z"/>
<glyph glyph-name="uni0437" horiz-adv-x="466" unicode="з" d="M74 350v114q91 35 189 35q90 0 135.5 -33t45.5 -90q0 -92 -100 -129q75 -28 75 -102q0 -71 -57.5 -113t-161.5 -42q-105 0 -202 50l36 110q90 -46 162 -46q38 0 59 14t21 38q0 43 -67 43h-84v100h84q87 0 87 49q0 38 -58 38q-66 0 -164 -36z"/>
<glyph glyph-name="uni0438" d="M30 98q0 20 4 50l55 342h147l-48 -304q-4 -16 -4 -33q0 -32 31 -32t96 62l49 307h147l-59 -368v-122h-138l-6 89q-49 -48 -89 -73.5t-85 -25.5q-48 0 -74 29t-26 79z" unicode="и"/>
<glyph glyph-name="uni0439" d="M473 677q-34 -136 -161 -136q-65 0 -98 35.5t-32 100.5l79 14q9 -57 59 -57q48 0 76 57zM30 98q0 20 4 50l55 342h147l-48 -304q-4 -16 -4 -33q0 -32 31 -32t96 62l49 307h147l-59 -368v-122h-138l-6 89q-49 -48 -89 -73.5t-85 -25.5q-48 0 -74 29t-26 79z" unicode="й"/>
<glyph glyph-name="uni043A" horiz-adv-x="491" unicode="к" d="M304 -7l-111 232l-34 -225h-147l78 490h147l-36 -211l154 211h164l-187 -242l119 -230z"/>
<glyph glyph-name="uni043B" horiz-adv-x="573" unicode="л" d="M-4 -10v119q48 4 70 24.5t43 72.5l48 116q38 91 90 133.5t147 42.5q82 0 164 -30l-75 -468h-147l60 375q-18 3 -21 3q-26 0 -43.5 -17t-35.5 -60l-57 -139q-39 -98 -90 -134.5t-153 -37.5z"/>
<glyph glyph-name="uni043C" horiz-adv-x="731" unicode="м" d="M654 0h-144l39 360l-155 -361h-150l-44 361l-73 -360h-127l109 490h206l37 -321l139 321h208z"/>
<glyph glyph-name="uni043D" horiz-adv-x="527" unicode="н" d="M290 0l30 191h-131l-30 -191h-147l78 490h147l-28 -180h131l28 180h147l-78 -490h-147z"/>
<glyph glyph-name="uni043E" horiz-adv-x="507" unicode="о" d="M334 283q0 100 -63 100q-44 0 -71 -54t-27 -122q0 -100 62 -100q45 0 72 53.5t27 122.5zM479 283q0 -125 -69 -209t-181 -84q-96 0 -149 59.5t-53 156.5q0 126 69.5 210t181.5 84q94 0 147.5 -59.5t53.5 -157.5z"/>
<glyph glyph-name="uni043F" d="M491 391q0 -10 -5 -50l-55 -341h-146l48 303q3 27 3 34q0 14 -8.5 23t-22.5 9q-31 0 -96 -62l-48 -307h-147l58 367v123h138l6 -90q49 48 89.5 74t85.5 26q48 0 74 -29.5t26 -79.5z" unicode="п"/>
<glyph glyph-name="uni0440" horiz-adv-x="516" unicode="р" d="M177 116q21 -7 41 -7q53 0 89 50t36 138q0 73 -50 73q-34 0 -83 -49zM-16 -186l88 553v123h138l5 -73q40 41 73 62t71 21q60 0 96.5 -47t36.5 -129q0 -154 -79.5 -241t-192.5 -87q-26 0 -61 7l-24 -166z"/>
<glyph glyph-name="uni0441" horiz-adv-x="423" unicode="с" d="M426 464l-38 -121q-44 29 -87 29q-55 0 -90.5 -46.5t-35.5 -111.5q0 -51 24.5 -76t67.5 -25q39 0 95 27v-120q-56 -29 -127 -29q-100 0 -154.5 55.5t-54.5 155.5q0 126 74.5 212t190.5 86q74 0 135 -36z"/>
<glyph glyph-name="uni0442" horiz-adv-x="783" unicode="т" d="M753 391q0 -23 -5 -50l-54 -341h-147l49 303q3 30 3 34q0 32 -28 32q-33 0 -95 -63l-49 -306h-147l48 303q4 20 4 34q0 32 -29 32q-32 0 -94 -63l-48 -306h-147l58 367v123h139l5 -90q102 100 173 100q46 0 70.5 -27.5t25.5 -69.5q97 97 170 97q47 0 72.5 -29.5 t25.5 -79.5z"/>
<glyph glyph-name="uni0443" horiz-adv-x="483" unicode="у" d="M511 490l-245 -504q-46 -96 -93.5 -132t-130.5 -36q-31 0 -55 6v120q30 -7 57 -7q51 0 80 46l10 19l-87 474l153 21l39 -309l129 302h143z"/>
<glyph glyph-name="uni0444" horiz-adv-x="730" unicode="ф" d="M510 376q-25 0 -57 -28l-35 -226q15 -11 37 -11q41 0 72 50.5t31 128.5q0 41 -13 63.5t-35 22.5zM221 114q26 0 60 31l35 220q-18 14 -41 14q-41 0 -72 -50.5t-31 -128.5q0 -86 49 -86zM486 539l-14 -85q54 45 104 45q56 0 92 -50t36 -144q0 -131 -64 -221.5t-151 -90.5 q-47 0 -83 33l-6 -41q-13 -90 -55 -128.5t-126 -38.5q-31 0 -54 5v108q18 -4 31 -4q47 0 56 54l9 58q-55 -48 -106 -48q-56 0 -92.5 49.5t-36.5 144.5q0 131 64 221t151 90q49 0 87 -37l16 100q13 77 54.5 117.5t125.5 40.5q40 0 77 -7v-114q-27 6 -48 6q-58 0 -67 -63z"/>
<glyph glyph-name="uni0445" horiz-adv-x="479" unicode="х" d="M497 490l-173 -240l105 -238l-144 -19l-60 155l-97 -148h-155l182 251l-97 227l144 19l53 -145l88 138h154z"/>
<glyph glyph-name="uni0446" horiz-adv-x="543" unicode="ц" d="M335 -152l24 152h-68l14 89q-48 -48 -89 -73.5t-86 -25.5q-48 0 -74 29t-26 79q0 20 4 50l55 342h147l-48 -304q-4 -16 -4 -33q0 -32 31 -32t96 62l49 307h147l-58 -367h64l-41 -257z"/>
<glyph glyph-name="uni0447" horiz-adv-x="500" unicode="ч" d="M76 490h147l-23 -145q-4 -24 -4 -38q0 -48 63 -48q25 0 46 4l36 227h146l-78 -490h-147l23 137q-31 -4 -70 -4q-78 0 -123 37t-45 107q0 38 6 70z"/>
<glyph glyph-name="uni0448" horiz-adv-x="783" unicode="ш" d="M29 98q0 23 5 50l54 341h147l-49 -303q-3 -30 -3 -34q0 -32 28 -32q33 0 95 63l49 306h147l-48 -303q-4 -20 -4 -34q0 -32 29 -32q32 0 94 63l48 306h147l-58 -367v-123h-139l-5 90q-102 -100 -173 -100q-46 0 -70.5 27.5t-25.5 69.5q-97 -97 -170 -97q-47 0 -72.5 29.5 t-25.5 79.5z"/>
<glyph glyph-name="uni0449" horiz-adv-x="806" unicode="щ" d="M597 -152l24 152h-68l14 89q-101 -99 -173 -99q-46 0 -70.5 27t-26.5 70q-95 -97 -169 -97q-48 0 -73 29t-25 80q0 19 4 49l55 342h147l-49 -304q-3 -27 -3 -33q0 -32 28 -32q35 0 95 63l48 306h147l-48 -304q-3 -27 -3 -33q0 -32 28 -32q35 0 95 63l48 306h147l-58 -367 h64l-41 -257z"/>
<glyph glyph-name="uni044A" horiz-adv-x="555" unicode="ъ" d="M388 185q0 29 -18 45.5t-53 16.5q-20 0 -38 -4l-24 -147q11 -4 30 -4q47 0 75 26.5t28 66.5zM98 21l55 347h-121l19 122h268l-24 -148q26 4 58 4q79 0 127 -39.5t48 -107.5q0 -95 -69.5 -152t-186.5 -57q-94 0 -174 31z"/>
<glyph glyph-name="uni044B" horiz-adv-x="716" unicode="ы" d="M701 490l-79 -490h-147l79 490h147zM306 185q0 29 -18 45.5t-52 16.5q-21 0 -39 -4l-24 -147q12 -4 31 -4q47 0 74.5 26.5t27.5 66.5zM16 21l74 469h147l-23 -148q24 4 58 4q78 0 126 -39.5t48 -107.5q0 -95 -69.5 -152t-186.5 -57q-94 0 -174 31z"/>
<glyph glyph-name="uni044C" horiz-adv-x="472" unicode="ь" d="M305 185q0 29 -18 45.5t-53 16.5q-20 0 -38 -4l-24 -147q11 -4 30 -4q47 0 75 26.5t28 66.5zM15 21l74 469h147l-24 -148q26 4 58 4q79 0 127 -39.5t48 -107.5q0 -95 -69.5 -152t-186.5 -57q-94 0 -174 31z"/>
<glyph glyph-name="uni044D" horiz-adv-x="453" unicode="э" d="M0 30l37 109q62 -34 108 -34t80 24t49 67l-173 -1v101l183 -3q-7 92 -99 92q-54 0 -116 -35v115q68 35 144 35q99 0 156.5 -56t57.5 -162q0 -129 -75.5 -210.5t-201.5 -81.5q-79 0 -150 40z"/>
<glyph glyph-name="uni044E" horiz-adv-x="729" unicode="ю" d="M557 284q0 99 -62 99q-43 0 -70 -54t-27 -123q0 -99 62 -99q43 0 70 54t27 123zM702 283q0 -125 -68.5 -209t-178.5 -84q-90 0 -141.5 55t-56.5 146h-68l-30 -191h-147l78 490h147l-28 -180h62q25 86 86.5 138t146.5 52q93 0 145.5 -59.5t52.5 -157.5z"/>
<glyph glyph-name="uni044F" horiz-adv-x="513" unicode="я" d="M320 248l22 141q-16 4 -30 4q-52 0 -81 -23t-29 -59q0 -63 75 -63h43zM-23 18l150 168q-65 42 -65 121q0 86 67 138.5t189 52.5q100 0 181 -28l-74 -470h-146l24 149h-44l-132 -157z"/>
<glyph glyph-name="uni0450" horiz-adv-x="478" unicode="ѐ" d="M264 402q-32 0 -56 -29t-36 -76h148q2 20 2 27q0 78 -58 78zM341 547h-93l-128 121l183 30zM262 96q71 0 154 44v-103q-92 -47 -182 -47q-94 0 -151.5 53t-57.5 152q0 131 73 218t181 87q82 0 128 -53t46 -142q0 -50 -12 -95h-279q0 -114 100 -114z"/>
<glyph glyph-name="uni0451" horiz-adv-x="478" unicode="ё" d="M264 402q-32 0 -56 -29t-36 -76h148q2 20 2 27q0 78 -58 78zM441 548h-121l21 131h121zM257 548h-120l20 131h122zM262 96q71 0 154 44v-103q-92 -47 -182 -47q-94 0 -151.5 53t-57.5 152q0 131 73 218t181 87q82 0 128 -53t46 -142q0 -50 -12 -95h-279q0 -114 100 -114z "/>
<glyph glyph-name="uni0452" horiz-adv-x="507" unicode="ђ" d="M380 519h-137l-16 -101q33 6 72 6q176 0 176 -167q0 -93 -41.5 -198.5t-128.5 -244.5l-139 23q85 147 122.5 238.5t37.5 158.5q0 34 -16 49t-50 15q-27 0 -54 -6l-45 -292h-147l82 519h-66v106h83l12 74l151 23l-16 -97h137z"/>
<glyph glyph-name="uni0453" horiz-adv-x="432" unicode="ѓ" d="M84 452q88 48 182 48q76 0 115 -35t39 -95q0 -68 -41 -107.5t-129 -69.5q-63 -21 -81 -34t-18 -32q0 -30 43 -30q67 0 176 60v-114q-98 -53 -199 -53q-80 0 -121.5 33.5t-41.5 97.5q0 62 40 101t130 72q62 24 81 37.5t19 32.5q0 27 -38 27q-54 0 -156 -51v112zM457 668 l-156 -121h-94l81 151z"/>
<glyph glyph-name="uni0454" horiz-adv-x="453" unicode="є" d="M451 461l-38 -109q-53 33 -104 33q-47 0 -81 -23.5t-49 -67.5l173 3v-102l-184 2q7 -92 100 -92q52 0 119 37v-115q-69 -37 -147 -37q-99 0 -156 55.5t-57 162.5q0 129 75 210.5t201 81.5q84 0 148 -39z"/>
<glyph glyph-name="uni0455" horiz-adv-x="421" unicode="ѕ" d="M404 455l-31 -110q-85 47 -145 47q-44 0 -44 -32q0 -14 9.5 -23t38.5 -22q86 -40 119.5 -73t33.5 -91q0 -70 -49.5 -115.5t-138.5 -45.5q-104 0 -203 57l34 111q92 -60 171 -60q25 0 39 10t14 27q0 15 -11.5 25t-45.5 26q-80 37 -112 69t-32 88q0 70 48.5 113.5 t130.5 43.5q89 0 174 -45z"/>
<glyph glyph-name="uni0456" horiz-adv-x="258" unicode="і" d="M242 490l-79 -490h-147l79 490h147zM278 636q0 -37 -24.5 -59.5t-61.5 -22.5t-62 22.5t-25 59.5t25 59.5t62 22.5t61.5 -22.5t24.5 -59.5z"/>
<glyph glyph-name="uni0457" horiz-adv-x="258" unicode="ї" d="M242 490l-79 -490h-147l79 490h147zM145 548h-120l20 131h122zM329 548h-121l21 131h121z"/>
<glyph glyph-name="uni0458" horiz-adv-x="258" unicode="ј" d="M241 490l-78 -499q-16 -94 -58 -133.5t-123 -39.5q-46 0 -66 6v124q14 -5 40 -5q28 0 42.5 16t19.5 51l76 480h147zM278 636q0 -37 -24.5 -59.5t-61.5 -22.5t-62 22.5t-25 59.5t25 59.5t62 22.5t61.5 -22.5t24.5 -59.5z"/>
<glyph glyph-name="uni0459" horiz-adv-x="796" unicode="љ" d="M628 185q0 29 -17.5 45.5t-51.5 16.5q-14 0 -38 -4l-23 -148q8 -3 29 -3q47 0 74 26.5t27 66.5zM-4 -10v119q48 4 70 24.5t43 72.5l48 116q38 91 90 133.5t147 42.5q81 0 163 -29l-20 -127q24 4 58 4q78 0 125.5 -39.5t47.5 -107.5q0 -96 -69 -152.5t-186 -56.5 q-91 0 -173 31l56 354q-18 3 -21 3q-26 0 -43.5 -17t-35.5 -60l-57 -139q-39 -98 -90 -134.5t-153 -37.5z"/>
<glyph glyph-name="uni045A" horiz-adv-x="746" unicode="њ" d="M471 243l-24 -147q12 -4 31 -4q46 0 73.5 26.5t27.5 66.5q0 29 -17.5 45.5t-51.5 16.5q-19 0 -39 -4zM290 21l27 170h-128l-30 -191h-147l78 490h147l-28 -180h127l29 180h146l-23 -148q26 4 57 4q78 0 126 -39.5t48 -107.5q0 -95 -69 -152t-186 -57q-92 0 -174 31z"/>
<glyph glyph-name="uni045B" horiz-adv-x="510" unicode="ћ" d="M380 519h-137l-16 -100q40 5 74 5q79 0 124 -36.5t45 -106.5q0 -29 -6 -71l-34 -210h-147l34 212q4 24 4 38q0 48 -64 48q-22 0 -50 -5l-46 -293h-147l82 519h-66v106h83l12 74l151 23l-16 -97h137z"/>
<glyph glyph-name="uni045C" horiz-adv-x="491" unicode="ќ" d="M497 668l-156 -121h-94l81 151zM304 -7l-111 232l-34 -225h-147l78 490h147l-36 -211l154 211h164l-187 -242l119 -230z"/>
<glyph glyph-name="uni045D" d="M357 547h-93l-128 121l183 30zM30 98q0 20 4 50l55 342h147l-48 -304q-4 -16 -4 -33q0 -32 31 -32t96 62l49 307h147l-59 -368v-122h-138l-6 89q-49 -48 -89 -73.5t-85 -25.5q-48 0 -74 29t-26 79z" unicode="ѝ"/>
<glyph glyph-name="uni045E" horiz-adv-x="483" unicode="ў" d="M458 682q-34 -136 -161 -136q-65 0 -98 35.5t-32 100.5l79 14q9 -57 59 -57q47 0 76 57zM511 490l-245 -504q-46 -96 -93.5 -132t-130.5 -36q-31 0 -55 6v120q30 -7 57 -7q51 0 80 46l10 19l-87 474l153 21l39 -309l129 302h143z"/>
<glyph glyph-name="uni045F" d="M30 98q0 20 4 50l55 342h147l-48 -304q-4 -16 -4 -33q0 -32 31 -32t96 62l49 307h147l-59 -368v-122h-138l-6 89q-49 -48 -89 -73.5t-85 -25.5q-48 0 -74 29t-26 79zM116 -186l41 147h111l-13 -130z" unicode="џ"/>
<glyph glyph-name="uni0462" horiz-adv-x="704" unicode="Ѣ" d="M503 215q0 69 -85 69h-58l-25 -160h60q49 0 78.5 25t29.5 66zM428 701l-14 -89h178v-119h-197l-14 -87h55q112 0 171 -46.5t59 -134.5q0 -104 -76 -164.5t-208 -60.5h-234l78 492h-170l20 120h169l14 89h169z"/>
<glyph glyph-name="uni0463" horiz-adv-x="742" unicode="ѣ" d="M505 247q-14 0 -38 -4l-23 -148q8 -3 29 -3q47 0 74 26.5t27 66.5q0 29 -17.5 45.5t-51.5 16.5zM390 500q47 0 72.5 -29t25.5 -78q0 -12 -1 -18q0 -9 -4 -33q24 4 58 4q78 0 125.5 -39.5t47.5 -107.5q0 -96 -69 -152.5t-186 -56.5q-91 0 -173 31l45 284q3 27 3 32 q0 15 -8 23.5t-21 8.5q-32 0 -95 -62l-49 -307h-147l59 367v123h138l6 -90q49 48 89 74t84 26z"/>
<glyph glyph-name="uni0472" horiz-adv-x="690" unicode="Ѳ" d="M290 537q-45 -45 -67 -126h287v2q0 168 -121 168q-57 0 -99 -44zM328 110q55 0 100 43q45 45 67 129h-288v-5q0 -167 121 -167zM327 -13q-131 0 -205 80t-74 223q0 96 31 181t89 142q88 90 222 90q131 0 205 -80t74 -223q0 -96 -31 -181t-88 -142q-90 -90 -223 -90z"/>
<glyph glyph-name="uni0473" horiz-adv-x="507" unicode="ѳ" d="M235 92q37 0 63 29.5t40 78.5h-180q1 -108 77 -108zM271 398q-36 0 -62.5 -31t-40.5 -80h181q-1 56 -22 83.5t-56 27.5zM479 283q0 -125 -69 -209t-181 -84q-96 0 -149 59.5t-53 156.5q0 126 69.5 210t181.5 84q94 0 147.5 -59.5t53.5 -157.5z"/>
<glyph glyph-name="uni0474" horiz-adv-x="668" unicode="Ѵ" d="M714 553q-48 -8 -76.5 -35.5t-64.5 -98.5l-212 -422h-159l-121 670l178 30l66 -480l116 258q54 124 110 173t163 53v-148z"/>
<glyph glyph-name="uni0475" horiz-adv-x="487" unicode="ѵ" d="M265 -2h-137l-83 478l153 21l35 -309l63 148q39 94 80.5 128.5t123.5 34.5h4v-128q-39 -4 -58.5 -21.5t-43.5 -66.5z"/>
<glyph glyph-name="uni0490" horiz-adv-x="508" unicode="Ґ" d="M526 542h-249l-85 -542h-170l109 690h266l22 129h153z"/>
<glyph glyph-name="uni0491" horiz-adv-x="402" unicode="ґ" d="M401 365h-184l-58 -365h-147l78 490h198l21 128h135z"/>
<glyph glyph-name="uni0492" horiz-adv-x="519" unicode="Ғ" d="M160 690h385v-148h-239l-30 -187h121l-11 -70h-121l-44 -285h-170l45 285h-70v70h81z"/>
<glyph glyph-name="uni0493" horiz-adv-x="421" unicode="ғ" d="M321 178h-106l-29 -178h-146l28 178h-63v66h74l39 246h308v-125h-181l-20 -121h106z"/>
<glyph glyph-name="uni0496" horiz-adv-x="972" unicode="Җ" d="M92 669l168 28l153 -300l42 293h170l-52 -298l230 298h192l-271 -334l107 -207h123l-46 -292l-163 -19l27 162h-45l-164 327l-47 -327h-170l56 328l-241 -328h-191l285 370z"/>
<glyph glyph-name="uni0497" horiz-adv-x="753" unicode="җ" d="M554 -152l25 152h-36l-111 224l-32 -224h-147l40 224l-166 -224h-159l201 262l-117 213l145 22l106 -213l30 206h146l-37 -202l159 202h159l-194 -241l68 -126h99l-41 -257z"/>
<glyph glyph-name="uni0498" horiz-adv-x="558" unicode="Ҙ" d="M553 532q0 -133 -149 -183q108 -37 108 -144q0 -87 -59 -143t-155 -70l-20 -135l-165 -19l33 158q-78 13 -145 52l43 133q101 -55 190 -55q54 0 86 24.5t32 63.5q0 74 -121 74h-78v130h98q67 0 102 22.5t35 60.5q0 64 -86 64t-197 -60v142q102 55 225 55q107 0 165 -45 t58 -125z"/>
<glyph glyph-name="uni0499" horiz-adv-x="466" unicode="ҙ" d="M74 350v114q91 35 189 35q90 0 135.5 -33t45.5 -90q0 -92 -100 -129q75 -28 75 -102q0 -61 -43 -101t-121 -50l-16 -128l-144 -18l29 148q-63 10 -126 44l36 110q90 -46 162 -46q38 0 59 14t21 38q0 43 -67 43h-84v100h84q87 0 87 49q0 38 -58 38q-66 0 -164 -36z"/>
<glyph glyph-name="uni049A" horiz-adv-x="643" unicode="Қ" d="M417 -162l26 162h-44l-158 320l-49 -320h-170l109 690h170l-48 -295l229 295h195l-272 -333l108 -208h112l-46 -292z"/>
<glyph glyph-name="uni049B" horiz-adv-x="510" unicode="қ" d="M300 0l-107 225l-34 -225h-147l78 490h147l-36 -211l154 211h164l-187 -242l64 -125h96l-41 -257l-138 -18l25 152h-38z"/>
<glyph glyph-name="uni049C" horiz-adv-x="677" unicode="Ҝ" d="M407 590l-24 -148l167 248h193l-246 -336l144 -333l-171 -28l-112 291l-24 -156h-65l25 157h-60l-44 -285h-168l109 690h168l-42 -259h60l25 159h65z"/>
<glyph glyph-name="uni049D" horiz-adv-x="559" unicode="ҝ" d="M274 80h-60l18 112h-45l-31 -192h-144l78 490h144l-28 -176h45l18 112h60l-18 -109l111 173h161l-165 -237l96 -239l-147 -21l-75 205z"/>
<glyph glyph-name="uni04A0" horiz-adv-x="745" unicode="Ҡ" d="M803 690l-272 -333l175 -335l-177 -29l-162 327l-49 -320h-170l86 548h-170l23 142h340l-48 -295l229 295h195z"/>
<glyph glyph-name="uni04A1" horiz-adv-x="574" unicode="ҡ" d="M387 -7l-111 232l-34 -225h-147l58 368h-121l19 122h269l-36 -211l154 211h164l-187 -242l119 -230z"/>
<glyph glyph-name="uni04A2" horiz-adv-x="704" unicode="Ң" d="M684 690l-86 -541h81l-47 -292l-164 -19l27 162h-90l45 280h-214l-44 -280h-170l109 690h170l-42 -261h215l40 261h170z"/>
<glyph glyph-name="uni04A3" horiz-adv-x="550" unicode="ң" d="M290 0l30 191h-131l-30 -191h-147l78 490h147l-28 -180h131l28 180h147l-59 -367h64l-41 -257l-138 -18l25 152h-76z"/>
<glyph glyph-name="uni04A4" horiz-adv-x="852" unicode="Ҥ" d="M504 690h375v-146h-228l-86 -544h-170l44 280h-203l-44 -280h-170l109 690h170l-42 -261h203z"/>
<glyph glyph-name="uni04A5" horiz-adv-x="666" unicode="ҥ" d="M287 0l30 191h-128l-30 -191h-147l78 490h147l-28 -180h128l28 180h305v-125h-178l-58 -365h-147z"/>
<glyph glyph-name="uni04AA" horiz-adv-x="573" unicode="Ҫ" d="M592 647l-45 -144q-66 55 -135 55q-86 0 -140.5 -77t-54.5 -182q0 -84 38 -127t104 -43q70 0 146 43v-143q-61 -33 -146 -39l-20 -133l-164 -19l36 170q-79 29 -122.5 98.5t-43.5 175.5q0 185 104.5 302.5t258.5 117.5q104 0 184 -55z"/>
<glyph glyph-name="uni04AB" horiz-adv-x="423" unicode="ҫ" d="M426 464l-38 -121q-44 29 -87 29q-55 0 -90.5 -46.5t-35.5 -111.5q0 -51 24.5 -76t67.5 -25q39 0 95 27v-120q-42 -22 -100 -28l-16 -126l-144 -18l32 162q-108 46 -108 192q0 126 74.5 212t190.5 86q74 0 135 -36z"/>
<glyph glyph-name="uni04AE" horiz-adv-x="631" unicode="Ү" d="M703 690l-305 -437l-41 -253h-170l40 250l-160 419l177 28l97 -282l178 275h184z"/>
<glyph glyph-name="uni04AF" horiz-adv-x="492" unicode="ү" d="M520 490l-239 -479l-27 -171l-151 -26l30 194l-88 468l153 21l43 -311l135 304h144z"/>
<glyph glyph-name="uni04B0" horiz-adv-x="631" unicode="Ұ" d="M513 144h-133l-23 -144h-170l23 144h-126l11 66h125l7 40l-160 419l177 28l97 -282l178 275h184l-306 -437l-7 -43h123v-66z"/>
<glyph glyph-name="uni04B1" horiz-adv-x="492" unicode="ұ" d="M520 490l-239 -479l-1 -7h105v-65h-116l-15 -99l-151 -26l19 125h-110l10 65h110l1 4l-88 468l153 21l43 -311l135 304h144z"/>
<glyph glyph-name="uni04B2" horiz-adv-x="649" unicode="Ҳ" d="M421 -162l27 162h-48l-92 228l-155 -228h-185l265 361l-138 307l177 29l78 -201l131 194h185l-240 -329l96 -212h108l-46 -292z"/>
<glyph glyph-name="uni04B3" horiz-adv-x="502" unicode="ҳ" d="M300 -152l24 152h-41l-58 149l-97 -149h-155l182 251l-97 227l144 19l53 -145l88 138h154l-173 -240l56 -127h98l-41 -257z"/>
<glyph glyph-name="uni04B6" horiz-adv-x="653" unicode="Ҷ" d="M402 -162l27 162h-79l35 219q-50 -5 -87 -5q-106 0 -164.5 45.5t-58.5 139.5q0 27 7 83l33 208h169l-34 -211q-5 -38 -5 -52q0 -68 95 -68q40 0 67 5l52 326h170l-86 -541h70l-47 -292z"/>
<glyph glyph-name="uni04B7" horiz-adv-x="525" unicode="ҷ" d="M76 490h147l-23 -145q-4 -24 -4 -38q0 -48 63 -48q25 0 46 4l36 227h146l-59 -367h66l-41 -257l-138 -18l25 152h-78l23 137q-31 -4 -70 -4q-78 0 -123 37t-45 107q0 38 6 70z"/>
<glyph glyph-name="uni04B8" horiz-adv-x="630" unicode="Ҹ" d="M378 518l-26 -159q29 0 66 5l51 326h170l-109 -690h-170l35 219q-55 -5 -63 -5l-23 -143h-64l23 144q-193 13 -193 184q0 27 7 83l33 208h169l-34 -211q-5 -38 -5 -52q0 -50 49 -63l24 154h60z"/>
<glyph glyph-name="uni04B9" horiz-adv-x="534" unicode="ҹ" d="M310 384l-20 -125h3q22 0 46 3l36 228h146l-78 -490h-147l23 137q-17 -2 -49 -4l-15 -97h-60l16 97q-77 1 -120.5 37.5t-43.5 106.5q0 38 6 70l23 143h147l-23 -145q-4 -24 -4 -38q0 -38 37 -46l20 123h57z"/>
<glyph glyph-name="uni04BA" horiz-adv-x="619" unicode="Һ" d="M130 690h170l-36 -220q45 6 88 6q106 0 164.5 -45.5t58.5 -139.5q0 -27 -7 -83l-33 -208h-169l34 211q5 38 5 52q0 68 -95 68q-34 0 -68 -6l-51 -325h-170z"/>
<glyph glyph-name="uni04BB" horiz-adv-x="519" unicode="һ" d="M489 391q0 -18 -4 -50l-55 -341h-147l48 303q4 18 4 34q0 14 -8.5 23t-22.5 9q-31 0 -96 -62l-49 -307h-147l112 699l150 23l-51 -313q47 45 84 68t82 23q48 0 74 -29.5t26 -79.5z"/>
<glyph glyph-name="uni04C0" horiz-adv-x="298" unicode="Ӏ" d="M304 690l-109 -690h-170l109 690h170z"/>
<glyph glyph-name="uni04C1" horiz-adv-x="938" unicode="Ӂ" d="M713 876q-34 -136 -161 -136q-65 0 -98 35.5t-32 100.5l79 14q9 -57 59 -57q48 0 76 57zM92 669l168 28l153 -300l42 293h170l-52 -298l230 298h192l-271 -334l174 -335l-168 -28l-167 334l-47 -327h-170l56 328l-241 -328h-191l285 370z"/>
<glyph glyph-name="uni04C2" horiz-adv-x="733" unicode="ӂ" d="M578 682q-34 -136 -161 -136q-65 0 -98 35.5t-32 100.5l79 14q9 -57 59 -57q47 0 76 57zM127 0h-159l201 262l-117 213l145 22l106 -213l30 206h146l-37 -202l159 202h159l-194 -241l127 -234l-146 -22l-115 231l-32 -224h-147l40 224z"/>
<glyph glyph-name="uni04CF" horiz-adv-x="258" unicode="ӏ" d="M278 722l-115 -722h-147l111 699z"/>
<glyph glyph-name="uni04D0" horiz-adv-x="663" unicode="Ӑ" d="M372 514l-109 -238h142zM580 886q-34 -136 -161 -136q-65 0 -98 35.5t-32 100.5l79 14q9 -57 59 -57q47 0 76 57zM444 -7l-22 150h-217l-65 -143h-166l347 693h173l121 -670z"/>
<glyph glyph-name="uni04D1" horiz-adv-x="515" unicode="ӑ" d="M487 682q-34 -136 -161 -136q-65 0 -98 35.5t-32 100.5l79 14q9 -57 59 -57q48 0 76 57zM305 173l32 201q-18 7 -35 7q-51 0 -90 -53.5t-39 -134.5q0 -73 47 -73q34 0 85 53zM299 76q-75 -86 -145 -86q-60 0 -94.5 45t-34.5 124q0 159 85.5 248t207.5 89q86 0 178 -35 l-54 -338v-123h-138z"/>
<glyph glyph-name="uni04D2" horiz-adv-x="663" unicode="Ӓ" d="M381 752h-120l20 131h122zM565 752h-121l21 131h121zM372 514l-109 -238h142zM444 -7l-22 150h-217l-65 -143h-166l347 693h173l121 -670z"/>
<glyph glyph-name="uni04D3" horiz-adv-x="515" unicode="ӓ" d="M289 548h-120l20 131h122zM473 548h-121l21 131h121zM305 173l32 201q-18 7 -35 7q-51 0 -90 -53.5t-39 -134.5q0 -73 47 -73q34 0 85 53zM299 76q-75 -86 -145 -86q-60 0 -94.5 45t-34.5 124q0 159 85.5 248t207.5 89q86 0 178 -35l-54 -338v-123h-138z"/>
<glyph glyph-name="uni04D4" horiz-adv-x="867" unicode="Ӕ" d="M295 276h136l47 296zM126 0h-167l445 690h492l-21 -138h-232l-20 -127h171v-137h-193l-24 -150h240l-22 -138h-407l22 143h-194z"/>
<glyph glyph-name="uni04D5" horiz-adv-x="749" unicode="ӕ" d="M591 297q1 9 1 26q0 79 -57 79q-31 0 -56 -28.5t-37 -76.5h149zM301 138q-6 23 -6 62q0 19 1 28q-136 -14 -136 -89q0 -43 44 -43q39 0 97 42zM723 312q0 -57 -12 -102h-278v-10q4 -104 99 -104q71 0 154 44v-103q-92 -47 -181 -47q-117 0 -171 75q-102 -75 -193 -75 q-57 0 -92.5 32t-35.5 92q0 172 294 187l3 16q2 16 2 21q0 49 -67 49q-61 0 -151 -37v112q101 38 187 38q100 0 132 -55q61 55 140 55q81 0 125.5 -52t44.5 -136z"/>
<glyph glyph-name="uni04D6" horiz-adv-x="512" unicode="Ӗ" d="M510 876q-34 -136 -161 -136q-65 0 -98 35.5t-32 100.5l79 14q9 -57 59 -57q47 0 76 57zM541 690l-21 -138h-243l-20 -127h182v-137h-204l-24 -150h251l-22 -138h-418l109 690h410z"/>
<glyph glyph-name="uni04D7" horiz-adv-x="478" unicode="ӗ" d="M264 402q-32 0 -56 -29t-36 -76h148q2 20 2 27q0 78 -58 78zM456 682q-34 -136 -161 -136q-65 0 -98 35.5t-32 100.5l79 14q9 -57 59 -57q47 0 76 57zM262 96q71 0 154 44v-103q-92 -47 -182 -47q-94 0 -151.5 53t-57.5 152q0 131 73 218t181 87q82 0 128 -53t46 -142 q0 -50 -12 -95h-279q0 -114 100 -114z"/>
<glyph glyph-name="uni04D8" horiz-adv-x="658" unicode="Ә" d="M305 115q53 0 96 48.5t60 134.5h-246q-3 -28 -3 -53q0 -130 93 -130zM51 266q0 72 15 145h403q-2 73 -36.5 112.5t-102.5 39.5q-51 0 -97.5 -14t-111.5 -45v138q114 61 234 61q134 0 208 -79t74 -223q0 -176 -98 -295t-246 -119q-119 0 -180.5 76.5t-61.5 202.5z"/>
<glyph glyph-name="uni04D9" horiz-adv-x="478" unicode="ә" d="M214 87q31 0 55.5 29t36.5 76h-148q-2 -20 -2 -27q0 -78 58 -78zM216 393q-71 0 -154 -44v103q92 47 182 47q94 0 151.5 -53t57.5 -152q0 -131 -73 -218t-181 -87q-82 0 -128 53t-46 142q0 50 12 95h279q0 114 -100 114z"/>
<glyph glyph-name="uni04DC" horiz-adv-x="938" unicode="Ӝ" d="M699 742h-121l21 131h121zM515 742h-120l20 131h122zM92 669l168 28l153 -300l42 293h170l-52 -298l230 298h192l-271 -334l174 -335l-168 -28l-167 334l-47 -327h-170l56 328l-241 -328h-191l285 370z"/>
<glyph glyph-name="uni04DD" horiz-adv-x="733" unicode="ӝ" d="M564 548h-121l21 131h121zM380 548h-120l20 131h122zM127 0h-159l201 262l-117 213l145 22l106 -213l30 206h146l-37 -202l159 202h159l-194 -241l127 -234l-146 -22l-115 231l-32 -224h-147l40 224z"/>
<glyph glyph-name="uni04DE" horiz-adv-x="558" unicode="Ӟ" d="M497 752h-121l21 131h121zM313 752h-120l20 131h122zM553 532q0 -133 -149 -183q108 -37 108 -144q0 -101 -77 -159t-195 -58q-132 0 -239 60l43 133q101 -55 190 -55q54 0 86 24.5t32 63.5q0 74 -121 74h-78v130h98q67 0 102 22.5t35 60.5q0 64 -86 64t-197 -60v142 q102 55 225 55q107 0 165 -45t58 -125z"/>
<glyph glyph-name="uni04DF" horiz-adv-x="466" unicode="ӟ" d="M427 548h-121l21 131h121zM243 548h-120l20 131h122zM74 350v114q91 35 189 35q90 0 135.5 -33t45.5 -90q0 -92 -100 -129q75 -28 75 -102q0 -71 -57.5 -113t-161.5 -42q-105 0 -202 50l36 110q90 -46 162 -46q38 0 59 14t21 38q0 43 -67 43h-84v100h84q87 0 87 49 q0 38 -58 38q-66 0 -164 -36z"/>
<glyph glyph-name="uni04E2" horiz-adv-x="680" unicode="Ӣ" d="M22 0l109 690h158l-63 -399l292 399h171l-109 -690h-158l66 420l-310 -420h-156zM569 748h-301l17 105h301z"/>
<glyph glyph-name="uni04E3" d="M457 557h-301l17 105h301zM30 98q0 20 4 50l55 342h147l-48 -304q-4 -16 -4 -33q0 -32 31 -32t96 62l49 307h147l-59 -368v-122h-138l-6 89q-49 -48 -89 -73.5t-85 -25.5q-48 0 -74 29t-26 79z" unicode="ӣ"/>
<glyph glyph-name="uni04E4" horiz-adv-x="680" unicode="Ӥ" d="M22 0l109 690h158l-63 -399l292 399h171l-109 -690h-158l66 420l-310 -420h-156zM385 739h-120l20 131h122zM569 739h-121l21 131h121z"/>
<glyph glyph-name="uni04E5" d="M30 98q0 20 4 50l55 342h147l-48 -304q-4 -16 -4 -33q0 -32 31 -32t96 62l49 307h147l-59 -368v-122h-138l-6 89q-49 -48 -89 -73.5t-85 -25.5q-48 0 -74 29t-26 79zM273 548h-120l20 131h122zM457 548h-121l21 131h121z" unicode="ӥ"/>
<glyph glyph-name="uni04E6" horiz-adv-x="690" unicode="Ӧ" d="M330 116q47 0 86 39q35 35 58 106t23 155q0 158 -109 158q-48 0 -87 -39q-34 -33 -57 -105t-23 -156q0 -158 109 -158zM327 -13q-131 0 -205 80t-74 223q0 96 31 181t89 142q88 90 222 90q131 0 205 -80t74 -223q0 -96 -31 -181t-88 -142q-90 -90 -223 -90zM389 752h-120 l20 131h122zM573 752h-121l21 131h121z"/>
<glyph glyph-name="uni04E7" horiz-adv-x="507" unicode="ӧ" d="M334 283q0 100 -63 100q-44 0 -71 -54t-27 -122q0 -100 62 -100q45 0 72 53.5t27 122.5zM479 283q0 -125 -69 -209t-181 -84q-96 0 -149 59.5t-53 156.5q0 126 69.5 210t181.5 84q94 0 147.5 -59.5t53.5 -157.5zM267 548h-120l20 131h122zM451 548h-121l21 131h121z"/>
<glyph glyph-name="uni04E8" horiz-adv-x="690" unicode="Ө" d="M290 537q-45 -45 -67 -126h287v2q0 168 -121 168q-57 0 -99 -44zM328 110q55 0 100 43q45 45 67 129h-288v-5q0 -167 121 -167zM327 -13q-131 0 -205 80t-74 223q0 96 31 181t89 142q88 90 222 90q131 0 205 -80t74 -223q0 -96 -31 -181t-88 -142q-90 -90 -223 -90z"/>
<glyph glyph-name="uni04E9" horiz-adv-x="507" unicode="ө" d="M235 92q37 0 63 29.5t40 78.5h-180q1 -108 77 -108zM271 398q-36 0 -62.5 -31t-40.5 -80h181q-1 56 -22 83.5t-56 27.5zM479 283q0 -125 -69 -209t-181 -84q-96 0 -149 59.5t-53 156.5q0 126 69.5 210t181.5 84q94 0 147.5 -59.5t53.5 -157.5z"/>
<glyph glyph-name="uni04EE" horiz-adv-x="637" unicode="Ӯ" d="M565 748h-301l17 105h301zM56 133q129 1 185 75l-153 465l174 24l91 -324l169 317h185l-287 -480q-71 -121 -156 -170t-208 -50v143z"/>
<glyph glyph-name="uni04EF" horiz-adv-x="483" unicode="ӯ" d="M445 557h-301l17 105h301zM511 490l-245 -504q-46 -96 -93.5 -132t-130.5 -36q-31 0 -55 6v120q30 -7 57 -7q51 0 80 46l10 19l-87 474l153 21l39 -309l129 302h143z"/>
<glyph glyph-name="uni04F0" horiz-adv-x="637" unicode="Ӱ" d="M564 739h-121l21 131h121zM380 739h-120l20 131h122zM56 133q129 1 185 75l-153 465l174 24l91 -324l169 317h185l-287 -480q-71 -121 -156 -170t-208 -50v143z"/>
<glyph glyph-name="uni04F1" horiz-adv-x="483" unicode="ӱ" d="M261 548h-120l20 131h122zM445 548h-121l21 131h121zM511 490l-245 -504q-46 -96 -93.5 -132t-130.5 -36q-31 0 -55 6v120q30 -7 57 -7q51 0 80 46l10 19l-87 474l153 21l39 -309l129 302h143z"/>
<glyph glyph-name="uni04F2" horiz-adv-x="637" unicode="Ӳ" d="M684 859l-152 -120h-95l65 112l-142 -112h-95l87 150l155 -29l17 29zM56 133q129 1 185 75l-153 465l174 24l91 -324l169 317h185l-287 -480q-71 -121 -156 -170t-208 -50v143z"/>
<glyph glyph-name="uni04F3" horiz-adv-x="483" unicode="ӳ" d="M565 668l-152 -120h-95l65 112l-142 -112h-95l87 150l155 -29l17 29zM511 490l-245 -504q-46 -96 -93.5 -132t-130.5 -36q-31 0 -55 6v120q30 -7 57 -7q51 0 80 46l10 19l-87 474l153 21l39 -309l129 302h143z"/>
<glyph glyph-name="uni04F4" horiz-adv-x="619" unicode="Ӵ" d="M542 739h-121l21 131h121zM358 739h-120l20 131h122zM520 0h-170l35 219q-50 -5 -87 -5q-106 0 -164.5 45.5t-58.5 139.5q0 27 7 83l33 208h169l-34 -211q-5 -38 -5 -52q0 -68 95 -68q40 0 67 5l52 326h170z"/>
<glyph glyph-name="uni04F5" horiz-adv-x="500" unicode="ӵ" d="M442 548h-121l21 131h121zM258 548h-120l20 131h122zM76 490h147l-23 -145q-4 -24 -4 -38q0 -48 63 -48q25 0 46 4l36 227h146l-78 -490h-147l23 137q-31 -4 -70 -4q-78 0 -123 37t-45 107q0 38 6 70z"/>
<glyph glyph-name="uni04F8" horiz-adv-x="845" unicode="Ӹ" d="M375 249q0 89 -103 89h-30l-33 -214h31q61 0 98 33.5t37 91.5zM300 690l-37 -228h24q254 0 254 -208q0 -117 -84 -185.5t-228 -68.5h-207l109 690h169zM851 690l-109 -690h-170l109 690h170zM464 739h-120l20 131h122zM648 739h-121l21 131h121z"/>
<glyph glyph-name="uni04F9" horiz-adv-x="716" unicode="ӹ" d="M701 490l-79 -490h-147l79 490h147zM306 185q0 29 -18 45.5t-52 16.5q-21 0 -39 -4l-24 -147q12 -4 31 -4q47 0 74.5 26.5t27.5 66.5zM16 21l74 469h147l-23 -148q24 4 58 4q78 0 126 -39.5t48 -107.5q0 -95 -69.5 -152t-186.5 -57q-94 0 -174 31zM372 548h-120l20 131 h122zM556 548h-121l21 131h121z"/>
<glyph glyph-name="enspace" horiz-adv-x="500" unicode=" "/>
<glyph glyph-name="emspace" horiz-adv-x="1000" unicode=" "/>
<glyph glyph-name="thinspace" horiz-adv-x="133" unicode=" "/>
<glyph glyph-name="endash" horiz-adv-x="423" unicode="–" d="M379 220h-344l22 141h343z"/>
<glyph glyph-name="emdash" horiz-adv-x="844" unicode="—" d="M801 221h-766l22 139h766z"/>
<glyph glyph-name="quoteleft" horiz-adv-x="251" unicode="‘" d="M43 384l149 315l89 -21l-68 -294h-170z"/>
<glyph glyph-name="quotesinglbase" horiz-adv-x="257" unicode="‚" d="M213 172l-149 -315l-89 21l67 294h171z"/>
<glyph glyph-name="quotedblleft" horiz-adv-x="473" unicode="“" d="M268 384l149 315l86 -21l-67 -294h-168zM43 384l149 315l86 -21l-68 -294h-167z"/>
<glyph glyph-name="quotedblright" horiz-adv-x="473" unicode="”" d="M519 690l-150 -315l-85 21l67 294h168zM294 690l-150 -315l-86 21l68 294h168z"/>
<glyph glyph-name="dagger" horiz-adv-x="476" unicode="†" d="M257 11l-62 -125h-29l-22 125l42 268l60 119h31l22 -119zM228 420l-132 -41h-39l18 115h38l120 -41zM459 379h-37l-120 41l6 33l132 41h38zM357 611l-68 -135h-32l-23 135l12 79h124z"/>
<glyph glyph-name="daggerdbl" horiz-adv-x="493" unicode="‡" d="M240 -182h-123l12 79l67 136h32l25 -136zM178 55l-132 -41h-38l18 115h38l120 -41zM410 14h-38l-120 41l6 33l132 41h39zM300 230l-60 -119h-32l-21 119l7 49l60 119h32l22 -119zM237 420l-133 -41h-39l18 115h39l120 -41zM468 379h-38l-120 41l6 33l132 41h38zM366 611 l-68 -135h-31l-25 135l13 79h123z"/>
<glyph glyph-name="ellipsis" horiz-adv-x="784" unicode="…" d="M167 0h-156l28 179h156zM431 0h-156l28 179h156zM694 0h-155l28 179h156z"/>
<glyph glyph-name="guilsinglleft" horiz-adv-x="308" unicode="‹" d="M320 490l-146 -249l63 -226l-98 -24l-121 254l188 245h114z"/>
<glyph glyph-name="guilsinglright" horiz-adv-x="308" unicode="›" d="M-13 0l146 249l-63 226l97 23l122 -254l-187 -244h-115z"/>
<glyph glyph-name="fraction" horiz-adv-x="270" unicode="⁄" d="M173 319l-249 -333l-64 18l270 347l251 333l64 -18z"/>
<glyph glyph-name="Euro" horiz-adv-x="563" unicode="€" d="M454 304l-13 -77h-173q23 -111 130 -111q56 0 111 29v-124q-60 -33 -137 -33q-118 0 -184 61t-79 178h-84v77h81q2 40 9 77h-73l12 76h81q36 104 112.5 168t181.5 64q97 0 165 -50l-41 -125q-65 46 -123 46q-90 0 -136 -103h177v-76h-200q-8 -38 -8 -77h191z"/>
<glyph glyph-name="trademark" horiz-adv-x="812" unicode="™" d="M392 615h-109v-270h-94v270h-103v75h295zM836 345h-96l-14 216l-64 -218h-87l-64 218l-14 -216h-82l26 345h120l67 -225l67 225h115z"/>
<glyph glyph-name="minus" horiz-adv-x="572" unicode="−" d="M522 276h-464l21 124h464z"/>
</font>
</defs>
</svg>
