<?xml version="1.0" encoding="UTF-8" standalone="no"?>
<!DOCTYPE svg  PUBLIC '-//W3C//DTD SVG 1.1//EN'  'http://www.w3.org/Graphics/SVG/1.1/DTD/svg11.dtd'>
<svg xmlns="http://www.w3.org/2000/svg">
<defs>
<font id="WhitneyIndexWhite-RdCnLt" horiz-adv-x="500">
<font-face underline-position="-113" font-weight="300" descent="-200" panose-1="2 0 6 6 3 0 0 2 0 2" units-per-em="1000" unicode-range="U+0020-00A0" bbox="-4 -126 504 814" x-height="814" underline-thickness="20" font-family="WhitneyIndexWhite" ascent="800" cap-height="814"/>
<missing-glyph d="M33 0v666h265v-666h-265zM66 33h199v600h-199v-600z"/>
<glyph glyph-name=".notdef" d="M33 0v666h265v-666h-265zM66 33h199v600h-199v-600z"/>
<glyph glyph-name=".null" horiz-adv-x="0"/>
<glyph glyph-name="nonmarkingreturn"/>
<glyph glyph-name="space" unicode=" "/>
<glyph glyph-name="zero" d="M435 348q0 72 -19 110.5t-54 38.5q-72 0 -72 -149q0 -148 72 -148q35 0 54 38t19 110zM504 -125l-4 -1q-202 0 -336 136t-134 334t134 334t336 136l4 -1v-36h-4q-188 0 -309 -124t-121 -309t121 -309t309 -124h4v-36zM479 348q0 -91 -31 -139t-86 -48t-86 48.5t-31 138.5 t31 139t86 49t86 -48.5t31 -139.5z" unicode="0"/>
<glyph glyph-name="one" d="M504 -125l-4 -1q-202 0 -336 136t-134 334t134 334t336 136l4 -1v-36h-4q-188 0 -309 -124t-121 -309t121 -309t309 -124h4v-36zM479 165h-219v32h90v290l-78 -34l-5 36l93 44h36v-336h78z" unicode="1"/>
<glyph glyph-name="two" d="M504 -125l-4 -1q-202 0 -336 136t-134 334t134 334t336 136l4 -1v-36h-4q-188 0 -309 -124t-121 -309t121 -309t309 -124h4v-36zM240 164v34l126 139q51 56 51 91q0 30 -18 48t-51 18q-45 0 -92 -40l-8 41q45 40 102 40q51 0 80.5 -29t29.5 -76q0 -30 -15 -54.5 t-51 -64.5l-100 -109h166l7 -38h-227z" unicode="2"/>
<glyph glyph-name="three" d="M504 -125l-4 -1q-202 0 -336 136t-134 334t134 334t336 136l4 -1v-36h-4q-188 0 -309 -124t-121 -309t121 -309t309 -124h4v-36zM353 535q52 0 81.5 -27t29.5 -65q0 -63 -65 -84l1 -2q32 -6 51 -31t19 -60q0 -47 -33.5 -76.5t-87.5 -29.5q-43 0 -99 28l9 39 q47 -28 91 -28q34 0 56.5 19.5t22.5 48.5q0 74 -97 74h-19l-5 34h28q86 0 86 64q0 26 -19.5 41.5t-50.5 15.5q-54 0 -90 -34l-7 41q46 32 98 32z" unicode="3"/>
<glyph glyph-name="four" d="M400 286v110l1 99h-2l-44 -86l-43 -71l-35 -52l1 -3l59 3h63zM504 -125l-4 -1q-202 0 -336 136t-134 334t134 334t336 136l4 -1v-36h-4q-188 0 -309 -124t-121 -309t121 -309t309 -124h4v-36zM490 250h-51v-84h-39v84h-161v31l146 249h54v-244h51v-36z" unicode="4"/>
<glyph glyph-name="five" d="M504 -125l-4 -1q-202 0 -336 136t-134 334t134 334t336 136l4 -1v-36h-4q-188 0 -309 -124t-121 -309t121 -309t309 -124h4v-36zM345 161q-64 0 -101 28l8 41q39 -31 95 -31q34 0 58 20t24 58q0 35 -21.5 53.5t-54.5 18.5q-31 0 -63 -17l-31 8l15 189h181l6 -38h-150 l-10 -115q43 10 54 10q52 0 84 -29t32 -78q0 -53 -35.5 -85.5t-90.5 -32.5z" unicode="5"/>
<glyph glyph-name="six" d="M430 275q0 35 -17 56t-50 21q-44 0 -80 -32v-6q0 -53 22 -86t57 -33q30 0 49 22t19 58zM504 -125l-4 -1q-202 0 -336 136t-134 334t134 334t336 136l4 -1v-36h-4q-188 0 -309 -124t-121 -309t121 -309t309 -124h4v-36zM474 277q0 -52 -31.5 -84.5t-82.5 -32.5 q-53 0 -85.5 40.5t-32.5 112.5q0 87 48.5 144t129.5 81l7 -42q-122 -33 -143 -144l4 -2q36 38 84 38q47 0 74.5 -30t27.5 -81z" unicode="6"/>
<glyph glyph-name="seven" d="M504 -125l-4 -1q-202 0 -336 136t-134 334t134 334t336 136l4 -1v-36h-4q-188 0 -309 -124t-121 -309t121 -309t309 -124h4v-36zM475 494l-148 -332l-40 9l142 318h-180l-7 40h233v-35z" unicode="7"/>
<glyph glyph-name="eight" d="M423 443q0 26 -16.5 42.5t-45.5 16.5t-45 -16t-16 -42t18 -44t61 -36q44 32 44 79zM433 261q0 29 -21 47.5t-68 38.5q-56 -34 -56 -85q0 -29 21.5 -47.5t53.5 -18.5q31 0 50.5 18t19.5 47zM504 -125l-4 -1q-202 0 -336 136t-134 334t134 334t336 136l4 -1v-36h-4 q-188 0 -309 -124t-121 -309t121 -309t309 -124h4v-36zM475 259q0 -42 -31 -69t-82 -27q-53 0 -84.5 27.5t-31.5 69.5q0 58 71 97q-59 29 -59 87q0 41 29 66t75 25t74 -25.5t28 -64.5q0 -49 -60 -90q37 -20 54 -41t17 -55z" unicode="8"/>
<glyph glyph-name="nine" d="M438 371v12q0 51 -22.5 84t-55.5 33q-32 0 -51.5 -22t-19.5 -59t17.5 -58.5t50.5 -21.5q43 0 81 32zM479 383q0 -83 -44 -142t-136 -82l-7 40q124 31 144 139l-4 2q-37 -38 -82 -38q-49 0 -76.5 31t-27.5 84q0 52 31.5 86t82.5 34q52 0 85.5 -41t33.5 -113zM504 -125 l-4 -1q-202 0 -336 136t-134 334t134 334t336 136l4 -1v-36h-4q-188 0 -309 -124t-121 -309t121 -309t309 -124h4v-36z" unicode="9"/>
<glyph glyph-name="A" d="M400 308l-20 97l-12 85h-10l-13 -85l-19 -97h74zM504 -125l-4 -1q-202 0 -336 136t-134 334t134 334t336 136l4 -1v-36h-4q-188 0 -309 -124t-121 -309t121 -309t309 -124h4v-36zM474 171l-45 -8l-22 108h-88l-22 -106h-45l84 367h55z" unicode="A"/>
<glyph glyph-name="B" d="M423 268q0 71 -80 71h-37v-139h41q76 0 76 68zM414 434q0 61 -68 61h-40v-123h34q35 0 54.5 17.5t19.5 44.5zM504 -125l-4 -1q-202 0 -336 136t-134 334t134 334t336 136l4 -1v-36h-4q-188 0 -309 -124t-121 -309t121 -309t309 -124h4v-36zM466 265q0 -46 -33.5 -73 t-86.5 -27h-81v364h82q50 0 78.5 -22.5t28.5 -64.5q0 -28 -16 -50t-44 -32q72 -18 72 -95z" unicode="B"/>
<glyph glyph-name="C" d="M504 -125l-4 -1q-202 0 -336 136t-134 334t134 334t336 136l4 -1v-36h-4q-188 0 -309 -124t-121 -309t121 -309t309 -124h4v-36zM457 185q-37 -23 -76 -23q-62 0 -96 47.5t-34 138.5q0 87 34.5 136t95.5 49q41 0 70 -21l-6 -41q-26 22 -64 22q-84 0 -84 -145 q0 -69 22.5 -107t65.5 -38q41 0 65 21z" unicode="C"/>
<glyph glyph-name="D" d="M433 349q0 145 -112 145h-11v-292h11q112 0 112 147zM504 -125l-4 -1q-202 0 -336 136t-134 334t134 334t336 136l4 -1v-36h-4q-188 0 -309 -124t-121 -309t121 -309t309 -124h4v-36zM478 349q0 -184 -157 -184h-56v364h56q157 0 157 -180z" unicode="D"/>
<glyph glyph-name="E" d="M504 -125l-4 -1q-202 0 -336 136t-134 334t134 334t336 136l4 -1v-36h-4q-188 0 -309 -124t-121 -309t121 -309t309 -124h4v-36zM454 165h-189v364h183v-36h-139v-118h112l8 -37h-120v-136h145v-37z" unicode="E"/>
<glyph glyph-name="F" d="M504 -125l-4 -1q-202 0 -336 136t-134 334t134 334t336 136l4 -1v-36h-4q-188 0 -309 -124t-121 -309t121 -309t309 -124h4v-36zM459 492h-150v-133h121l7 -38h-128v-156h-44v364h194v-37z" unicode="F"/>
<glyph glyph-name="G" d="M504 -125l-4 -1q-202 0 -336 136t-134 334t134 334t336 136l4 -1v-36h-4q-188 0 -309 -124t-121 -309t121 -309t309 -124h4v-36zM459 191q-45 -30 -92 -30q-56 0 -85.5 48.5t-29.5 138.5q0 87 30 137t91 50q46 0 77 -24l-6 -41q-37 28 -70 28q-76 0 -76 -150 q0 -151 72 -151q23 0 48 16v113h-50l-7 38h98v-173z" unicode="G"/>
<glyph glyph-name="H" d="M504 -125l-4 -1q-202 0 -336 136t-134 334t134 334t336 136l4 -1v-36h-4q-188 0 -309 -124t-121 -309t121 -309t309 -124h4v-36zM463 165h-45v173h-108v-173h-45v364h45v-151h108v151h45v-364z" unicode="H"/>
<glyph glyph-name="I" d="M504 -125l-4 -1q-202 0 -336 136t-134 334t134 334t336 136l4 -1v-36h-4q-188 0 -309 -124t-121 -309t121 -309t309 -124h4v-36zM454 165h-176v32h63v301h-64l-6 31h178v-31h-63v-301h63z" unicode="I"/>
<glyph glyph-name="J" d="M504 -125l-4 -1q-202 0 -336 136t-134 334t134 334t336 136l4 -1v-36h-4q-188 0 -309 -124t-121 -309t121 -309t309 -124h4v-36zM449 291q0 -60 -29.5 -94t-83.5 -34q-44 0 -72 15l-5 42q34 -18 69 -18q41 0 58.5 24.5t17.5 72.5v230h45v-238z" unicode="J"/>
<glyph glyph-name="K" d="M504 -125l-4 -1q-202 0 -336 136t-134 334t134 334t336 136l4 -1v-36h-4q-188 0 -309 -124t-121 -309t121 -309t309 -124h4v-36zM484 170l-46 -7l-77 117l-37 70h-14v-185h-45v364h45v-169h14l37 70l67 99h45l-111 -170z" unicode="K"/>
<glyph glyph-name="L" d="M504 -125l-4 -1q-202 0 -336 136t-134 334t134 334t336 136l4 -1v-36h-4q-188 0 -309 -124t-121 -309t121 -309t309 -124h4v-36zM476 165h-211v364h45v-323h159z" unicode="L"/>
<glyph glyph-name="M" d="M504 -125l-4 -1q-202 0 -336 136t-134 334t134 334t336 136l4 -1v-36h-4q-188 0 -309 -124t-121 -309t121 -309t309 -124h4v-36zM470 165h-33l-5 312h-4l-44 -193h-45l-41 193h-5l-4 -312h-34l8 364h48l50 -228h2l51 228h48z" unicode="M"/>
<glyph glyph-name="N" d="M504 -125l-4 -1q-202 0 -336 136t-134 334t134 334t336 136l4 -1v-36h-4q-188 0 -309 -124t-121 -309t121 -309t309 -124h4v-36zM427 529h36v-364h-50l-78 227l-32 97h-8l7 -97l2 -227h-36v364h57l71 -206l32 -96h8l-7 96z" unicode="N"/>
<glyph glyph-name="O" d="M429 348q0 151 -66 151t-66 -151q0 -152 66 -152t66 152zM504 -125l-4 -1q-202 0 -336 136t-134 334t134 334t336 136l4 -1v-36h-4q-188 0 -309 -124t-121 -309t121 -309t309 -124h4v-36zM477 348q0 -88 -29.5 -138t-85.5 -50q-55 0 -84 49.5t-29 138.5q0 88 29.5 137.5 t84.5 49.5t84.5 -49.5t29.5 -137.5z" unicode="O"/>
<glyph glyph-name="P" d="M430 415q0 80 -80 80h-41v-162h39q41 0 61.5 23.5t20.5 58.5zM504 -125l-4 -1q-202 0 -336 136t-134 334t134 334t336 136l4 -1v-36h-4q-188 0 -309 -124t-121 -309t121 -309t309 -124h4v-36zM474 415q0 -53 -35 -85t-93 -32h-37v-133h-45v364h86q58 0 91 -29t33 -85z " unicode="P"/>
<glyph glyph-name="Q" d="M429 350q0 69 -16.5 109.5t-49.5 40.5q-67 0 -67 -150q0 -132 66 -153q67 19 67 153zM477 350q0 -131 -79 -175l81 -38l-8 -40l-144 77q-40 22 -59 58t-19 118q0 88 29.5 136.5t84.5 48.5q56 0 85 -48.5t29 -136.5zM504 -125l-4 -1q-202 0 -336 136t-134 334t134 334 t336 136l4 -1v-36h-4q-188 0 -309 -124t-121 -309t121 -309t309 -124h4v-36z" unicode="Q"/>
<glyph glyph-name="R" d="M413 424q0 71 -76 71h-28v-145h26q78 0 78 74zM504 -125l-4 -1q-202 0 -336 136t-134 334t134 334t336 136l4 -1v-36h-4q-188 0 -309 -124t-121 -309t121 -309t309 -124h4v-36zM473 169l-44 -6l-77 151h-42v-149h-45v364h75q54 0 85.5 -26.5t31.5 -75.5q0 -76 -64 -102z " unicode="R"/>
<glyph glyph-name="S" d="M504 -125l-4 -1q-202 0 -336 136t-134 334t134 334t336 136l4 -1v-36h-4q-188 0 -309 -124t-121 -309t121 -309t309 -124h4v-36zM465 259q0 -43 -30 -69.5t-76 -26.5q-48 0 -94 19l5 40q46 -21 86 -21q65 0 65 54q0 23 -14 40t-51 39q-47 28 -68 51.5t-21 55.5 q0 42 30 67.5t77 25.5q38 0 81 -15l-5 -42q-42 19 -78 19q-62 0 -62 -49q0 -21 13.5 -36.5t53.5 -39.5q49 -29 68.5 -54t19.5 -58z" unicode="S"/>
<glyph glyph-name="T" d="M504 -125l-4 -1q-202 0 -336 136t-134 334t134 334t336 136l4 -1v-36h-4q-188 0 -309 -124t-121 -309t121 -309t309 -124h4v-36zM472 492h-86v-327h-45v327h-86v37h211z" unicode="T"/>
<glyph glyph-name="U" d="M504 -125l-4 -1q-202 0 -336 136t-134 334t134 334t336 136l4 -1v-36h-4q-188 0 -309 -124t-121 -309t121 -309t309 -124h4v-36zM463 259q0 -49 -28.5 -73.5t-73.5 -24.5q-41 0 -67.5 24.5t-26.5 67.5v276h45v-273q0 -26 16 -40.5t36 -14.5q22 0 38 14t16 44v270h45v-270 z" unicode="U"/>
<glyph glyph-name="V" d="M504 -125l-4 -1q-202 0 -336 136t-134 334t134 334t336 136l4 -1v-36h-4q-188 0 -309 -124t-121 -309t121 -309t309 -124h4v-36zM473 529l-84 -366h-53l-84 361l46 8l38 -184l23 -143h7l23 143l37 181h47z" unicode="V"/>
<glyph glyph-name="W" d="M504 -125l-4 -1q-202 0 -336 136t-134 334t134 334t336 136l4 -1v-36h-4q-188 0 -309 -124t-121 -309t121 -309t309 -124h4v-36zM486 529l-36 -366h-50l-36 224h-4l-36 -224h-53l-31 363l35 6l18 -285l5 -56h5l8 56l27 168h47l29 -168l7 -56h6l4 56l20 282h35z" unicode="W"/>
<glyph glyph-name="X" d="M504 -125l-4 -1q-202 0 -336 136t-134 334t134 334t336 136l4 -1v-36h-4q-188 0 -309 -124t-121 -309t121 -309t309 -124h4v-36zM474 169l-46 -6l-45 116l-13 45h-11l-14 -45l-45 -114h-46l84 186l-78 176l45 6l40 -103l14 -45h11l13 45l39 99h46l-77 -172z" unicode="X"/>
<glyph glyph-name="Y" d="M504 -125l-4 -1q-202 0 -336 136t-134 334t134 334t336 136l4 -1v-36h-4q-188 0 -309 -124t-121 -309t121 -309t309 -124h4v-36zM479 529l-93 -220v-144h-45v144l-91 217l48 6l34 -92l29 -87h9l29 87l32 89h48z" unicode="Y"/>
<glyph glyph-name="Z" d="M504 -125l-4 -1q-202 0 -336 136t-134 334t134 334t336 136l4 -1v-36h-4q-188 0 -309 -124t-121 -309t121 -309t309 -124h4v-36zM468 165h-203v34l150 295h-137l-7 35h196v-31l-152 -296h146z" unicode="Z"/>
<glyph glyph-name="a" d="M174 308l-19 97l-12 85h-10l-13 -85l-19 -97h73zM-4 -125v36h4q189 0 309.5 124t120.5 309t-120.5 309t-309.5 124h-4v36l4 1q134 0 242 -63t168 -170.5t60 -236.5t-60 -236.5t-168 -170.5t-242 -63zM249 171l-46 -8l-21 108h-88l-22 -106h-46l85 367h55z" unicode="a"/>
<glyph glyph-name="b" d="M198 268q0 71 -80 71h-37v-139h41q76 0 76 68zM189 434q0 61 -68 61h-40v-123h33q36 0 55.5 17.5t19.5 44.5zM-4 -125v36h4q189 0 309.5 124t120.5 309t-120.5 309t-309.5 124h-4v36l4 1q134 0 242 -63t168 -170.5t60 -236.5t-60 -236.5t-168 -170.5t-242 -63zM241 265 q0 -46 -33.5 -73t-86.5 -27h-81v364h82q50 0 78.5 -22.5t28.5 -64.5q0 -28 -16 -50t-44 -32q72 -18 72 -95z" unicode="b"/>
<glyph glyph-name="c" d="M-4 -125v36h4q189 0 309.5 124t120.5 309t-120.5 309t-309.5 124h-4v36l4 1q134 0 242 -63t168 -170.5t60 -236.5t-60 -236.5t-168 -170.5t-242 -63zM245 185q-35 -23 -75 -23q-63 0 -97 47.5t-34 138.5q0 87 34.5 136t96.5 49q42 0 70 -21l-7 -41q-26 22 -63 22 q-42 0 -63.5 -38t-21.5 -107t22.5 -107t65.5 -38q40 0 66 21z" unicode="c"/>
<glyph glyph-name="d" d="M208 349q0 145 -112 145h-12v-292h12q112 0 112 147zM-4 -125v36h4q189 0 309.5 124t120.5 309t-120.5 309t-309.5 124h-4v36l4 1q134 0 242 -63t168 -170.5t60 -236.5t-60 -236.5t-168 -170.5t-242 -63zM252 349q0 -184 -156 -184h-56v364h56q156 0 156 -180z" unicode="d"/>
<glyph glyph-name="e" d="M-4 -125v36h4q189 0 309.5 124t120.5 309t-120.5 309t-309.5 124h-4v36l4 1q134 0 242 -63t168 -170.5t60 -236.5t-60 -236.5t-168 -170.5t-242 -63zM229 165h-189v364h182v-36h-138v-118h112l7 -37h-119v-136h145v-37z" unicode="e"/>
<glyph glyph-name="f" d="M-4 -125v36h4q189 0 309.5 124t120.5 309t-120.5 309t-309.5 124h-4v36l4 1q134 0 242 -63t168 -170.5t60 -236.5t-60 -236.5t-168 -170.5t-242 -63zM233 492h-149v-133h121l7 -38h-128v-156h-44v364h193v-37z" unicode="f"/>
<glyph glyph-name="g" d="M-4 -125v36h4q189 0 309.5 124t120.5 309t-120.5 309t-309.5 124h-4v36l4 1q134 0 242 -63t168 -170.5t60 -236.5t-60 -236.5t-168 -170.5t-242 -63zM238 191q-43 -30 -92 -30q-56 0 -85.5 48.5t-29.5 138.5q0 87 30 137t92 50q45 0 77 -24l-7 -41q-37 28 -70 28 q-76 0 -76 -150q0 -151 73 -151q22 0 47 16v113h-50l-6 38h97v-173z" unicode="g"/>
<glyph glyph-name="h" d="M-4 -125v36h4q189 0 309.5 124t120.5 309t-120.5 309t-309.5 124h-4v36l4 1q134 0 242 -63t168 -170.5t60 -236.5t-60 -236.5t-168 -170.5t-242 -63zM238 165h-45v173h-108v-173h-45v364h45v-151h108v151h45v-364z" unicode="h"/>
<glyph glyph-name="i" d="M-4 -125v36h4q189 0 309.5 124t120.5 309t-120.5 309t-309.5 124h-4v36l4 1q134 0 242 -63t168 -170.5t60 -236.5t-60 -236.5t-168 -170.5t-242 -63zM229 165h-176v32h62v301h-63l-6 31h177v-31h-63v-301h63z" unicode="i"/>
<glyph glyph-name="j" d="M-4 -125v36h4q189 0 309.5 124t120.5 309t-120.5 309t-309.5 124h-4v36l4 1q134 0 242 -63t168 -170.5t60 -236.5t-60 -236.5t-168 -170.5t-242 -63zM238 291q0 -60 -30 -94t-84 -34q-45 0 -71 15l-6 42q34 -18 69 -18q41 0 58.5 24.5t17.5 72.5v230h46v-238z" unicode="j"/>
<glyph glyph-name="k" d="M-4 -125v36h4q189 0 309.5 124t120.5 309t-120.5 309t-309.5 124h-4v36l4 1q134 0 242 -63t168 -170.5t60 -236.5t-60 -236.5t-168 -170.5t-242 -63zM259 170l-47 -7l-76 117l-37 70h-14v-185h-45v364h45v-169h14l37 70l66 99h46l-111 -170z" unicode="k"/>
<glyph glyph-name="l" d="M-4 -125v36h4q189 0 309.5 124t120.5 309t-120.5 309t-309.5 124h-4v36l4 1q134 0 242 -63t168 -170.5t60 -236.5t-60 -236.5t-168 -170.5t-242 -63zM251 165h-211v364h45v-323h159z" unicode="l"/>
<glyph glyph-name="m" d="M-4 -125v36h4q189 0 309.5 124t120.5 309t-120.5 309t-309.5 124h-4v36l4 1q134 0 242 -63t168 -170.5t60 -236.5t-60 -236.5t-168 -170.5t-242 -63zM245 165h-33l-5 312h-5l-43 -193h-45l-41 193h-5l-4 -312h-34l8 364h47l51 -229h2l51 229h48z" unicode="m"/>
<glyph glyph-name="n" d="M-4 -125v36h4q189 0 309.5 124t120.5 309t-120.5 309t-309.5 124h-4v36l4 1q134 0 242 -63t168 -170.5t60 -236.5t-60 -236.5t-168 -170.5t-242 -63zM200 529h36v-364h-50l-78 227l-32 97h-8l7 -97l2 -227h-36v364h57l71 -206l32 -96h8l-7 96z" unicode="n"/>
<glyph glyph-name="o" d="M204 348q0 151 -66 151t-66 -151q0 -152 66 -152t66 152zM-4 -125v36h4q189 0 309.5 124t120.5 309t-120.5 309t-309.5 124h-4v36l4 1q134 0 242 -63t168 -170.5t60 -236.5t-60 -236.5t-168 -170.5t-242 -63zM252 348q0 -88 -29.5 -138t-85.5 -50q-55 0 -84 49.5 t-29 138.5q0 88 29.5 137.5t84.5 49.5t84.5 -49.5t29.5 -137.5z" unicode="o"/>
<glyph glyph-name="p" d="M205 415q0 80 -81 80h-40v-162h39q41 0 61.5 23.5t20.5 58.5zM-4 -125v36h4q189 0 309.5 124t120.5 309t-120.5 309t-309.5 124h-4v36l4 1q134 0 242 -63t168 -170.5t60 -236.5t-60 -236.5t-168 -170.5t-242 -63zM249 415q0 -53 -35 -85t-93 -32h-37v-133h-45v364h85 q58 0 91.5 -29t33.5 -85z" unicode="p"/>
<glyph glyph-name="q" d="M203 350q0 68 -16.5 109t-48.5 41q-67 0 -67 -150q0 -126 66 -153q66 19 66 153zM252 350q0 -131 -79 -175l81 -38l-8 -40l-144 77q-40 22 -59 58t-19 118q0 88 29.5 136.5t84.5 48.5t84.5 -48.5t29.5 -136.5zM-4 -125v36h4q189 0 309.5 124t120.5 309t-120.5 309 t-309.5 124h-4v36l4 1q134 0 242 -63t168 -170.5t60 -236.5t-60 -236.5t-168 -170.5t-242 -63z" unicode="q"/>
<glyph glyph-name="r" d="M188 424q0 71 -76 71h-28v-145h26q78 0 78 74zM-4 -125v36h4q189 0 309.5 124t120.5 309t-120.5 309t-309.5 124h-4v36l4 1q134 0 242 -63t168 -170.5t60 -236.5t-60 -236.5t-168 -170.5t-242 -63zM248 169l-44 -6l-77 151h-42v-149h-45v364h74q55 0 86.5 -26.5 t31.5 -75.5q0 -76 -64 -102z" unicode="r"/>
<glyph glyph-name="s" d="M-4 -125v36h4q189 0 309.5 124t120.5 309t-120.5 309t-309.5 124h-4v36l4 1q134 0 242 -63t168 -170.5t60 -236.5t-60 -236.5t-168 -170.5t-242 -63zM236 258q0 -43 -29 -69.5t-75 -26.5q-42 0 -93 17l5 43q47 -21 85 -21q63 0 63 53q0 35 -62 78q-31 22 -45 33 t-28.5 31.5t-14.5 42.5q0 43 29 69t76 26q43 0 80 -16l-6 -42q-41 19 -76 19q-29 0 -45 -13.5t-16 -36.5q0 -18 13.5 -31.5t50.5 -39.5q42 -30 65 -56.5t23 -59.5z" unicode="s"/>
<glyph glyph-name="t" d="M-4 -125v36h4q189 0 309.5 124t120.5 309t-120.5 309t-309.5 124h-4v36l4 1q134 0 242 -63t168 -170.5t60 -236.5t-60 -236.5t-168 -170.5t-242 -63zM247 492h-86v-327h-45v327h-86v37h211z" unicode="t"/>
<glyph glyph-name="u" d="M-4 -125v36h4q189 0 309.5 124t120.5 309t-120.5 309t-309.5 124h-4v36l4 1q134 0 242 -63t168 -170.5t60 -236.5t-60 -236.5t-168 -170.5t-242 -63zM236 259q0 -49 -28.5 -73.5t-73.5 -24.5q-41 0 -67.5 24.5t-26.5 67.5v276h45v-273q0 -26 16 -40.5t36 -14.5 q22 0 38 14t16 44v270h45v-270z" unicode="u"/>
<glyph glyph-name="v" d="M-4 -125v36h4q189 0 309.5 124t120.5 309t-120.5 309t-309.5 124h-4v36l4 1q134 0 242 -63t168 -170.5t60 -236.5t-60 -236.5t-168 -170.5t-242 -63zM248 529l-85 -366h-52l-84 361l46 8l38 -184l22 -143h8l22 143l38 181h47z" unicode="v"/>
<glyph glyph-name="w" d="M-4 -125v36h4q189 0 309.5 124t120.5 309t-120.5 309t-309.5 124h-4v36l4 1q134 0 242 -63t168 -170.5t60 -236.5t-60 -236.5t-168 -170.5t-242 -63zM261 529l-36 -366h-50l-36 224h-5l-35 -224h-54l-30 363l35 6l18 -285l5 -56h5l7 56l28 168h47l29 -168l7 -56h6l4 56 l20 282h35z" unicode="w"/>
<glyph glyph-name="x" d="M-4 -125v36h4q189 0 309.5 124t120.5 309t-120.5 309t-309.5 124h-4v36l4 1q134 0 242 -63t168 -170.5t60 -236.5t-60 -236.5t-168 -170.5t-242 -63zM249 169l-47 -6l-44 116l-14 45h-11l-13 -45l-46 -114h-45l84 186l-78 176l45 6l40 -103l13 -45h11l14 45l39 99h45 l-76 -172z" unicode="x"/>
<glyph glyph-name="y" d="M-4 -125v36h4q189 0 309.5 124t120.5 309t-120.5 309t-309.5 124h-4v36l4 1q134 0 242 -63t168 -170.5t60 -236.5t-60 -236.5t-168 -170.5t-242 -63zM254 529l-93 -220v-144h-45v144l-91 217l48 6l34 -92l29 -87h9l28 87l33 89h48z" unicode="y"/>
<glyph glyph-name="z" d="M-4 -125v36h4q189 0 309.5 124t120.5 309t-120.5 309t-309.5 124h-4v36l4 1q134 0 242 -63t168 -170.5t60 -236.5t-60 -236.5t-168 -170.5t-242 -63zM240 165h-203v34l150 295h-137l-6 35h195v-31l-152 -296h146z" unicode="z"/>
<glyph glyph-name="uni00A0" unicode=" "/>
</font>
</defs>
</svg>
